<?xml version="1.0" encoding="UTF-8"?>
<!DOCTYPE svg PUBLIC "-//W3C//DTD SVG 1.0//EN" "http://www.w3.org/TR/2001/REC-SVG-20010904/DTD/svg10.dtd">
<svg width="110mm" height="108mm" viewBox="0 0 11000 10800">
 <g style="stroke:none;fill:rgb(255,255,255)">
  <polygon points="127,138 10814,138 10814,10652 127,10652 127,138"/>
 </g>
 <g style="stroke:rgb(0,0,0);fill:none">
  <polyline points="5470,10652 127,10652 127,138 10814,138 10814,10652 5470,10652" style="fill:none"/>
 </g>
 <g style="stroke:none;fill:rgb(230,230,230)">
  <polygon points="345,2002 10505,2002 10505,10312 345,10312 345,2002"/>
 </g>
 <g style="stroke:rgb(0,0,0);fill:none">
  <polyline points="5425,10312 345,10312 345,2002 10505,2002 10505,10312 5425,10312" style="fill:none"/>
 </g>
 <g style="stroke:none;fill:rgb(255,255,255)">
  <polygon points="565,2861 10187,2861 10187,9926 565,9926 565,2861"/>
 </g>
 <g style="stroke:rgb(0,0,0);fill:none">
  <polyline points="5376,9926 565,9926 565,2861 10187,2861 10187,9926 5376,9926" style="fill:none"/>
 </g>
 <g style="stroke:none;fill:rgb(230,230,255)">
  <polygon points="758,4819 9923,4819 9923,6930 758,6930 758,4819"/>
 </g>
 <g style="stroke:rgb(0,0,0);fill:none">
  <polyline points="5340,6930 758,6930 758,4819 9923,4819 9923,6930 5340,6930" style="fill:none"/>
 </g>
 <g style="stroke:none;fill:rgb(230,230,255)">
  <polygon points="758,7262 9868,7262 9868,9670 758,9670 758,7262"/>
 </g>
 <g style="stroke:rgb(0,0,0);fill:none">
  <polyline points="5313,9670 758,9670 758,7262 9868,7262 9868,9670 5313,9670" style="fill:none"/>
 </g>
 <g style="font-family:Times;font-size:388;font-weight:700">
  <g style="stroke:none;fill:rgb(0,0,0)">
   <text>
    <tspan x="582 794 1098 1378 1615 1717 1954 2148 2318 2538 2707 " y="2454">SOAP Packet
    </tspan>
   </text>
  </g>
 </g>
 <g style="font-family:Times;font-size:353;font-weight:700">
  <g style="stroke:none;fill:rgb(0,0,0)">
   <text>
    <tspan x="450 704 882 1178 1474 1669 1872 1966 2126 2304 2423 2516 2694 2897 2982 3202 3363 3540 3659 3837 3989 4167 4268 4353 4590 4793 4971 5124 5225 5403 5606 " y="648">Communication Protocol Envelope
    </tspan>
   </text>
  </g>
 </g>
 <g style="font-family:Times;font-size:353;font-weight:400">
  <g style="stroke:none;fill:rgb(0,0,0)">
   <text>
    <tspan x="766 851 944 1028 1122 1232 1325 1486 1570 1748 1841 1926 2180 2400 2620 2815 2908 2993 3187 3509 3721 3924 4009 4187 " y="1046">- e.g. HTTP, SMTP header
    </tspan>
   </text>
   <text>
    <tspan x="766 851 944 1028 1122 1232 1325 1486 1663 1841 1934 2095 2197 2375 2510 2595 2773 2891 3069 3187 3467 3628 3721 3822 4000 4178 4271 4424 4601 4779 4957 5059 5143 5423 5584 5719 5854 6015 6193 6354 6439 6557 6718 6879 6972 " y="1444">- contains nformation about message recipient
    </tspan>
   </text>
  </g>
 </g>
 <g style="font-family:Times;font-size:353;font-weight:700">
  <g style="stroke:none;fill:rgb(0,0,0)">
   <text>
    <tspan x="873 1068 1347 1601 1821 1906 2143 2338 2516 2676 2778 2956 3151 " y="3320">SOAP Envelope
    </tspan>
   </text>
  </g>
 </g>
 <g style="font-family:Times;font-size:353;font-weight:400">
  <g style="stroke:none;fill:rgb(0,0,0)">
   <text>
    <tspan x="1110 1195 1288 1372 1491 1626 1804 1965 2126 2219 2338 2439 2600 2736 2820 2998 3100 3277 3455 3616 3709 3802 3938 4099 4200 4293 " y="3718">-specifies global settings
    </tspan>
   </text>
   <text>
    <tspan x="1110 1195 1288 1372 1491 1576 1737 1830 2007 2092 2185 2397 2575 2736 2913 " y="4116">- e.g. Encoding
    </tspan>
   </text>
  </g>
 </g>
 <g style="font-family:Times;font-size:353;font-weight:700">
  <g style="stroke:none;fill:rgb(0,0,0)">
   <text>
    <tspan x="926 1121 1400 1654 1874 1959 2238 2391 2569 2772 2924 " y="5331">SOAP Header
    </tspan>
   </text>
  </g>
 </g>
 <g style="font-family:Times;font-size:353;font-weight:400">
  <g style="stroke:none;fill:rgb(0,0,0)"/>
 </g>
 <g style="font-family:Times;font-size:353;font-style:italic;font-weight:400">
  <g style="stroke:none;fill:rgb(0,0,0)">
   <text>
    <tspan x="3170 3280 3458 3636 3737 3839 4017 4211 4389 4491 " y="5331">(optional)
    </tspan>
   </text>
  </g>
 </g>
 <g style="font-family:Times;font-size:353;font-weight:400">
  <g style="stroke:none;fill:rgb(0,0,0)">
   <text>
    <tspan x="1163 1248 1341 1425 1544 1629 1773 1950 2103 2264 2365 2484 2577 2738 2873 2966 3085 3263 3381 3483 3661 3813 3932 4025 4177 4355 4533 4634 4795 4973 5066 5159 5261 5439 5557 5735 5854 6124 6285 6387 6480 6658 6836 6929 7047 7225 7344 7428 7708 7860 8004 " y="5729">- specifies further context information for message
    </tspan>
   </text>
   <text>
    <tspan x="1163 1248 1341 1425 1544 1629 1790 1883 2060 2145 2238 2331 2492 2670 2848 3026 3187 3364 3517 3610 3695 3838 3991 4152 4330 4448 4550 4643 4821 4914 5066 5185 5346 5523 5684 5862 5955 6057 6218 6311 6455 6539 6632 6726 6844 7005 7183 7318 7479 7640 7733 7835 8013 8190 8275 8377 8554 8690 8783 " y="6127">- e.g. language, security credentials, transaction ids, ...
    </tspan>
   </text>
  </g>
 </g>
 <g style="font-family:Times;font-size:353;font-weight:700">
  <g style="stroke:none;fill:rgb(0,0,0)">
   <text>
    <tspan x="847 1042 1321 1575 1795 1880 2117 2295 2490 " y="7712">SOAP Body
    </tspan>
   </text>
  </g>
 </g>
 <g style="font-family:Times;font-size:353;font-weight:400">
  <g style="stroke:none;fill:rgb(0,0,0)">
   <text>
    <tspan x="1163 1248 1341 1425 1519 1629 1722 1857 2035 2196 2357 2450 2568 2670 2831 2966 3051 3212 3390 3568 3669 3822 3999 4101 4194 4372 4490 4575 4854 5007 " y="8110">- specifies content of message
    </tspan>
   </text>
   <text>
    <tspan x="1163 1248 1341 1425 1519 1629 1722 2001 2154 2331 2425 2518 2695 2856 2958 3136 3314 3466 3559 3754 4016 4270 4465 4558 " y="8508">- may include SOAP Fault
    </tspan>
   </text>
  </g>
 </g>
</svg>