<?xml version="1.0" encoding="UTF-8"?>
<!DOCTYPE svg PUBLIC "-//W3C//DTD SVG 1.0//EN" "http://www.w3.org/TR/2001/REC-SVG-20010904/DTD/svg10.dtd">
<svg width="125mm" height="140mm" viewBox="0 0 12500 14000">
 <g style="stroke:none;fill:rgb(230,230,255)">
  <polygon points="127,138 12283,138 12283,13830 127,13830 127,138"/>
 </g>
 <g style="stroke:rgb(0,0,0);fill:none">
  <polyline points="6205,13830 127,13830 127,138 12283,138 12283,13830 6205,13830" style="fill:none"/>
 </g>
 <g style="stroke:none;fill:rgb(255,255,255)">
  <polygon points="390,1810 12088,1810 12088,13589 390,13589 390,1810"/>
 </g>
 <g style="stroke:rgb(0,0,0);fill:none">
  <polyline points="6239,13589 390,13589 390,1810 12088,1810 12088,13589 6239,13589" style="fill:none"/>
 </g>
 <g style="stroke:none;fill:rgb(230,230,230)">
  <polygon points="903,2698 11063,2698 11063,9801 903,9801 903,2698"/>
 </g>
 <g style="stroke:rgb(0,0,0);fill:none">
  <polyline points="5983,9801 903,9801 903,2698 11063,2698 11063,9801 5983,9801" style="fill:none"/>
 </g>
 <g style="stroke:none;fill:rgb(255,255,255)">
  <polygon points="1123,3557 10745,3557 10745,9591 1123,9591 1123,3557"/>
 </g>
 <g style="stroke:rgb(0,0,0);fill:none">
  <polyline points="5934,9591 1123,9591 1123,3557 10745,3557 10745,9591 5934,9591" style="fill:none"/>
 </g>
 <g style="stroke:none;fill:rgb(230,230,255)">
  <polygon points="1316,5244 10481,5244 10481,6915 1316,6915 1316,5244"/>
 </g>
 <g style="stroke:rgb(0,0,0);fill:none">
  <polyline points="5898,6915 1316,6915 1316,5244 10481,5244 10481,6915 5898,6915" style="fill:none"/>
 </g>
 <g style="stroke:none;fill:rgb(230,230,255)">
  <polygon points="1316,7447 10426,7447 10426,9200 1316,9200 1316,7447"/>
 </g>
 <g style="stroke:rgb(0,0,0);fill:none">
  <polyline points="5871,9200 1316,9200 1316,7447 10426,7447 10426,9200 5871,9200" style="fill:none"/>
 </g>
 <g style="font-family:Times;font-size:388;font-weight:700">
  <g style="stroke:none;fill:rgb(0,0,0)">
   <text>
    <tspan x="1138 1350 1654 1934 2171 2273 2510 2704 2874 " y="3142">SOAP Part
    </tspan>
   </text>
  </g>
 </g>
 <g style="font-family:Times;font-size:353;font-weight:700">
  <g style="stroke:none;fill:rgb(0,0,0)">
   <text>
    <tspan x="450 704 882 1178 1474 1669 1872 1966 2126 2304 2423 2516 2694 2897 2982 3202 3363 3540 3659 3837 3989 4167 4268 4353 4590 4793 4971 5124 5225 5403 5606 " y="648">Communication Protocol Envelope
    </tspan>
   </text>
  </g>
 </g>
 <g style="font-family:Times;font-size:353;font-weight:400">
  <g style="stroke:none;fill:rgb(0,0,0)">
   <text>
    <tspan x="766 851 944 1028 1122 1232 1325 1486 1570 1748 1841 1926 2180 2400 2620 2815 2908 2993 3187 3509 3721 3924 4009 4187 " y="1046">- e.g. HTTP, SMTP header
    </tspan>
   </text>
   <text>
    <tspan x="766 851 944 1028 1122 1232 1325 1486 1663 1841 1934 2095 2197 2375 2510 2595 2773 2891 3069 3187 3467 3628 3721 3822 4000 4178 4271 4424 4601 4779 4957 5059 5143 5423 5584 5719 5854 6015 6193 6354 6439 6557 6718 6879 6972 " y="1444">- contains nformation about message recipient
    </tspan>
   </text>
  </g>
 </g>
 <g style="font-family:Times;font-size:353;font-weight:700">
  <g style="stroke:none;fill:rgb(0,0,0)">
   <text>
    <tspan x="1455 1650 1929 2183 2403 2488 2725 2920 3098 3258 3360 3538 3733 " y="4034">SOAP Envelope
    </tspan>
   </text>
  </g>
 </g>
 <g style="font-family:Times;font-size:353;font-weight:400">
  <g style="stroke:none;fill:rgb(0,0,0)">
   <text>
    <tspan x="1692 1777 1870 1954 2073 2208 2386 2547 2708 2801 2920 3021 3182 3318 3402 3580 3682 3859 4037 4198 4291 4384 4520 4681 4782 4875 " y="4432">-specifies global settings
    </tspan>
   </text>
   <text>
    <tspan x="1692 1777 1870 1954 2073 2158 2319 2412 2589 2674 2767 2979 3157 3318 3495 " y="4830">- e.g. Encoding
    </tspan>
   </text>
  </g>
 </g>
 <g style="font-family:Times;font-size:353;font-weight:700">
  <g style="stroke:none;fill:rgb(0,0,0)">
   <text>
    <tspan x="1482 1677 1956 2210 2430 2515 2794 2947 3125 3328 3480 " y="5728">SOAP Header
    </tspan>
   </text>
  </g>
 </g>
 <g style="font-family:Times;font-size:353;font-weight:400">
  <g style="stroke:none;fill:rgb(0,0,0)"/>
 </g>
 <g style="font-family:Times;font-size:353;font-style:italic;font-weight:400">
  <g style="stroke:none;fill:rgb(0,0,0)">
   <text>
    <tspan x="3726 3836 4014 4192 4293 4395 4573 4767 4945 5047 " y="5728">(optional)
    </tspan>
   </text>
  </g>
 </g>
 <g style="font-family:Times;font-size:353;font-weight:400">
  <g style="stroke:none;fill:rgb(0,0,0)">
   <text>
    <tspan x="1719 1804 1897 1981 2100 2185 2329 2506 2659 2820 2921 3040 3133 3294 3429 3522 3641 3819 3937 4039 4217 4369 4488 4581 4733 4911 5089 5190 5351 5529 5622 5715 5817 5995 6113 6291 6410 6680 6841 6943 7036 7214 7392 7485 7603 7781 7900 7984 8264 8416 8560 " y="6126">- specifies further context information for message
    </tspan>
   </text>
   <text>
    <tspan x="1719 1804 1897 1981 2100 2185 2346 2439 2616 2701 2794 2887 3048 3226 3404 3582 3743 3920 4073 4166 4251 4394 4547 4708 4886 5004 5106 5199 5377 5470 5622 5741 5902 6079 6240 6418 6511 6613 6774 6867 7011 7095 7188 7282 7400 7561 7739 7874 8035 8196 8289 8391 8569 8746 8831 8933 9110 9246 9339 " y="6524">- e.g. language, security credentials, transaction ids, ...
    </tspan>
   </text>
  </g>
 </g>
 <g style="font-family:Times;font-size:353;font-weight:700">
  <g style="stroke:none;fill:rgb(0,0,0)">
   <text>
    <tspan x="1429 1624 1903 2157 2377 2462 2699 2877 3072 " y="8029">SOAP Body
    </tspan>
   </text>
  </g>
 </g>
 <g style="font-family:Times;font-size:353;font-weight:400">
  <g style="stroke:none;fill:rgb(0,0,0)">
   <text>
    <tspan x="1745 1830 1923 2007 2101 2211 2304 2439 2617 2778 2939 3032 3150 3252 3413 3548 3633 3794 3972 4150 4251 4404 4581 4683 4776 4954 5072 5157 5436 5589 " y="8427">- specifies content of message
    </tspan>
   </text>
   <text>
    <tspan x="1745 1830 1923 2007 2101 2211 2304 2583 2736 2913 3007 3100 3277 3438 3540 3718 3896 4048 4141 4336 4598 4852 5047 5140 " y="8825">- may include SOAP Fault
    </tspan>
   </text>
  </g>
 </g>
 <g style="font-family:Times;font-size:353;font-weight:700">
  <g style="stroke:none;fill:rgb(0,0,0)">
   <text>
    <tspan x="609 804 1083 1337 1557 1642 1820 1913 2091 2175 2379 2463 2726 2844 2963 3141 3293 3496 3792 3945 4148 4267 4402 4495 4825 4969 5300 5537 5630 5867 6062 6239 6400 6493 6671 6874 " y="2367">SOAP 1.1 + Attachments MIME Envelope
    </tspan>
   </text>
  </g>
 </g>
 <g style="font-family:Times;font-size:353;font-weight:400">
  <g style="stroke:none;fill:rgb(0,0,0)"/>
  <g style="stroke:none;fill:rgb(230,230,230)">
   <polygon points="903,10192 11063,10192 11063,13383 903,13383 903,10192"/>
  </g>
  <g style="stroke:rgb(0,0,0);fill:none">
   <polyline points="5983,13383 903,13383 903,10192 11063,10192 11063,13383 5983,13383" style="fill:none"/>
  </g>
 </g>
 <g style="font-family:Times;font-size:388;font-weight:700">
  <g style="stroke:none;fill:rgb(0,0,0)">
   <text>
    <tspan x="1111 1390 1517 1644 1839 2017 2229 2559 2728 2948 3075 3168 3414 3609 3778 " y="10709">Attachment Part
    </tspan>
   </text>
  </g>
 </g>
 <g style="font-family:Times;font-size:388;font-weight:400">
  <g style="stroke:none;fill:rgb(0,0,0)">
   <text>
    <tspan x="1306 1433 1526 1704 1873 2051 2246 2339 2517 2618 2728 2906 3076 3270 3575 3744 3939 4049 4142 4337 4515 4642 4752 4845 5040 5218 5370 5463 5658 5836 6005 6200 6378 6505 6632 6784 6911 7013 7165 7360 7529 7707 7808 7944 8139 8249 8443 " y="11158">- each attachment part has header(s) specifying
    </tspan>
   </text>
   <text>
    <tspan x="1535 1628 1730 1823 1924 2094 2289 2483 2593 2763 2957 3067 3161 3271 3465 3660 3838 3931 4109 4304 4498 4591 4786 4981 5091 5260 5455 5565 5675 5845 5955 6065 6259 6353 6530 6725 6920 7030 7199 7394 7504 7597 7707 7902 8004 8300 8401 8571 8766 8960 9070 9240 9434 9544 9646 9756 9951 10120 " y="11590">context type and potentially content id &amp; content location
    </tspan>
   </text>
  </g>
  <g style="stroke:none;fill:rgb(255,255,255)">
   <polygon points="1123,11935 10745,11935 10745,13028 1123,13028 1123,11935"/>
  </g>
  <g style="stroke:rgb(0,0,0);fill:none">
   <polyline points="5934,13028 1123,13028 1123,11935 10745,11935 10745,13028 5934,13028" style="fill:none"/>
  </g>
 </g>
 <g style="font-family:Times;font-size:353;font-weight:700">
  <g style="stroke:none;fill:rgb(0,0,0)">
   <text>
    <tspan x="1349 1620 1781 1976 2136 2289 2467 2568 2661 2839 2958 3076 3254 3406 3610 3906 4058 4262 " y="12316">General attachment
    </tspan>
   </text>
  </g>
 </g>
 <g style="font-family:Times;font-size:353;font-weight:400">
  <g style="stroke:none;fill:rgb(0,0,0)">
   <text>
    <tspan x="1507 1592 1685 1795 1888 2066 2227 2379 2557 2650 2828 3006 3099 3192 3370 3531 3615 " y="12714">- need not be XML
    </tspan>
   </text>
  </g>
 </g>
</svg>