<?xml version="1.0" encoding="UTF-8" standalone="no"?>
<!DOCTYPE svg PUBLIC "-//W3C//DTD SVG 20010904//EN"
"http://www.w3.org/TR/2001/REC-SVG-20010904/DTD/svg10.dtd">
<!-- Created with Sodipodi ("http://www.sodipodi.com/") -->
<svg
   id="svg587"
   sodipodi:version="0.32"
   width="9.000000cm"
   height="5cm"
   sodipodi:docbase="/Users/dawidl/Projects/solms/solmsRoot/resources/knowledge/solms/resources/businessCards"
   sodipodi:docname="alexanderHartner-itCardFront.svg"
   xmlns="http://www.w3.org/2000/svg"
   xmlns:sodipodi="http://sodipodi.sourceforge.net/DTD/sodipodi-0.dtd"
   xmlns:xlink="http://www.w3.org/1999/xlink"
   xmlns:inkscape="http://www.inkscape.org/namespaces/inkscape"
   inkscape:version="0.39"
   xmlns:rdf="http://www.w3.org/1999/02/22-rdf-syntax-ns#"
   xmlns:cc="http://web.resource.org/cc/"
   xmlns:dc="http://purl.org/dc/elements/1.1/"
   inkscape:export-filename="/Users/dawidl/Desktop/template-bsCardFront.png"
   inkscape:export-xdpi="600.00000"
   inkscape:export-ydpi="600.00000">
  <defs
     id="defs589">
    <linearGradient
       id="linearGradient619">
      <stop
         style="stop-color:#000;stop-opacity:1;"
         offset="0"
         id="stop620" />
      <stop
         style="stop-color:#fff;stop-opacity:1;"
         offset="1"
         id="stop621" />
    </linearGradient>
    <linearGradient
       xlink:href="#linearGradient619"
       id="linearGradient622"
       x1="1.327273"
       y1="4.687500e-2"
       x2="1.618182"
       y2="0.312500"
       spreadMethod="reflect" />
    <radialGradient
       xlink:href="#linearGradient619"
       id="radialGradient623" />
  </defs>
  <sodipodi:namedview
     id="base"
     gridtolerance="1.000000px"
     inkscape:zoom="3.4616336"
     inkscape:cx="127.77829"
     inkscape:cy="70.673938"
     inkscape:window-width="1436"
     inkscape:window-height="856"
     inkscape:window-x="4"
     inkscape:window-y="22" />
  <path
     style="font-size:12.000;fill:#ebe5d5;fill-rule:evenodd;fill-opacity:1.0000;"
     d="M 157.8584 167.9036 L 157.8584 10.54865 L 0.279015 10.54865 L 0.279015 167.9036 L 157.8584 167.9036 z "
     id="path586" />
  <path
     style="font-size:12.000;fill:#8bb1ab;fill-rule:evenodd;"
     d="M 172.1343 52.18619 L 172.1343 51.71094 L 318.4305 51.71094 L 318.4305 52.18619 L 172.1343 52.18619 z "
     id="path648" />
  <path
     style="font-size:12.000000;fill:#81b1ab;fill-opacity:1.0000000;fill-rule:evenodd;"
     d="M 0.28389526,10.485160 L 0.28389526,0.22095526 L 319.16671,0.22095526 L 319.16671,10.485160 L 0.28389526,10.485160 z "
     id="path738" />
  <g
     id="g1305">
    <path
       style="font-size:12.000000;fill:none;fill-rule:evenodd;stroke:#bababf;stroke-width:0.49604201;stroke-opacity:0.37799999;"
       d="M 2.3274890,19.226870 L 161.06900,19.226870"
       id="path623" />
    <path
       style="font-size:12.000000;fill:none;fill-rule:evenodd;stroke:#bababf;stroke-width:0.49604201;stroke-opacity:0.37799999;"
       d="M 2.3274890,26.581960 L 161.06900,26.581960"
       id="path625" />
    <path
       style="font-size:12.000000;fill:none;fill-rule:evenodd;stroke:#bababf;stroke-width:0.49604201;stroke-opacity:0.37799999;"
       d="M 2.3274890,33.937090 L 161.06900,33.937090"
       id="path627" />
    <path
       style="font-size:12.000000;fill:none;fill-rule:evenodd;stroke:#bababf;stroke-width:0.49604201;stroke-opacity:0.37799999;"
       d="M 2.3274890,41.292220 L 161.06900,41.292220"
       id="path628" />
    <path
       style="font-size:12.000000;fill:none;fill-rule:evenodd;stroke:#bababf;stroke-width:0.49604201;stroke-opacity:0.37799999;"
       d="M 2.3274890,48.647330 L 161.06900,48.647330"
       id="path629" />
    <path
       style="font-size:12.000000;fill:none;fill-rule:evenodd;stroke:#bababf;stroke-width:0.49604201;stroke-opacity:0.37799999;"
       d="M 2.3274890,56.002440 L 161.06900,56.002440"
       id="path630" />
    <path
       style="font-size:12.000000;fill:none;fill-rule:evenodd;stroke:#bababf;stroke-width:0.49604201;stroke-opacity:0.37799999;"
       d="M 2.3274890,63.357550 L 161.06900,63.357550"
       id="path631" />
    <path
       style="font-size:12.000000;fill:none;fill-rule:evenodd;stroke:#bababf;stroke-width:0.49604201;stroke-opacity:0.37799999;"
       d="M 2.3274890,70.712670 L 161.06900,70.712670"
       id="path632" />
    <path
       style="font-size:12.000000;fill:none;fill-rule:evenodd;stroke:#bababf;stroke-width:0.49604201;stroke-opacity:0.37799999;"
       d="M 2.3274890,78.067780 L 161.06900,78.067780"
       id="path633" />
    <path
       style="font-size:12.000000;fill:none;fill-rule:evenodd;stroke:#bababf;stroke-width:0.49604201;stroke-opacity:0.37799999;"
       d="M 2.3274890,85.422440 L 161.06900,85.422440"
       id="path634" />
    <path
       style="font-size:12.000000;fill:none;fill-rule:evenodd;stroke:#bababf;stroke-width:0.49604201;stroke-opacity:0.37799999;"
       d="M 2.3274890,92.777560 L 161.06900,92.777560"
       id="path635" />
    <path
       style="font-size:12.000000;fill:none;fill-rule:evenodd;stroke:#bababf;stroke-width:0.49604201;stroke-opacity:0.37799999;"
       d="M 2.3274890,100.13310 L 161.06900,100.13310"
       id="path636" />
    <path
       style="font-size:12.000000;fill:none;fill-rule:evenodd;stroke:#bababf;stroke-width:0.49604201;stroke-opacity:0.37799999;"
       d="M 2.3274890,107.48820 L 161.06900,107.48820"
       id="path637" />
    <path
       style="font-size:12.000000;fill:none;fill-rule:evenodd;stroke:#bababf;stroke-width:0.49604201;stroke-opacity:0.37799999;"
       d="M 2.3274890,114.84330 L 161.06900,114.84330"
       id="path638" />
    <path
       style="font-size:12.000000;fill:none;fill-rule:evenodd;stroke:#bababf;stroke-width:0.49604201;stroke-opacity:0.37799999;"
       d="M 2.3274890,122.19850 L 161.06900,122.19850"
       id="path639" />
    <path
       style="font-size:12.000000;fill:none;fill-rule:evenodd;stroke:#bababf;stroke-width:0.49604201;stroke-opacity:0.37799999;"
       d="M 2.3274890,129.55360 L 161.06900,129.55360"
       id="path640" />
    <path
       style="font-size:12.000000;fill:none;fill-rule:evenodd;stroke:#bababf;stroke-width:0.49604201;stroke-opacity:0.37799999;"
       d="M 2.3274890,136.90870 L 161.06900,136.90870"
       id="path641" />
    <path
       style="font-size:12.000000;fill:none;fill-rule:evenodd;stroke:#bababf;stroke-width:0.49604201;stroke-opacity:0.37799999;"
       d="M 2.3274890,144.26380 L 161.06900,144.26380"
       id="path642" />
    <path
       style="font-size:12.000000;fill:none;fill-rule:evenodd;stroke:#bababf;stroke-width:0.49604201;stroke-opacity:0.37799999;"
       d="M 2.3274890,151.61890 L 161.06900,151.61890"
       id="path643" />
    <path
       style="font-size:12.000000;fill:none;fill-rule:evenodd;stroke:#bababf;stroke-width:0.49604201;stroke-opacity:0.37799999;"
       d="M 2.3274890,158.97400 L 161.06900,158.97400"
       id="path644" />
    <path
       style="font-size:12.000000;fill:none;fill-rule:evenodd;stroke:#bababf;stroke-width:0.49604201;stroke-opacity:0.37799999;"
       d="M 10.792470,166.72020 L 10.792470,12.788390"
       id="path660" />
    <path
       style="font-size:12.000000;fill:none;fill-rule:evenodd;stroke:#bababf;stroke-width:0.49604201;stroke-opacity:0.37799999;"
       d="M 21.085400,166.72020 L 21.085400,12.788390"
       id="path661" />
    <path
       style="font-size:12.000000;fill:none;fill-rule:evenodd;stroke:#bababf;stroke-width:0.49604201;stroke-opacity:0.37799999;"
       d="M 31.378480,166.72020 L 31.378480,12.788390"
       id="path662" />
    <path
       style="font-size:12.000000;fill:none;fill-rule:evenodd;stroke:#bababf;stroke-width:0.49604201;stroke-opacity:0.37799999;"
       d="M 41.671340,166.72020 L 41.671340,12.788390"
       id="path663" />
    <path
       style="font-size:12.000000;fill:none;fill-rule:evenodd;stroke:#bababf;stroke-width:0.49604201;stroke-opacity:0.37799999;"
       d="M 51.964320,166.72020 L 51.964320,12.788390"
       id="path664" />
    <path
       style="font-size:12.000000;fill:none;fill-rule:evenodd;stroke:#bababf;stroke-width:0.49604201;stroke-opacity:0.37799999;"
       d="M 62.257240,166.72020 L 62.257240,12.788390"
       id="path665" />
    <path
       style="font-size:12.000000;fill:none;fill-rule:evenodd;stroke:#bababf;stroke-width:0.49604201;stroke-opacity:0.37799999;"
       d="M 72.550320,166.72020 L 72.550320,12.788390"
       id="path914" />
    <path
       style="font-size:12.000000;fill:none;fill-rule:evenodd;stroke:#bababf;stroke-width:0.49604201;stroke-opacity:0.37799999;"
       d="M 82.843240,166.72020 L 82.843240,12.788390"
       id="path915" />
    <path
       style="font-size:12.000000;fill:none;fill-rule:evenodd;stroke:#bababf;stroke-width:0.49604201;stroke-opacity:0.37799999;"
       d="M 93.136180,166.72020 L 93.136180,12.788390"
       id="path916" />
    <path
       style="font-size:12.000000;fill:none;fill-rule:evenodd;stroke:#bababf;stroke-width:0.49604201;stroke-opacity:0.37799999;"
       d="M 103.42910,166.72020 L 103.42910,12.788390"
       id="path669" />
    <path
       style="font-size:12.000000;fill:none;fill-rule:evenodd;stroke:#bababf;stroke-width:0.49604201;stroke-opacity:0.37799999;"
       d="M 113.72190,166.72020 L 113.72190,12.788390"
       id="path670" />
    <path
       style="font-size:12.000000;fill:none;fill-rule:evenodd;stroke:#bababf;stroke-width:0.49604201;stroke-opacity:0.37799999;"
       d="M 124.01450,166.72020 L 124.01450,12.788390"
       id="path671" />
    <path
       style="font-size:12.000000;fill:none;fill-rule:evenodd;stroke:#bababf;stroke-width:0.49604201;stroke-opacity:0.37799999;"
       d="M 134.30650,166.72020 L 134.30650,12.788390"
       id="path672" />
    <path
       style="font-size:12.000000;fill:none;fill-rule:evenodd;stroke:#bababf;stroke-width:0.49604201;stroke-opacity:0.37799999;"
       d="M 144.59950,166.72020 L 144.59950,12.788390"
       id="path673" />
    <path
       style="font-size:12.000000;fill:none;fill-rule:evenodd;stroke:#bababf;stroke-width:0.49604201;stroke-opacity:0.37799999;"
       d="M 154.89250,166.72020 L 154.89250,12.788390"
       id="path674" />
  </g>
  <path
     style="font-size:12.000000;fill:#81b1ab;fill-opacity:1.0000000;fill-rule:evenodd;"
     d="M 0.28389526,177.42490 L 0.28389526,167.66990 L 319.16671,167.66990 L 319.16671,177.42490 L 0.28389526,177.42490 z "
     id="path585" />
  <text
     style="font-size:11.000000;font-style:normal;font-variant:normal;font-weight:normal;font-stretch:normal;fill:#002a1e;fill-opacity:1.0000000;stroke:none;stroke-width:1.0000000pt;stroke-linecap:butt;stroke-linejoin:miter;stroke-opacity:1.0000000;font-family:Helvetica;text-anchor:middle;writing-mode:lr;"
     x="78.970810"
     y="137.75783"
     id="text591"
     sodipodi:linespacing="100%"><tspan
       x="78.970810"
       y="137.75783"
       sodipodi:role="line"
       id="tspan1856">Open, Sustainable</tspan><tspan
       x="78.970810"
       y="148.75783"
       sodipodi:role="line"
       id="tspan1858">IT Solutions.</tspan></text>
  <text
     style="fill:#789793;stroke:none;font-family:Helvetica;font-style:normal;font-weight:normal;font-size:8.000000;fill-opacity:1.0000;stroke-opacity:1;stroke-width:1pt;stroke-linejoin:miter;stroke-linecap:butt;text-anchor:start;writing-mode:lr;"
     x="174.124649"
     y="41.9524269"
     id="text628"
     sodipodi:linespacing="100%"><tspan
       x="174.12465"
       y="41.952427"
       sodipodi:role="line"
       id="tspan633"
       style="fill:#789793;fill-opacity:1.0000;">Software Engineer</tspan></text>
  <text
     style="fill:black;stroke:none;font-family:Song;font-style:normal;font-weight:normal;font-size:8.5000000;fill-opacity:1;stroke-opacity:1;stroke-width:1pt;stroke-linejoin:miter;stroke-linecap:butt;text-anchor:start;writing-mode:lr;font-stretch:normal;font-variant:normal;"
     x="216.076599"
     y="68.1530075"
     id="text659"
     sodipodi:linespacing="100%"><tspan
       x="216.07660"
       y="68.153008"
       sodipodi:role="line"
       id="tspan640">alex@solms.co.za</tspan></text>
  <text
     style="fill:black;stroke:none;font-family:Song;font-style:normal;font-weight:normal;font-size:8.5000000;fill-opacity:1;stroke-opacity:1;stroke-width:1pt;stroke-linejoin:miter;stroke-linecap:butt;text-anchor:start;writing-mode:lr;font-stretch:normal;font-variant:normal;"
     x="216.076263"
     y="87.6750717"
     id="text670"
     sodipodi:linespacing="100%"
     transform="translate(0,1.162491)"><tspan
       x="216.07626"
       y="87.675072"
       sodipodi:role="line"
       id="tspan642">+27 (11) 646-6459</tspan></text>
  <text
     style="fill:black;stroke:none;font-family:Song;font-style:normal;font-weight:normal;font-size:8.5000000;fill-opacity:1;stroke-opacity:1;stroke-width:1pt;stroke-linejoin:miter;stroke-linecap:butt;text-anchor:start;writing-mode:lr;font-stretch:normal;font-variant:normal;"
     x="216.076172"
     y="98.6062851"
     id="text673"
     sodipodi:linespacing="100%"
     transform="translate(0,0.581238)"><tspan
       x="216.07617"
       y="98.606285"
       sodipodi:role="line"
       id="tspan644">+27 (11) 646-5868</tspan></text>
  <text
     style="fill:black;stroke:none;font-family:Song;font-style:normal;font-weight:normal;font-size:8.5000000;fill-opacity:1;stroke-opacity:1;stroke-width:1pt;stroke-linejoin:miter;stroke-linecap:butt;text-anchor:start;writing-mode:lr;font-stretch:normal;font-variant:normal;"
     x="216.076157"
     y="109.537506"
     id="text676"
     sodipodi:linespacing="100%"><tspan
       x="216.07616"
       y="109.53751"
       sodipodi:role="line"
       id="tspan646">+27 (83) 305-8462</tspan></text>
  <text
     style="fill:#a9a9a9;stroke:none;font-family:Arial Black;font-style:normal;font-weight:normal;font-size:7;fill-opacity:1.0000;stroke-opacity:1;stroke-width:1pt;stroke-linejoin:miter;stroke-linecap:butt;text-anchor:start;writing-mode:lr;"
     x="180.628159"
     y="87.0310211"
     id="text679"
     sodipodi:linespacing="100%"
     transform="translate(0,1.180389)"><tspan
       x="180.62816"
       y="87.031021"
       sodipodi:role="line"
       id="tspan632">phone</tspan></text>
  <text
     style="fill:#a9a9a9;stroke:none;font-family:Arial Black;font-style:normal;font-weight:normal;font-size:7;fill-opacity:1.0000;stroke-opacity:1;stroke-width:1pt;stroke-linejoin:miter;stroke-linecap:butt;text-anchor:start;writing-mode:lr;"
     x="180.627975"
     y="98.6660614"
     id="text686"
     sodipodi:linespacing="100%"
     transform="translate(0,0.590210)"><tspan
       x="180.62798"
       y="98.666061"
       sodipodi:role="line"
       id="tspan636">fax</tspan></text>
  <text
     style="fill:#a9a9a9;stroke:none;font-family:Arial Black;font-style:normal;font-weight:normal;font-size:7;fill-opacity:1.0000;stroke-opacity:1;stroke-width:1pt;stroke-linejoin:miter;stroke-linecap:butt;text-anchor:start;writing-mode:lr;"
     x="180.627960"
     y="109.566246"
     id="text689"
     sodipodi:linespacing="100%"><tspan
       x="180.62796"
       y="109.56625"
       sodipodi:role="line"
       id="tspan634">mobile</tspan></text>
  <text
     style="fill:#a9a9a9;stroke:none;font-family:Arial Black;font-style:normal;font-weight:normal;font-size:7;fill-opacity:1.0000;stroke-opacity:1;stroke-width:1pt;stroke-linejoin:miter;stroke-linecap:butt;text-anchor:start;writing-mode:lr;"
     x="180.628250"
     y="68.1554337"
     id="text639"
     sodipodi:linespacing="100%"><tspan
       x="180.62825"
       y="68.155434"
       sodipodi:role="line"
       id="tspan630">mail</tspan></text>
  <text
     style="font-size:8.5000000;font-style:normal;font-variant:normal;font-weight:normal;font-stretch:normal;fill:#000000;fill-opacity:1.0000000;stroke:none;stroke-width:1.0000000pt;stroke-linecap:butt;stroke-linejoin:miter;stroke-opacity:1.0000000;font-family:Song;text-anchor:start;writing-mode:lr;"
     x="214.99428"
     y="134.43616"
     id="text651"
     sodipodi:linespacing="100%"><tspan
       x="214.99428"
       y="134.43616"
       sodipodi:role="line"
       id="tspan711">113 Barry Hertzog Ave,</tspan><tspan
       x="214.99428"
       y="142.93616"
       sodipodi:role="line"
       id="tspan713">Emmarentia, </tspan><tspan
       sodipodi:role="line"
       id="tspan1347"
       x="214.99428"
       y="151.43616">Johannesburg,</tspan><tspan
       x="214.99428"
       y="159.93616"
       sodipodi:role="line"
       id="tspan715">South Africa</tspan></text>
  <text
     style="fill:black;stroke:none;font-family:Song;font-style:normal;font-weight:normal;font-size:8.5000000;fill-opacity:1;stroke-opacity:1;stroke-width:1pt;stroke-linejoin:miter;stroke-linecap:butt;text-anchor:start;writing-mode:lr;font-stretch:normal;font-variant:normal;"
     x="216.075821"
     y="77.9184723"
     id="text656"
     sodipodi:linespacing="100%"
     transform="translate(0,0.584503)"><tspan
       x="216.07582"
       y="77.918472"
       sodipodi:role="line"
       id="tspan653">www.solms.co.za</tspan></text>
  <text
     style="fill:#a9a9a9;stroke:none;font-family:Arial Black;font-style:normal;font-weight:normal;font-size:7;fill-opacity:1.0000;stroke-opacity:1;stroke-width:1pt;stroke-linejoin:miter;stroke-linecap:butt;text-anchor:start;writing-mode:lr;"
     x="180.627625"
     y="77.9472122"
     id="text660"
     sodipodi:linespacing="100%"
     transform="translate(0,0.560913)"><tspan
       x="180.62762"
       y="77.947212"
       sodipodi:role="line"
       id="tspan656">web</tspan></text>
  <text
     style="font-size:7.0000000;font-style:normal;font-weight:normal;fill:#a9a9a9;fill-opacity:1.0000000;stroke:none;stroke-width:1.0000000pt;stroke-linecap:butt;stroke-linejoin:miter;stroke-opacity:1.0000000;font-family:Arial Black;text-anchor:start;writing-mode:lr;"
     x="180.62776"
     y="133.31068"
     id="text681"
     sodipodi:linespacing="100%"><tspan
       x="180.62776"
       y="133.31068"
       sodipodi:role="line"
       id="tspan682">office</tspan></text>
  <path
     style="font-size:12.000;fill:#8bb1ab;fill-rule:evenodd;"
     d="M 172.1343 121.1367 L 172.1343 120.6615 L 318.4305 120.6615 L 318.4305 121.1367 L 172.1343 121.1367 z "
     id="path684" />
  <g
     id="g1361">
    <text
       style="font-size:6.0000000;font-style:normal;font-weight:normal;fill:#007261;fill-opacity:1.0000000;stroke:none;stroke-width:1.0000000pt;stroke-linecap:butt;stroke-linejoin:miter;stroke-opacity:1.0000000;font-family:Times;text-anchor:start;writing-mode:lr;"
       x="18.747772"
       y="107.23129"
       id="text653"
       sodipodi:linespacing="100%"><tspan
         x="18.747772"
         y="107.23129"
         sodipodi:role="line"
         id="tspan678">TRAINING, CONSULTING &amp; DEVELOPMENT</tspan></text>
    <g
       id="g1283">
      <path
         transform="matrix(0.544611,0.000000,0.000000,0.547679,-6.540441,6.609924)"
         style="font-size:150.00000;font-weight:normal;fill:#000000;fill-opacity:0.20000000;stroke:#000000;stroke-width:3.9465001;stroke-opacity:0.10999996;font-family:Times;"
         d="M 104.27297,61.120026 C 109.69283,61.120127 115.25923,61.925790 120.97219,63.537018 C 126.68500,65.148443 129.88324,65.954106 130.56691,65.954010 C 131.98285,65.954106 133.32562,65.563482 134.59523,64.782135 C 135.86468,64.000983 136.74358,62.780281 137.23195,61.120026 L 140.38137,61.120026 L 141.77297,94.811432 L 138.33059,94.811432 C 136.32854,88.122053 133.71624,82.726550 130.49367,78.624908 C 124.34125,70.910156 116.06489,67.052738 105.66457,67.052643 C 95.166477,67.052738 86.572735,71.203124 79.883320,79.503815 C 73.242670,87.804670 69.922361,99.230440 69.922382,113.78116 C 69.922361,127.16010 73.413569,137.85345 80.396015,145.86124 C 87.427226,153.82023 96.313936,157.79972 107.05617,157.79971 C 114.81978,157.79972 121.97309,155.94425 128.51613,152.23331 C 132.27581,150.13371 136.40179,146.95988 140.89406,142.71182 L 143.67727,145.49503 C 140.35686,149.69426 136.23089,153.38078 131.29934,156.55460 C 122.90082,161.92569 113.79439,164.61123 103.98000,164.61124 C 87.866679,164.61123 75.073723,159.45987 65.601093,149.15714 C 56.860851,139.63567 52.490738,127.74604 52.490742,113.48819 C 52.490738,98.888644 57.104991,86.632796 66.333515,76.720612 C 76.050285,66.320317 88.696756,61.120127 104.27297,61.120026 M 103.76027,61.120026 C 103.76022,61.120127 103.76022,61.120127 103.76027,61.120026"
         id="text581" />
      <path
         transform="matrix(0.544611,0.000000,0.000000,0.560612,-6.540441,6.609924)"
         style="font-size:150.00000;font-weight:normal;fill:#000000;fill-opacity:0.20000000;stroke:#000000;stroke-width:3.9007001;stroke-opacity:0.10999996;font-family:Times;"
         d="M 193.30965,147.38826 C 193.30962,149.82968 193.89555,151.44100 195.06746,152.22224 C 196.28813,153.00350 198.77836,153.39412 202.53816,153.39412 C 214.25686,153.39412 223.90041,151.07479 231.46883,146.43611 C 243.08984,139.30722 248.90038,127.12462 248.90047,109.88826 C 248.90038,94.507465 244.11523,82.935211 234.54500,75.171463 C 226.34181,68.530928 215.47756,65.210619 201.95222,65.210526 C 198.58305,65.210619 196.28813,65.576830 195.06746,66.309158 C 193.89555,67.041672 193.30962,68.652999 193.30965,71.143143 L 193.30965,147.38826 M 164.89168,156.25056 C 170.36042,155.66463 173.92487,154.68807 175.58504,153.32088 C 177.24518,151.90487 178.07526,148.36483 178.07527,142.70076 L 178.07527,75.977127 C 178.07526,70.508466 177.26959,66.992844 175.65828,65.430252 C 174.04694,63.867847 170.45808,62.891286 164.89168,62.500565 L 164.89168,59.717361 L 205.32137,59.717361 C 218.94436,59.717461 230.46778,61.963552 239.89168,66.455643 C 256.88377,74.512368 265.37986,88.916650 265.37996,109.66853 C 265.37986,117.13928 263.84177,124.24376 260.76570,130.98201 C 257.73826,137.72031 253.14842,143.40878 246.99617,148.04744 C 243.08984,150.97714 239.03711,153.19881 234.83797,154.71248 C 227.17189,157.54451 217.74807,158.96053 206.56648,158.96053 L 164.89168,158.96053 L 164.89168,156.25056"
         id="text584" />
      <path
         transform="matrix(0.544611,0.000000,0.000000,0.547679,18.90578,36.48164)"
         style="font-size:150.00000;font-weight:normal;fill:#d0d0c2;font-family:Times;"
         d="M 56.336482,5.3718567 C 61.756343,5.3719577 67.322744,6.1776209 73.035701,7.7888489 C 78.748513,9.4002740 81.946752,10.205937 82.630427,10.205841 C 84.046360,10.205937 85.389132,9.8153126 86.658748,9.0339661 C 87.928192,8.2528142 88.807097,7.0321123 89.295466,5.3718567 L 92.444880,5.3718567 L 93.836482,39.063263 L 90.394099,39.063263 C 88.392058,32.373884 85.779756,26.978381 82.557185,22.876740 C 76.404766,15.161987 68.128407,11.304569 57.728083,11.304474 C 47.229990,11.304569 38.636249,15.454955 31.946833,23.755646 C 25.306184,32.056501 21.985875,43.482271 21.985896,58.032990 C 21.985875,71.411931 25.477082,82.105279 32.459529,90.113068 C 39.490740,98.072060 48.377450,102.05155 59.119685,102.05154 C 66.883291,102.05155 74.036604,100.19608 80.579646,96.485138 C 84.339328,94.385541 88.465301,91.211716 92.957576,86.963654 L 95.740779,89.746857 C 92.420375,93.946088 88.294402,97.632608 83.362849,100.80643 C 74.964337,106.17752 65.857901,108.86307 56.043513,108.86307 C 39.930193,108.86307 27.137237,103.71170 17.664607,93.408966 C 8.9243644,83.887504 4.5542516,71.997868 4.5542554,57.740021 C 4.5542516,43.140475 9.1685048,30.884627 18.397029,20.972443 C 28.113798,10.572148 40.760270,5.3719577 56.336482,5.3718567 M 55.823787,5.3718567 C 55.823732,5.3719577 55.823732,5.3719577 55.823787,5.3718567"
         id="text592" />
      <path
         transform="matrix(0.544611,0.000000,0.000000,0.560612,18.90578,36.48164)"
         style="font-size:150.00000;font-weight:normal;fill:#d0d0c2;font-family:Times;"
         d="M 145.37316,92.925926 C 145.37313,95.367342 145.95907,96.978668 147.13097,97.759911 C 148.35164,98.541167 150.84188,98.931791 154.60168,98.931786 C 166.32038,98.931791 175.96392,96.612458 183.53234,91.973778 C 195.15335,84.844891 200.96390,72.662286 200.96398,55.425926 C 200.96390,40.045131 196.17874,28.472877 186.60851,20.709129 C 178.40532,14.068595 167.54108,10.748286 154.01574,10.748192 C 150.64656,10.748286 148.35164,11.114496 147.13097,11.846825 C 145.95907,12.579338 145.37313,14.190665 145.37316,16.680809 L 145.37316,92.925926 M 116.95519,101.78823 C 122.42393,101.20230 125.98838,100.22574 127.64855,98.858543 C 129.30869,97.442535 130.13877,93.902499 130.13879,88.238426 L 130.13879,21.514793 C 130.13877,16.046132 129.33311,12.530510 127.72179,10.967918 C 126.11045,9.4055135 122.52159,8.4289520 116.95519,8.0382309 L 116.95519,5.2550278 L 157.38488,5.2550278 C 171.00787,5.2551270 182.53130,7.5012185 191.95519,11.993309 C 208.94729,20.050034 217.44337,34.454317 217.44347,55.206200 C 217.44337,62.676945 215.90529,69.781430 212.82922,76.519676 C 209.80178,83.257979 205.21194,88.946450 199.05968,93.585106 C 195.15335,96.514801 191.10062,98.736479 186.90148,100.25014 C 179.23540,103.08218 169.81158,104.49819 158.63000,104.49819 L 116.95519,104.49819 L 116.95519,101.78823"
         id="text606" />
      <path
         transform="matrix(1.111827,0.000000,0.000000,1.111827,-6.540441,6.609924)"
         style="font-size:150.00000;font-weight:normal;fill:none;stroke:#000000;stroke-width:3.0234759;stroke-linecap:round;stroke-linejoin:round;stroke-opacity:0.20000000;font-family:Times;"
         d="M 54.171480,30.374520 L 98.485000,30.374520 L 98.906280,42.991520 L 97.029600,42.991520 C 96.110410,39.027540 94.935810,36.453360 93.505950,35.268990 C 92.101580,34.060520 89.126920,33.456270 84.581960,33.456270 L 80.215750,33.456270 L 80.215750,71.452080 C 80.215750,74.328380 80.688140,76.117020 81.632900,76.817920 C 82.577590,77.494720 84.645790,77.941830 87.837500,78.159420 L 87.837500,79.500820 L 64.972230,79.500820 L 64.972230,78.159420 C 68.291520,77.917700 70.359810,77.398030 71.176840,76.600420 C 71.993930,75.802780 72.402460,73.796620 72.402460,70.581980 L 72.402460,33.456270 L 68.036250,33.456270 C 63.695530,33.456270 60.733660,34.048420 59.150540,35.232800 C 57.592970,36.417120 56.418440,39.003390 55.626880,42.991520 L 53.711930,42.991520 L 54.171480,30.374520 z "
         id="path655" />
      <path
         transform="matrix(1.111827,0.000000,0.000000,1.111827,-6.540441,6.609924)"
         style="font-size:150.00000;font-weight:normal;fill:#cac3ab;fill-opacity:1.0000000;stroke:#d7d2bb;stroke-width:1.3077151;stroke-linejoin:bevel;stroke-opacity:1.0000000;font-family:Times;"
         d="M 53.889340,30.092460 L 98.202950,30.092460 L 98.624190,42.709450 L 96.747490,42.709450 C 95.828260,38.745520 94.653700,36.171300 93.223860,34.986980 C 91.819460,33.778510 88.844810,33.174250 84.299880,33.174250 L 79.933610,33.174250 L 79.933610,71.170070 C 79.933610,74.046300 80.406010,75.834950 81.350760,76.535910 C 82.295490,77.212640 84.363650,77.659760 87.555420,77.877410 L 87.555420,79.218810 L 64.690070,79.218810 L 64.690070,77.877410 C 68.009450,77.635660 70.077650,77.115990 70.894770,76.318350 C 71.711800,75.520710 72.120330,73.514540 72.120330,70.299910 L 72.120330,33.174250 L 67.754080,33.174250 C 63.413370,33.174250 60.451490,33.766410 58.868400,34.950730 C 57.310870,36.135050 56.136370,38.721320 55.344780,42.709450 L 53.429780,42.709450 L 53.889340,30.092460 z "
         id="path612" />
      <path
         transform="matrix(0.780596,0.000000,0.000000,0.888351,-6.540441,6.609924)"
         style="font-size:56.000000;font-weight:normal;fill-opacity:0.25240001;stroke:#000000;stroke-width:3.1059999;stroke-dashoffset:0.0000000;stroke-opacity:0.29999998;font-family:Times New Roman;"
         d="M 178.89769,60.708008 L 178.89769,69.239258 L 177.99534,69.239258 C 177.30262,66.559590 176.40939,64.736675 175.31565,63.770508 C 174.24012,62.804386 172.86382,62.321313 171.18675,62.321289 C 169.91070,62.321313 168.88075,62.658552 168.09690,63.333008 C 167.31304,64.007509 166.92112,64.754905 166.92112,65.575195 C 166.92112,66.596049 167.21278,67.471048 167.79612,68.200195 C 168.36122,68.947609 169.50966,69.740577 171.24144,70.579102 L 175.23362,72.520508 C 178.93413,74.325207 180.78438,76.704111 180.78440,79.657227 C 180.78438,81.935877 179.91850,83.777021 178.18675,85.180664 C 176.47319,86.566081 174.55002,87.258788 172.41722,87.258789 C 170.88596,87.258788 169.13596,86.985351 167.16722,86.438477 C 166.56565,86.256185 166.07346,86.165039 165.69065,86.165039 C 165.27138,86.165039 164.94325,86.402018 164.70628,86.875977 L 163.80394,86.875977 L 163.80394,77.934570 L 164.70628,77.934570 C 165.21669,80.486660 166.19195,82.409835 167.63206,83.704102 C 169.07216,84.998374 170.68544,85.645509 172.47190,85.645508 C 173.72970,85.645509 174.75054,85.280926 175.53440,84.551758 C 176.33647,83.804365 176.73751,82.911136 176.73753,81.872070 C 176.73751,80.614264 176.29090,79.556973 175.39769,78.700195 C 174.52267,77.843433 172.76356,76.758799 170.12034,75.446289 C 167.47711,74.133801 165.74534,72.948907 164.92503,71.891602 C 164.10471,70.852555 163.69456,69.540056 163.69456,67.954102 C 163.69456,65.894226 164.39638,64.171572 165.80003,62.786133 C 167.22190,61.400741 169.05393,60.708034 171.29612,60.708008 C 172.28049,60.708034 173.47450,60.917669 174.87815,61.336914 C 175.80783,61.610376 176.42762,61.747095 176.73753,61.747070 C 177.02918,61.747095 177.25704,61.683293 177.42112,61.555664 C 177.58517,61.428085 177.77658,61.145533 177.99534,60.708008 L 178.89769,60.708008 M 126.61644,66.040039 C 128.43934,64.217145 129.51486,63.168969 129.84300,62.895508 C 130.66330,62.202824 131.54741,61.665064 132.49534,61.282227 C 133.44324,60.899440 134.38204,60.708034 135.31175,60.708008 C 136.87944,60.708034 138.22839,61.163762 139.35862,62.075195 C 140.48881,62.986677 141.24532,64.308290 141.62815,66.040039 C 143.50573,63.852562 145.09167,62.421574 146.38597,61.747070 C 147.68021,61.054387 149.01094,60.708034 150.37815,60.708008 C 151.70885,60.708034 152.88463,61.054387 153.90550,61.747070 C 154.94452,62.421574 155.76484,63.533552 156.36644,65.083008 C 156.76744,66.140320 156.96796,67.799172 156.96800,70.059570 L 156.96800,80.833008 C 156.96796,82.400720 157.08645,83.476240 157.32347,84.059570 C 157.50572,84.460614 157.84296,84.806968 158.33519,85.098633 C 158.82733,85.372071 159.62941,85.508790 160.74144,85.508789 L 160.74144,86.493164 L 148.38206,86.493164 L 148.38206,85.508789 L 148.90159,85.508789 C 149.97708,85.508790 150.81562,85.299155 151.41722,84.879883 C 151.83645,84.588218 152.13723,84.123375 152.31956,83.485352 C 152.39244,83.175459 152.42890,82.291345 152.42894,80.833008 L 152.42894,70.059570 C 152.42890,68.017922 152.18281,66.577819 151.69065,65.739258 C 150.97968,64.572613 149.84036,63.989280 148.27269,63.989258 C 147.30651,63.989280 146.33125,64.235374 145.34690,64.727539 C 144.38073,65.201519 143.20495,66.094747 141.81956,67.407227 L 141.76487,67.708008 L 141.81956,68.883789 L 141.81956,80.833008 C 141.81954,82.546553 141.91068,83.612959 142.09300,84.032227 C 142.29349,84.451499 142.65808,84.806968 143.18675,85.098633 C 143.71537,85.372071 144.61771,85.508790 145.89378,85.508789 L 145.89378,86.493164 L 133.23362,86.493164 L 133.23362,85.508789 C 134.61902,85.508790 135.56694,85.344728 136.07737,85.016602 C 136.60600,84.688478 136.97058,84.196291 137.17112,83.540039 C 137.26225,83.230146 137.30782,82.327804 137.30784,80.833008 L 137.30784,70.059570 C 137.30782,68.017922 137.00704,66.550476 136.40550,65.657227 C 135.60340,64.490582 134.48230,63.907249 133.04222,63.907227 C 132.05783,63.907249 131.08257,64.171572 130.11644,64.700195 C 128.60340,65.502300 127.43674,66.404642 126.61644,67.407227 L 126.61644,80.833008 C 126.61643,82.473637 126.72580,83.540042 126.94456,84.032227 C 127.18153,84.524416 127.51877,84.898114 127.95628,85.153320 C 128.41200,85.390301 129.32346,85.508790 130.69065,85.508789 L 130.69065,86.493164 L 118.30394,86.493164 L 118.30394,85.508789 C 119.45237,85.508790 120.25445,85.390301 120.71019,85.153320 C 121.16591,84.898114 121.51227,84.506187 121.74925,83.977539 C 121.98622,83.430667 122.10471,82.382491 122.10472,80.833008 L 122.10472,71.262695 C 122.10471,68.510109 122.02268,66.732767 121.85862,65.930664 C 121.73102,65.329123 121.53049,64.918967 121.25706,64.700195 C 120.98362,64.463238 120.60992,64.344749 120.13597,64.344727 C 119.62555,64.344749 119.01487,64.481467 118.30394,64.754883 L 117.89378,63.770508 L 125.44065,60.708008 L 126.61644,60.708008 L 126.61644,66.040039 M 112.26097,47.610352 L 112.26097,80.833008 C 112.26096,82.400720 112.37033,83.439782 112.58909,83.950195 C 112.82606,84.460614 113.18153,84.852541 113.65550,85.125977 C 114.12944,85.381186 115.01356,85.508790 116.30784,85.508789 L 116.30784,86.493164 L 104.03050,86.493164 L 104.03050,85.508789 C 105.17893,85.508790 105.96279,85.390301 106.38206,85.153320 C 106.80133,84.916343 107.12945,84.524416 107.36644,83.977539 C 107.60341,83.430667 107.72190,82.382491 107.72190,80.833008 L 107.72190,58.083008 C 107.72190,55.257518 107.65810,53.525749 107.53050,52.887695 C 107.40289,52.231480 107.19325,51.784865 106.90159,51.547852 C 106.62815,51.310908 106.27268,51.192418 105.83519,51.192383 C 105.36122,51.192418 104.75966,51.338251 104.03050,51.629883 L 103.56565,50.672852 L 111.03050,47.610352 L 112.26097,47.610352 M 87.788311,60.708008 C 91.579960,60.708034 94.624228,62.148136 96.921124,65.028320 C 98.871619,67.489277 99.846879,70.314795 99.846905,73.504883 C 99.846879,75.747081 99.309119,78.016610 98.233624,80.313477 C 97.158079,82.610355 95.672404,84.342125 93.776592,85.508789 C 91.898970,86.675456 89.802618,87.258788 87.487530,87.258789 C 83.714082,87.258788 80.715387,85.754884 78.491436,82.747070 C 76.613829,80.213222 75.675028,77.369475 75.675030,74.215820 C 75.675028,71.918960 76.240131,69.640316 77.370342,67.379883 C 78.518775,65.101258 80.022680,63.424177 81.882061,62.348633 C 83.741426,61.254908 85.710174,60.708034 87.788311,60.708008 M 86.940655,62.485352 C 85.974497,62.485376 84.999237,62.777042 84.014874,63.360352 C 83.048718,63.925478 82.264865,64.928081 81.663311,66.368164 C 81.061741,67.808287 80.760960,69.658545 80.760967,71.918945 C 80.760960,75.564790 81.481012,78.709318 82.921124,81.352539 C 84.379446,83.995771 86.293507,85.317384 88.663311,85.317383 C 90.431524,85.317384 91.889855,84.588218 93.038311,83.129883 C 94.186728,81.671554 94.760946,79.165046 94.760967,75.610352 C 94.760946,71.162450 93.803916,67.662454 91.889874,65.110352 C 90.595586,63.360375 88.945848,62.485376 86.940655,62.485352 M 68.182842,48.567383 L 68.182842,61.391602 L 67.171124,61.391602 C 66.842974,58.930692 66.250527,56.971058 65.393780,55.512695 C 64.555216,54.054394 63.352092,52.896843 61.784405,52.040039 C 60.216679,51.183304 58.594285,50.754919 56.917217,50.754883 C 55.021371,50.754919 53.453665,51.338251 52.214092,52.504883 C 50.974500,53.653353 50.354709,54.965852 50.354717,56.442383 C 50.354709,57.572620 50.746636,58.602567 51.530499,59.532227 C 52.660697,60.899440 55.349496,62.722355 59.596905,65.000977 C 63.060426,66.860371 65.421101,68.291359 66.678936,69.293945 C 67.954952,70.278337 68.930212,71.445002 69.604717,72.793945 C 70.297398,74.142916 70.643752,75.555675 70.643780,77.032227 C 70.643752,79.839525 69.550003,82.264002 67.362530,84.305664 C 65.193236,86.329102 62.395062,87.340819 58.967999,87.340820 C 57.892462,87.340819 56.880745,87.258788 55.932842,87.094727 C 55.367725,87.003580 54.191945,86.675456 52.405499,86.110352 C 50.637261,85.527019 49.516169,85.235353 49.042217,85.235352 C 48.586482,85.235353 48.221899,85.372071 47.948467,85.645508 C 47.693254,85.918946 47.501848,86.484049 47.374249,87.340820 L 46.362530,87.340820 L 46.362530,74.625977 L 47.374249,74.625977 C 47.848201,77.287444 48.486222,79.283536 49.288311,80.614258 C 50.090387,81.926762 51.311740,83.020511 52.952374,83.895508 C 54.611216,84.770510 56.425016,85.208009 58.393780,85.208008 C 60.672407,85.208009 62.467979,84.606447 63.780499,83.403320 C 65.111205,82.200200 65.776569,80.778326 65.776592,79.137695 C 65.776569,78.226245 65.521361,77.305673 65.010967,76.375977 C 64.518758,75.446300 63.744019,74.580416 62.686749,73.778320 C 61.975792,73.231459 60.034387,72.073908 56.862530,70.305664 C 53.690644,68.519224 51.430229,67.097350 50.081280,66.040039 C 48.750544,64.982769 47.738827,63.816103 47.046124,62.540039 C 46.353411,61.264023 46.007058,59.860378 46.007061,58.329102 C 46.007058,55.667674 47.027890,53.379916 49.069561,51.465820 C 51.111219,49.533566 53.708873,48.567421 56.862530,48.567383 C 58.831263,48.567421 60.918501,49.050493 63.124249,50.016602 C 64.145060,50.472367 64.865112,50.700231 65.284405,50.700195 C 65.758340,50.700231 66.141152,50.563512 66.432842,50.290039 C 66.742714,49.998409 66.988807,49.424191 67.171124,48.567383 L 68.182842,48.567383"
         id="text597" />
      <path
         transform="matrix(0.780596,0.000000,0.000000,0.888351,-6.540441,6.609924)"
         style="font-size:56.000000;font-weight:normal;fill:#019a8c;stroke:#009082;stroke-width:1.7380000;stroke-dashoffset:0.0000000;font-family:Times New Roman;"
         d="M 177.45359,59.185493 L 177.45359,67.716743 L 176.55125,67.716743 C 175.85853,65.037076 174.96530,63.214161 173.87156,62.247993 C 172.79603,61.281871 171.41973,60.798799 169.74266,60.798775 C 168.46661,60.798799 167.43666,61.136038 166.65281,61.810493 C 165.86895,62.484995 165.47703,63.232390 165.47703,64.052681 C 165.47703,65.073534 165.76869,65.948533 166.35203,66.677681 C 166.91713,67.425094 168.06556,68.218062 169.79734,69.056587 L 173.78953,70.997993 C 177.49003,72.802693 179.34029,75.181597 179.34031,78.134712 C 179.34029,80.413363 178.47441,82.254507 176.74266,83.658150 C 175.02910,85.043566 173.10592,85.736274 170.97313,85.736275 C 169.44187,85.736274 167.69187,85.462837 165.72313,84.915962 C 165.12156,84.733671 164.62937,84.642525 164.24656,84.642525 C 163.82729,84.642525 163.49916,84.879504 163.26219,85.353462 L 162.35984,85.353462 L 162.35984,76.412056 L 163.26219,76.412056 C 163.77260,78.964145 164.74786,80.887320 166.18797,82.181587 C 167.62807,83.475860 169.24134,84.122994 171.02781,84.122993 C 172.28561,84.122994 173.30645,83.758411 174.09031,83.029243 C 174.89238,82.281850 175.29342,81.388622 175.29344,80.349556 C 175.29342,79.091749 174.84681,78.034459 173.95359,77.177681 C 173.07858,76.320919 171.31947,75.236284 168.67625,73.923775 C 166.03301,72.611287 164.30125,71.426392 163.48094,70.369087 C 162.66062,69.330040 162.25047,68.017542 162.25047,66.431587 C 162.25047,64.371712 162.95229,62.649057 164.35594,61.263618 C 165.77781,59.878227 167.60984,59.185519 169.85203,59.185493 C 170.83640,59.185519 172.03040,59.395154 173.43406,59.814400 C 174.36374,60.087862 174.98353,60.224581 175.29344,60.224556 C 175.58509,60.224581 175.81295,60.160779 175.97703,60.033150 C 176.14108,59.905571 176.33248,59.623019 176.55125,59.185493 L 177.45359,59.185493 M 125.17234,64.517525 C 126.99525,62.694630 128.07077,61.646454 128.39891,61.372993 C 129.21921,60.680309 130.10332,60.142550 131.05125,59.759712 C 131.99915,59.376925 132.93795,59.185519 133.86766,59.185493 C 135.43535,59.185519 136.78430,59.641248 137.91453,60.552681 C 139.04472,61.464163 139.80123,62.785776 140.18406,64.517525 C 142.06164,62.330047 143.64758,60.899059 144.94188,60.224556 C 146.23612,59.531873 147.56684,59.185519 148.93406,59.185493 C 150.26476,59.185519 151.44054,59.531873 152.46141,60.224556 C 153.50043,60.899059 154.32074,62.011037 154.92234,63.560493 C 155.32335,64.617805 155.52387,66.276658 155.52391,68.537056 L 155.52391,79.310493 C 155.52387,80.878206 155.64236,81.953726 155.87938,82.537056 C 156.06163,82.938100 156.39887,83.284453 156.89109,83.576118 C 157.38324,83.849557 158.18532,83.986276 159.29734,83.986275 L 159.29734,84.970650 L 146.93797,84.970650 L 146.93797,83.986275 L 147.45750,83.986275 C 148.53299,83.986276 149.37153,83.776640 149.97313,83.357368 C 150.39236,83.065704 150.69314,82.600860 150.87547,81.962837 C 150.94835,81.652945 150.98481,80.768831 150.98484,79.310493 L 150.98484,68.537056 C 150.98481,66.495408 150.73872,65.055305 150.24656,64.216743 C 149.53559,63.050099 148.39627,62.466766 146.82859,62.466743 C 145.86242,62.466766 144.88716,62.712859 143.90281,63.205025 C 142.93664,63.679004 141.76086,64.572233 140.37547,65.884712 L 140.32078,66.185493 L 140.37547,67.361275 L 140.37547,79.310493 C 140.37544,81.024039 140.46659,82.090444 140.64891,82.509712 C 140.84940,82.928985 141.21399,83.284453 141.74266,83.576118 C 142.27128,83.849557 143.17362,83.986276 144.44969,83.986275 L 144.44969,84.970650 L 131.78953,84.970650 L 131.78953,83.986275 C 133.17493,83.986276 134.12285,83.822213 134.63328,83.494087 C 135.16191,83.165964 135.52649,82.673777 135.72703,82.017525 C 135.81816,81.707632 135.86373,80.805289 135.86375,79.310493 L 135.86375,68.537056 C 135.86373,66.495408 135.56295,65.027961 134.96141,64.134712 C 134.15931,62.968068 133.03821,62.384735 131.59813,62.384712 C 130.61374,62.384735 129.63848,62.649057 128.67234,63.177681 C 127.15931,63.979785 125.99265,64.882128 125.17234,65.884712 L 125.17234,79.310493 C 125.17234,80.951122 125.28171,82.017528 125.50047,82.509712 C 125.73744,83.001902 126.07468,83.375599 126.51219,83.630806 C 126.96791,83.867786 127.87936,83.986276 129.24656,83.986275 L 129.24656,84.970650 L 116.85984,84.970650 L 116.85984,83.986275 C 118.00828,83.986276 118.81036,83.867786 119.26609,83.630806 C 119.72182,83.375599 120.06817,82.983673 120.30516,82.455025 C 120.54213,81.908153 120.66062,80.859977 120.66063,79.310493 L 120.66063,69.740181 C 120.66062,66.987595 120.57859,65.210253 120.41453,64.408150 C 120.28692,63.806608 120.08640,63.396453 119.81297,63.177681 C 119.53953,62.940724 119.16583,62.822234 118.69188,62.822212 C 118.18146,62.822234 117.57078,62.958953 116.85984,63.232368 L 116.44969,62.247993 L 123.99656,59.185493 L 125.17234,59.185493 L 125.17234,64.517525 M 110.81688,46.087837 L 110.81688,79.310493 C 110.81687,80.878206 110.92624,81.917267 111.14500,82.427681 C 111.38197,82.938100 111.73744,83.330026 112.21141,83.603462 C 112.68535,83.858672 113.56947,83.986276 114.86375,83.986275 L 114.86375,84.970650 L 102.58641,84.970650 L 102.58641,83.986275 C 103.73484,83.986276 104.51869,83.867786 104.93797,83.630806 C 105.35724,83.393828 105.68536,83.001902 105.92234,82.455025 C 106.15932,81.908153 106.27781,80.859977 106.27781,79.310493 L 106.27781,56.560493 C 106.27781,53.735004 106.21401,52.003235 106.08641,51.365181 C 105.95880,50.708965 105.74916,50.262351 105.45750,50.025337 C 105.18406,49.788393 104.82859,49.669904 104.39109,49.669868 C 103.91713,49.669904 103.31557,49.815737 102.58641,50.107368 L 102.12156,49.150337 L 109.58641,46.087837 L 110.81688,46.087837 M 86.344219,59.185493 C 90.135868,59.185519 93.180136,60.625622 95.477032,63.505806 C 97.427527,65.966762 98.402787,68.792280 98.402813,71.982368 C 98.402787,74.224567 97.865027,76.494096 96.789532,78.790962 C 95.713988,81.087841 94.228312,82.819610 92.332500,83.986275 C 90.454878,85.152941 88.358526,85.736274 86.043438,85.736275 C 82.269991,85.736274 79.271296,84.232369 77.047344,81.224556 C 75.169737,78.690708 74.230936,75.846961 74.230938,72.693306 C 74.230936,70.396446 74.796040,68.117802 75.926250,65.857368 C 77.074683,63.578744 78.578588,61.901662 80.437969,60.826118 C 82.297334,59.732394 84.266082,59.185519 86.344219,59.185493 M 85.496563,60.962837 C 84.530405,60.962861 83.555145,61.254528 82.570782,61.837837 C 81.604627,62.402964 80.820773,63.405567 80.219219,64.845650 C 79.617649,66.285773 79.316868,68.136031 79.316875,70.396431 C 79.316868,74.042275 80.036920,77.186803 81.477032,79.830025 C 82.935354,82.473256 84.849415,83.794870 87.219219,83.794868 C 88.987432,83.794870 90.445764,83.065704 91.594219,81.607368 C 92.742636,80.149040 93.316854,77.642532 93.316875,74.087837 C 93.316854,69.639936 92.359824,66.139939 90.445782,63.587837 C 89.151494,61.837860 87.501756,60.962861 85.496563,60.962837 M 66.738750,47.044868 L 66.738750,59.869087 L 65.727032,59.869087 C 65.398882,57.408177 64.806435,55.448544 63.949688,53.990181 C 63.111124,52.531880 61.908000,51.374329 60.340313,50.517525 C 58.772587,49.660789 57.150193,49.232404 55.473125,49.232368 C 53.577280,49.232404 52.009573,49.815737 50.770000,50.982368 C 49.530409,52.130839 48.910618,53.443337 48.910625,54.919868 C 48.910618,56.050106 49.302544,57.080053 50.086407,58.009712 C 51.216605,59.376925 53.905404,61.199840 58.152813,63.478462 C 61.616334,65.337857 63.977009,66.768845 65.234844,67.771431 C 66.510860,68.755822 67.486120,69.922488 68.160625,71.271431 C 68.853306,72.620402 69.199660,74.033161 69.199688,75.509712 C 69.199660,78.317011 68.105911,80.741487 65.918438,82.783150 C 63.749144,84.806587 60.950970,85.818305 57.523907,85.818306 C 56.448370,85.818305 55.436653,85.736274 54.488750,85.572212 C 53.923633,85.481066 52.747853,85.152941 50.961407,84.587837 C 49.193169,84.004505 48.072077,83.712838 47.598125,83.712837 C 47.142390,83.712838 46.777807,83.849557 46.504375,84.122993 C 46.249162,84.396432 46.057756,84.961535 45.930157,85.818306 L 44.918438,85.818306 L 44.918438,73.103462 L 45.930157,73.103462 C 46.404110,75.764930 47.042130,77.761022 47.844219,79.091743 C 48.646295,80.404248 49.867648,81.497997 51.508282,82.372993 C 53.167124,83.247995 54.980924,83.685495 56.949688,83.685493 C 59.228316,83.685495 61.023887,83.083933 62.336407,81.880806 C 63.667113,80.677685 64.332477,79.255812 64.332500,77.615181 C 64.332477,76.703731 64.077269,75.783159 63.566875,74.853462 C 63.074666,73.923786 62.299927,73.057901 61.242657,72.255806 C 60.531700,71.708944 58.590295,70.551393 55.418438,68.783150 C 52.246552,66.996709 49.986137,65.574836 48.637188,64.517525 C 47.306453,63.460255 46.294735,62.293589 45.602032,61.017525 C 44.909320,59.741508 44.562966,58.337864 44.562969,56.806587 C 44.562966,54.145160 45.583798,51.857402 47.625469,49.943306 C 49.667127,48.011051 52.264781,47.044906 55.418438,47.044868 C 57.387172,47.044906 59.474409,47.527979 61.680157,48.494087 C 62.700968,48.949852 63.421020,49.177717 63.840313,49.177681 C 64.314248,49.177717 64.697060,49.040998 64.988750,48.767525 C 65.298622,48.475895 65.544716,47.901676 65.727032,47.044868 L 66.738750,47.044868"
         id="text624" />
    </g>
  </g>
  <text
     style="fill:black;stroke:none;font-family:Futura;font-style:normal;font-weight:normal;font-size:14.000000;fill-opacity:1;stroke-opacity:1;stroke-width:1pt;stroke-linejoin:miter;stroke-linecap:butt;text-anchor:start;writing-mode:lr;font-stretch:normal;font-variant:normal;"
     x="173.568207"
     y="32.2227097"
     id="text608"
     sodipodi:linespacing="100%"><tspan
       x="173.56821"
       y="32.222710"
       sodipodi:role="line"
       id="tspan1345">Alexander Hartner</tspan></text>
  <metadata
     id="metadata1243">
    <rdf:RDF
       id="RDF1244">
      <cc:Work
         rdf:about=""
         id="Work1245">
        <dc:format
           id="format1246">image/svg+xml</dc:format>
        <dc:type
           id="type1248"
           rdf:resource="http://purl.org/dc/dcmitype/StillImage" />
      </cc:Work>
    </rdf:RDF>
  </metadata>
</svg>
