<?xml version="1.0" encoding="UTF-8" standalone="no"?>
<!-- Created with Sodipodi ("http://www.sodipodi.com/") -->
<svg
   xmlns:dc="http://purl.org/dc/elements/1.1/"
   xmlns:cc="http://creativecommons.org/ns#"
   xmlns:rdf="http://www.w3.org/1999/02/22-rdf-syntax-ns#"
   xmlns:svg="http://www.w3.org/2000/svg"
   xmlns="http://www.w3.org/2000/svg"
   xmlns:xlink="http://www.w3.org/1999/xlink"
   xmlns:sodipodi="http://sodipodi.sourceforge.net/DTD/sodipodi-0.dtd"
   xmlns:inkscape="http://www.inkscape.org/namespaces/inkscape"
   inkscape:export-ydpi="450.08893"
   inkscape:export-xdpi="450.08893"
   inkscape:export-filename="/Users/dawidl/Desktop/sifiso-450dpi.png"
   inkscape:version="0.46"
   sodipodi:docname="dawidLoubser-card-front.svg"
   sodipodi:docbase="/Users/dawidl/Projects/solms/solmsRoot/trunk/resources/knowledge/solms/resources/businessCards"
   height="177.16534"
   width="318.89764"
   sodipodi:version="0.32"
   id="svg587"
   inkscape:output_extension="org.inkscape.output.svg.inkscape"
   version="1.0">
  <defs
     id="defs589">
    <linearGradient
       id="linearGradient4082">
      <stop
         style="stop-color:#ffffff;stop-opacity:0.19463088;"
         offset="0"
         id="stop4084" />
      <stop
         id="stop4090"
         offset="0.5"
         style="stop-color:#ffffff;stop-opacity:0.6979866;" />
      <stop
         style="stop-color:#ffffff;stop-opacity:0.16778524;"
         offset="1"
         id="stop4086" />
    </linearGradient>
    <inkscape:perspective
       sodipodi:type="inkscape:persp3d"
       inkscape:vp_x="0 : 88.58268 : 1"
       inkscape:vp_y="0 : 1000 : 0"
       inkscape:vp_z="318.89764 : 88.58268 : 1"
       inkscape:persp3d-origin="159.44882 : 59.05512 : 1"
       id="perspective2711" />
    <linearGradient
       id="linearGradient619">
      <stop
         id="stop620"
         offset="0"
         style="stop-color:#000;stop-opacity:1;" />
      <stop
         id="stop621"
         offset="1"
         style="stop-color:#fff;stop-opacity:1;" />
    </linearGradient>
    <linearGradient
       spreadMethod="reflect"
       y2="0.3125"
       x2="1.6181819"
       y1="0.046875"
       x1="1.327273"
       id="linearGradient622"
       xlink:href="#linearGradient619" />
    <radialGradient
       id="radialGradient623"
       xlink:href="#linearGradient619" />
    <linearGradient
       inkscape:collect="always"
       xlink:href="#linearGradient4082"
       id="linearGradient4088"
       x1="8.015008"
       y1="18.319002"
       x2="144.99319"
       y2="18.319002"
       gradientUnits="userSpaceOnUse"
       gradientTransform="matrix(1.2148573,0,0,0.4830509,-11.747924,91.114767)" />
  </defs>
  <sodipodi:namedview
     inkscape:pageopacity="1.0000000"
     pagecolor="#ffffff"
     inkscape:current-layer="svg587"
     inkscape:window-y="0"
     inkscape:window-x="0"
     inkscape:window-height="1092"
     inkscape:window-width="1920"
     inkscape:cy="88.628246"
     inkscape:cx="159.40642"
     inkscape:zoom="2.0892377"
     gridtolerance="1.000000px"
     id="base"
     borderlayer="true"
     showgrid="false"
     units="mm"
     inkscape:document-units="mm" />
  <path
     id="path586"
     d="M 157.8584,167.9036 L 157.8584,10.54865 L -9.3443833,10.54865 L -9.3443833,167.9036 L 157.8584,167.9036 z"
     style="font-size:12px;fill:#f7f6ec;fill-opacity:1;fill-rule:evenodd" />
  <path
     id="path648"
     d="M 167.11708,49.731251 L 167.11708,49.256001 L 313.41328,49.256001 L 313.41328,49.731251 L 167.11708,49.731251 z"
     style="font-size:12px;fill:#8bb1ab;fill-rule:evenodd" />
  <g
     id="g1305"
     style="stroke:#e0e0e0;stroke-opacity:1">
    <path
       id="path623"
       d="M 2.327489,19.22687 L 161.069,19.22687"
       style="font-size:12px;fill:none;fill-rule:evenodd;stroke:#e0e0e0;stroke-width:0.49604201;stroke-opacity:1" />
    <path
       id="path625"
       d="M 2.327489,26.58196 L 161.069,26.58196"
       style="font-size:12px;fill:none;fill-rule:evenodd;stroke:#e0e0e0;stroke-width:0.49604201;stroke-opacity:1" />
    <path
       id="path627"
       d="M 2.327489,33.93709 L 161.069,33.93709"
       style="font-size:12px;fill:none;fill-rule:evenodd;stroke:#e0e0e0;stroke-width:0.49604201;stroke-opacity:1" />
    <path
       id="path628"
       d="M 2.327489,41.29222 L 161.069,41.29222"
       style="font-size:12px;fill:none;fill-rule:evenodd;stroke:#e0e0e0;stroke-width:0.49604201;stroke-opacity:1" />
    <path
       id="path629"
       d="M 2.327489,48.64733 L 161.069,48.64733"
       style="font-size:12px;fill:none;fill-rule:evenodd;stroke:#e0e0e0;stroke-width:0.49604201;stroke-opacity:1" />
    <path
       id="path630"
       d="M 2.327489,56.00244 L 161.069,56.00244"
       style="font-size:12px;fill:none;fill-rule:evenodd;stroke:#e0e0e0;stroke-width:0.49604201;stroke-opacity:1" />
    <path
       id="path631"
       d="M 2.327489,63.35755 L 161.069,63.35755"
       style="font-size:12px;fill:none;fill-rule:evenodd;stroke:#e0e0e0;stroke-width:0.49604201;stroke-opacity:1" />
    <path
       id="path632"
       d="M 2.327489,70.71267 L 161.069,70.71267"
       style="font-size:12px;fill:none;fill-rule:evenodd;stroke:#e0e0e0;stroke-width:0.49604201;stroke-opacity:1" />
    <path
       id="path633"
       d="M 2.327489,78.06778 L 161.069,78.06778"
       style="font-size:12px;fill:none;fill-rule:evenodd;stroke:#e0e0e0;stroke-width:0.49604201;stroke-opacity:1" />
    <path
       id="path634"
       d="M 2.327489,85.42244 L 161.069,85.42244"
       style="font-size:12px;fill:none;fill-rule:evenodd;stroke:#e0e0e0;stroke-width:0.49604201;stroke-opacity:1" />
    <path
       id="path635"
       d="M 2.327489,92.77756 L 161.069,92.77756"
       style="font-size:12px;fill:none;fill-rule:evenodd;stroke:#e0e0e0;stroke-width:0.49604201;stroke-opacity:1" />
    <path
       id="path636"
       d="M 2.327489,100.1331 L 161.069,100.1331"
       style="font-size:12px;fill:none;fill-rule:evenodd;stroke:#e0e0e0;stroke-width:0.49604201;stroke-opacity:1" />
    <path
       id="path637"
       d="M 2.327489,107.4882 L 161.069,107.4882"
       style="font-size:12px;fill:none;fill-rule:evenodd;stroke:#e0e0e0;stroke-width:0.49604201;stroke-opacity:1" />
    <path
       id="path638"
       d="M 2.327489,114.8433 L 161.069,114.8433"
       style="font-size:12px;fill:none;fill-rule:evenodd;stroke:#e0e0e0;stroke-width:0.49604201;stroke-opacity:1" />
    <path
       id="path639"
       d="M 2.327489,122.1985 L 161.069,122.1985"
       style="font-size:12px;fill:none;fill-rule:evenodd;stroke:#e0e0e0;stroke-width:0.49604201;stroke-opacity:1" />
    <path
       id="path640"
       d="M 2.327489,129.5536 L 161.069,129.5536"
       style="font-size:12px;fill:none;fill-rule:evenodd;stroke:#e0e0e0;stroke-width:0.49604201;stroke-opacity:1" />
    <path
       id="path641"
       d="M 2.327489,136.9087 L 161.069,136.9087"
       style="font-size:12px;fill:none;fill-rule:evenodd;stroke:#e0e0e0;stroke-width:0.49604201;stroke-opacity:1" />
    <path
       id="path642"
       d="M 2.327489,144.2638 L 161.069,144.2638"
       style="font-size:12px;fill:none;fill-rule:evenodd;stroke:#e0e0e0;stroke-width:0.49604201;stroke-opacity:1" />
    <path
       id="path643"
       d="M 2.327489,151.6189 L 161.069,151.6189"
       style="font-size:12px;fill:none;fill-rule:evenodd;stroke:#e0e0e0;stroke-width:0.49604201;stroke-opacity:1" />
    <path
       id="path644"
       d="M 2.327489,158.974 L 161.069,158.974"
       style="font-size:12px;fill:none;fill-rule:evenodd;stroke:#e0e0e0;stroke-width:0.49604201;stroke-opacity:1" />
    <path
       id="path660"
       d="M 10.79247,166.7202 L 10.79247,12.78839"
       style="font-size:12px;fill:none;fill-rule:evenodd;stroke:#e0e0e0;stroke-width:0.49604201;stroke-opacity:1" />
    <path
       id="path661"
       d="M 21.0854,166.7202 L 21.0854,12.78839"
       style="font-size:12px;fill:none;fill-rule:evenodd;stroke:#e0e0e0;stroke-width:0.49604201;stroke-opacity:1" />
    <path
       id="path662"
       d="M 31.37848,166.7202 L 31.37848,12.78839"
       style="font-size:12px;fill:none;fill-rule:evenodd;stroke:#e0e0e0;stroke-width:0.49604201;stroke-opacity:1" />
    <path
       id="path663"
       d="M 41.67134,166.7202 L 41.67134,12.78839"
       style="font-size:12px;fill:none;fill-rule:evenodd;stroke:#e0e0e0;stroke-width:0.49604201;stroke-opacity:1" />
    <path
       id="path664"
       d="M 51.96432,166.7202 L 51.96432,12.78839"
       style="font-size:12px;fill:none;fill-rule:evenodd;stroke:#e0e0e0;stroke-width:0.49604201;stroke-opacity:1" />
    <path
       id="path665"
       d="M 62.25724,166.7202 L 62.25724,12.78839"
       style="font-size:12px;fill:none;fill-rule:evenodd;stroke:#e0e0e0;stroke-width:0.49604201;stroke-opacity:1" />
    <path
       id="path914"
       d="M 72.55032,166.7202 L 72.55032,12.78839"
       style="font-size:12px;fill:none;fill-rule:evenodd;stroke:#e0e0e0;stroke-width:0.49604201;stroke-opacity:1" />
    <path
       id="path915"
       d="M 82.84324,166.7202 L 82.84324,12.78839"
       style="font-size:12px;fill:none;fill-rule:evenodd;stroke:#e0e0e0;stroke-width:0.49604201;stroke-opacity:1" />
    <path
       id="path916"
       d="M 93.13618,166.7202 L 93.13618,12.78839"
       style="font-size:12px;fill:none;fill-rule:evenodd;stroke:#e0e0e0;stroke-width:0.49604201;stroke-opacity:1" />
    <path
       id="path669"
       d="M 103.4291,166.7202 L 103.4291,12.78839"
       style="font-size:12px;fill:none;fill-rule:evenodd;stroke:#e0e0e0;stroke-width:0.49604201;stroke-opacity:1" />
    <path
       id="path670"
       d="M 113.7219,166.7202 L 113.7219,12.78839"
       style="font-size:12px;fill:none;fill-rule:evenodd;stroke:#e0e0e0;stroke-width:0.49604201;stroke-opacity:1" />
    <path
       id="path671"
       d="M 124.0145,166.7202 L 124.0145,12.78839"
       style="font-size:12px;fill:none;fill-rule:evenodd;stroke:#e0e0e0;stroke-width:0.49604201;stroke-opacity:1" />
    <path
       id="path672"
       d="M 134.3065,166.7202 L 134.3065,12.78839"
       style="font-size:12px;fill:none;fill-rule:evenodd;stroke:#e0e0e0;stroke-width:0.49604201;stroke-opacity:1" />
    <path
       id="path673"
       d="M 144.5995,166.7202 L 144.5995,12.78839"
       style="font-size:12px;fill:none;fill-rule:evenodd;stroke:#e0e0e0;stroke-width:0.49604201;stroke-opacity:1" />
    <path
       id="path674"
       d="M 154.8925,166.7202 L 154.8925,12.78839"
       style="font-size:12px;fill:none;fill-rule:evenodd;stroke:#e0e0e0;stroke-width:0.49604201;stroke-opacity:1" />
  </g>
  <path
     id="path585"
     d="M -9.4300551,186.18029 L -9.4300551,163.6699 L 328.32167,163.6699 L 328.32167,186.18029 L -9.4300551,186.18029 z"
     style="font-size:12px;fill:#81b1ab;fill-opacity:1;fill-rule:evenodd" />
  <text
     sodipodi:linespacing="100%"
     id="text659"
     y="61.698082"
     x="209.88918"
     style="font-size:10px;font-style:normal;font-variant:normal;font-weight:normal;font-stretch:normal;text-align:start;line-height:100%;writing-mode:lr-tb;text-anchor:start;fill:#000000;fill-opacity:1;stroke:none;stroke-width:1pt;stroke-linecap:butt;stroke-linejoin:miter;stroke-opacity:1;font-family:STFangsong;-inkscape-font-specification:STFangsong">
    <tspan
       id="tspan640"
       sodipodi:role="line"
       y="61.698082"
       x="209.88918">dawidl@solms.co.za</tspan>
  </text>
  <text
     sodipodi:linespacing="100%"
     id="text670"
     y="86.382637"
     x="208.33644"
     style="font-size:10px;font-style:normal;font-variant:normal;font-weight:normal;font-stretch:normal;text-align:start;line-height:100%;writing-mode:lr-tb;text-anchor:start;fill:#000000;fill-opacity:1;stroke:none;stroke-width:1pt;stroke-linecap:butt;stroke-linejoin:miter;stroke-opacity:1;font-family:STFangsong;-inkscape-font-specification:STFangsong">
    <tspan
       id="tspan642"
       sodipodi:role="line"
       y="86.382637"
       x="208.33644">+27 (11) 646-6459</tspan>
  </text>
  <text
     sodipodi:linespacing="100%"
     id="text673"
     y="98.732597"
     x="208.33644"
     style="font-size:10px;font-style:normal;font-variant:normal;font-weight:normal;font-stretch:normal;text-align:start;line-height:100%;writing-mode:lr-tb;text-anchor:start;fill:#000000;fill-opacity:1;stroke:none;stroke-width:1pt;stroke-linecap:butt;stroke-linejoin:miter;stroke-opacity:1;font-family:STFangsong;-inkscape-font-specification:STFangsong">
    <tspan
       id="tspan644"
       sodipodi:role="line"
       y="98.732597"
       x="208.33644">+27 (11) 646-5868</tspan>
  </text>
  <text
     sodipodi:linespacing="100%"
     id="text676"
     y="111.0826"
     x="208.33644"
     style="font-size:10px;font-style:normal;font-variant:normal;font-weight:normal;font-stretch:normal;text-align:start;line-height:100%;writing-mode:lr-tb;text-anchor:start;fill:#000000;fill-opacity:1;stroke:none;stroke-width:1pt;stroke-linecap:butt;stroke-linejoin:miter;stroke-opacity:1;font-family:STFangsong;-inkscape-font-specification:STFangsong">
    <tspan
       id="tspan646"
       sodipodi:role="line"
       y="111.0826"
       x="208.33644">+27 (82) 655-0876</tspan>
  </text>
  <text
     sodipodi:linespacing="100%"
     id="text679"
     y="85.756485"
     x="173.19342"
     style="font-size:7px;font-style:normal;font-weight:normal;line-height:100%;writing-mode:lr-tb;text-anchor:start;fill:#a9a9a9;fill-opacity:1;stroke:none;stroke-width:1pt;stroke-linecap:butt;stroke-linejoin:miter;stroke-opacity:1;font-family:Arial Black">
    <tspan
       id="tspan632"
       sodipodi:role="line"
       y="85.756485"
       x="173.19342">phone</tspan>
  </text>
  <text
     sodipodi:linespacing="100%"
     id="text686"
     y="98.801353"
     x="173.56598"
     style="font-size:7px;font-style:normal;font-weight:normal;line-height:100%;writing-mode:lr-tb;text-anchor:start;fill:#a9a9a9;fill-opacity:1;stroke:none;stroke-width:1pt;stroke-linecap:butt;stroke-linejoin:miter;stroke-opacity:1;font-family:Arial Black">
    <tspan
       id="tspan636"
       sodipodi:role="line"
       y="98.801353"
       x="173.56598">fax</tspan>
  </text>
  <text
     sodipodi:linespacing="100%"
     id="text689"
     y="111.11134"
     x="173.19"
     style="font-size:7px;font-style:normal;font-weight:normal;line-height:100%;writing-mode:lr-tb;text-anchor:start;fill:#a9a9a9;fill-opacity:1;stroke:none;stroke-width:1pt;stroke-linecap:butt;stroke-linejoin:miter;stroke-opacity:1;font-family:Arial Black">
    <tspan
       id="tspan634"
       sodipodi:role="line"
       y="111.11134"
       x="173.19">mobile</tspan>
  </text>
  <text
     sodipodi:linespacing="100%"
     id="text639"
     y="61.700508"
     x="173.19"
     style="font-size:7px;font-style:normal;font-weight:normal;line-height:100%;writing-mode:lr-tb;text-anchor:start;fill:#a9a9a9;fill-opacity:1;stroke:none;stroke-width:1pt;stroke-linecap:butt;stroke-linejoin:miter;stroke-opacity:1;font-family:Arial Black">
    <tspan
       id="tspan630"
       sodipodi:role="line"
       y="61.700508"
       x="173.19">mail</tspan>
  </text>
  <text
     sodipodi:linespacing="100%"
     id="text651"
     y="136.78723"
     x="206.41862"
     style="font-size:9.09554291px;font-style:normal;font-variant:normal;font-weight:normal;font-stretch:normal;text-align:start;line-height:100%;writing-mode:lr-tb;text-anchor:start;fill:#000000;fill-opacity:1;stroke:none;stroke-width:1pt;stroke-linecap:butt;stroke-linejoin:miter;stroke-opacity:1;font-family:STFangsong;-inkscape-font-specification:STFangsong"
     transform="scale(1.0149694,0.9852514)">
    <tspan
       id="tspan711"
       sodipodi:role="line"
       y="136.78723"
       x="206.41862">113 Barry Hertzog Ave,</tspan>
    <tspan
       id="tspan715"
       sodipodi:role="line"
       y="145.88278"
       x="206.41862">Emmarentia,</tspan>
    <tspan
       sodipodi:role="line"
       y="154.97832"
       x="206.41862"
       id="tspan4713">Johannesburg, South Africa</tspan>
  </text>
  <text
     sodipodi:linespacing="100%"
     id="text656"
     y="74.04805"
     x="210.02589"
     style="font-size:10px;font-style:normal;font-variant:normal;font-weight:normal;font-stretch:normal;text-align:start;line-height:100%;writing-mode:lr-tb;text-anchor:start;fill:#000000;fill-opacity:1;stroke:none;stroke-width:1pt;stroke-linecap:butt;stroke-linejoin:miter;stroke-opacity:1;font-family:STFangsong;-inkscape-font-specification:STFangsong">
    <tspan
       id="tspan653"
       sodipodi:role="line"
       y="74.04805"
       x="210.02589">www.solms.co.za</tspan>
  </text>
  <text
     sodipodi:linespacing="100%"
     id="text660"
     y="74.0532"
     x="173.61041"
     style="font-size:7px;font-style:normal;font-weight:normal;line-height:100%;writing-mode:lr-tb;text-anchor:start;fill:#a9a9a9;fill-opacity:1;stroke:none;stroke-width:1pt;stroke-linecap:butt;stroke-linejoin:miter;stroke-opacity:1;font-family:Arial Black">
    <tspan
       id="tspan656"
       sodipodi:role="line"
       y="74.0532"
       x="173.61041">web</tspan>
  </text>
  <text
     sodipodi:linespacing="100%"
     id="text681"
     y="134.87077"
     x="173.37115"
     style="font-size:7px;font-style:normal;font-weight:normal;line-height:100%;writing-mode:lr-tb;text-anchor:start;fill:#a9a9a9;fill-opacity:1;stroke:none;stroke-width:1pt;stroke-linecap:butt;stroke-linejoin:miter;stroke-opacity:1;font-family:Arial Black">
    <tspan
       id="tspan682"
       sodipodi:role="line"
       y="134.87077"
       x="173.37115">office</tspan>
  </text>
  <path
     id="path684"
     d="M 167.11708,120.68176 L 167.11708,120.20656 L 313.41328,120.20656 L 313.41328,120.68176 L 167.11708,120.68176 z"
     style="font-size:12px;fill:#8bb1ab;fill-rule:evenodd" />
  <metadata
     id="metadata1243">
    <rdf:RDF>
      <cc:Work
         rdf:about="">
        <dc:format>image/svg+xml</dc:format>
        <dc:type
           rdf:resource="http://purl.org/dc/dcmitype/StillImage" />
      </cc:Work>
    </rdf:RDF>
  </metadata>
  <g
     id="g3428"
     transform="matrix(0.5856771,0,0,0.5856771,16.299987,24.1256)">
    <path
       id="text592"
       d="M 87.580247,79.184374 C 86.459776,85.397413 84.881061,91.966905 82.844096,98.89287 C 76.325444,101.4392 66.853153,102.71235 54.427195,102.71235 C 38.43628,102.71235 25.755633,98.332691 16.385215,89.573349 C 7.0147562,80.712193 2.3295371,69.050072 2.3295437,54.586949 C 2.3295371,45.725829 4.5193678,37.272064 8.8990423,29.225629 C 13.380543,21.179355 19.389846,14.864494 26.926969,10.281028 C 34.565882,5.5959084 42.815942,3.2532989 51.677173,3.2531927 C 60.538292,3.2532989 67.15871,3.6607092 71.538448,4.475425 C 75.918033,5.2903507 80.144916,6.9709184 84.219108,9.5171332 C 84.830135,14.406157 85.084766,19.447861 84.983003,24.642258 L 82.080201,24.642258 C 80.043063,18.734893 76.580075,14.253379 71.691227,11.197703 C 66.904079,8.0403706 61.098481,6.4616554 54.274416,6.4615525 C 43.579836,6.4616554 34.718661,10.892243 27.690864,19.753329 C 20.663003,28.512741 17.149089,40.174863 17.14911,54.739728 C 17.149089,69.202851 20.255593,80.253857 26.468632,87.892779 C 32.783461,95.531745 42.102973,99.351217 54.427195,99.351207 C 68.584647,99.351217 78.973611,92.628946 85.594119,79.184374 L 87.580247,79.184374"
       style="font-size:152.77903748px;font-style:normal;font-variant:normal;font-weight:normal;font-stretch:normal;text-align:start;line-height:100%;writing-mode:lr-tb;text-anchor:start;fill:#c2c2b5;fill-opacity:1;stroke:none;stroke-width:1pt;stroke-linecap:butt;stroke-linejoin:miter;stroke-opacity:1;font-family:STFangsong;-inkscape-font-specification:STFangsong"
       transform="scale(0.9971939,1.0028139)" />
    <path
       id="text606"
       d="M 119.75101,16.710314 C 119.751,14.237264 119.44185,12.485453 118.82358,11.454876 C 118.20528,10.424499 117.02023,9.7546886 115.26843,9.4454438 L 104.75756,7.5905832 L 104.75756,5.1174357 C 111.35261,5.3236372 119.39033,5.1690656 128.87074,4.6537206 C 138.35111,4.0355408 146.59492,3.7263977 153.60222,3.7262903 C 160.60941,3.7263977 167.04989,4.2931601 172.92368,5.4265792 C 178.79733,6.5602097 184.31038,8.6211638 189.46286,11.609448 C 194.7182,14.597931 198.99468,18.101553 202.29231,22.120325 C 205.69278,26.036226 208.3205,30.570326 210.17547,35.722636 C 212.03022,40.875096 212.95765,46.336625 212.95776,52.107237 C 212.95765,61.793781 210.27841,71.119599 204.92003,80.084718 C 199.56144,88.946852 192.60572,94.820571 184.05285,97.705894 C 175.49981,100.59124 167.20446,102.03391 159.1668,102.0339 L 134.12618,101.41561 L 103.21184,101.41561 L 103.21184,98.942468 L 115.26843,96.314748 C 116.91718,96.00562 118.05071,95.33581 118.66901,94.305316 C 119.39033,93.274856 119.751,91.316949 119.75101,88.431591 L 119.75101,16.710314 M 132.42589,84.72187 C 132.42586,88.019423 134.17767,91.110854 137.68133,93.996173 C 141.28797,96.778478 146.44035,98.169622 153.1385,98.169609 C 164.98894,98.169622 175.34523,94.305333 184.20742,86.57673 C 193.17249,78.745129 197.65506,67.049214 197.65516,51.488951 C 197.65506,37.886713 193.01792,27.169751 183.7437,19.338034 C 174.46933,11.5065 161.58836,7.5906868 145.10078,7.5905832 C 139.53616,7.5906868 136.03253,8.1574491 134.5899,9.2908721 C 133.1472,10.321451 132.42586,12.794596 132.42589,16.710314 L 132.42589,84.72187"
       style="font-size:154.57171631px;font-style:normal;font-variant:normal;font-weight:normal;font-stretch:normal;text-align:start;line-height:100%;writing-mode:lr-tb;text-anchor:start;fill:#c2c2b5;fill-opacity:1;stroke:none;stroke-width:1pt;stroke-linecap:butt;stroke-linejoin:miter;stroke-opacity:1;font-family:STFangsong;-inkscape-font-specification:STFangsong"
       transform="scale(0.9856253,1.0145843)" />
    <g
       transform="matrix(0.8740719,0,0,0.8740719,3.0896379,0.713065)"
       id="g3149">
      <path
         id="path655"
         d="M 63.880026,5.8622642 L 161.87692,5.8622642 L 162.8085,33.764022 L 158.65839,33.764022 C 156.62559,24.997906 154.02809,19.305266 150.866,16.686102 C 147.76036,14.013642 141.18206,12.677357 131.13111,12.677357 L 121.47544,12.677357 L 121.47544,96.702943 C 121.47544,103.06373 122.52012,107.01918 124.60936,108.56919 C 126.6985,110.0659 131.27226,111.05468 138.33054,111.53585 L 138.33054,114.5023 L 87.765239,114.5023 L 87.765239,111.53585 C 95.105703,111.00127 99.679578,109.85207 101.48642,108.08823 C 103.29337,106.32428 104.19679,101.88776 104.19679,94.778784 L 104.19679,12.677357 L 94.541119,12.677357 C 84.941884,12.677357 78.39186,13.986886 74.890938,16.60605 C 71.446454,19.225107 68.849062,24.944503 67.098547,33.764022 L 62.863731,33.764022 L 63.880026,5.8622642 z"
         style="font-size:150px;font-weight:normal;fill:none;stroke:#000000;stroke-width:5.4161973;stroke-linecap:round;stroke-linejoin:round;stroke-miterlimit:4;stroke-opacity:0.23921569;font-family:Times" />
      <path
         id="path612"
         d="M 63.530296,5.5126421 L 161.52729,5.5126421 L 162.45887,33.4144 L 158.30866,33.4144 C 156.27585,24.648393 153.67835,18.955644 150.51638,16.336588 C 147.41062,13.664128 140.83232,12.327844 130.78149,12.327844 L 121.12571,12.327844 L 121.12571,96.353429 C 121.12571,102.7141 122.17038,106.66955 124.25963,108.21967 C 126.34887,109.71627 130.92252,110.70505 137.98091,111.18634 L 137.98091,114.15279 L 87.415509,114.15279 L 87.415509,111.18634 C 94.756081,110.65176 99.329843,109.50255 101.13679,107.7386 C 102.94364,105.97465 103.84706,101.53814 103.84706,94.429162 L 103.84706,12.327844 L 94.191389,12.327844 C 84.592154,12.327844 78.04213,13.637372 74.541208,16.256428 C 71.096832,18.875485 68.49944,24.594881 66.748925,33.4144 L 62.514,33.4144 L 63.530296,5.5126421 z"
         style="font-size:150px;font-weight:normal;fill:#dfd8be;fill-opacity:0.88535037;stroke:#ece6cd;stroke-width:2.89193749;stroke-linejoin:bevel;font-family:Times" />
    </g>
    <path
       id="text3380"
       d="M 49.172374,52.847248 C 50.311785,54.113326 51.14738,55.505985 51.679163,57.025228 C 52.236186,58.519192 52.514718,60.266345 52.514759,62.266694 C 52.514718,67.027071 50.754904,70.951836 47.235311,74.041003 C 43.715647,77.130177 39.347763,78.674762 34.131645,78.674763 C 31.726121,78.674762 29.320619,78.307607 26.915133,77.573296 C 24.509617,76.813664 22.433289,75.902105 20.686144,74.838617 L 19.052933,77.611277 L 16.014402,77.611277 L 15.482659,59.1522 L 18.559172,59.1522 C 19.192192,61.431115 19.926503,63.494782 20.762107,65.343207 C 21.623015,67.166336 22.749802,68.875509 24.142473,70.470729 C 25.459157,71.964679 26.991081,73.154769 28.738252,74.041003 C 30.51071,74.927244 32.561716,75.370363 34.891278,75.37036 C 36.638408,75.370363 38.157672,75.142473 39.449074,74.686691 C 40.765742,74.230915 41.829227,73.585227 42.639532,72.749627 C 43.449776,71.914037 44.044821,70.939176 44.424669,69.825041 C 44.829774,68.685601 45.032342,67.381566 45.032376,65.912932 C 45.032342,63.760653 44.424637,61.760288 43.209257,59.911833 C 41.993814,58.038091 40.183358,56.620112 37.777882,55.657889 C 36.131987,54.999563 34.245567,54.277913 32.118618,53.492935 C 29.991628,52.682685 28.15585,51.923053 26.61128,51.214037 C 23.572737,49.846726 21.205217,48.06159 19.508713,45.858626 C 17.837515,43.630403 17.00192,40.731141 17.001925,37.16083 C 17.00192,35.109864 17.419717,33.198123 18.255319,31.425602 C 19.090908,29.653174 20.280998,28.070607 21.825593,26.677897 C 23.294205,25.361253 25.028698,24.335749 27.029078,23.601384 C 29.029427,22.841806 31.118415,22.46199 33.296049,22.461935 C 35.777492,22.46199 37.993085,22.841806 39.942836,23.601384 C 41.917851,24.36107 43.715647,25.247308 45.336229,26.260099 L 46.893476,23.677348 L 49.932007,23.677348 L 50.23586,41.5667 L 47.159347,41.5667 C 46.602249,39.51573 45.969222,37.553347 45.260265,35.679546 C 44.576563,33.805829 43.677665,32.109317 42.563569,30.590006 C 41.474732,29.121431 40.145376,27.956662 38.575497,27.095695 C 37.005564,26.209508 35.081163,25.76639 32.802287,25.766338 C 30.396765,25.76639 28.345758,26.538682 26.649262,28.083218 C 24.952735,29.627853 24.104479,31.514272 24.104492,33.742482 C 24.104479,36.072065 24.648882,38.009126 25.737702,39.553673 C 26.826494,41.072976 28.409061,42.326368 30.485407,43.313856 C 32.333827,44.200127 34.144283,44.97242 35.916782,45.630736 C 37.714554,46.263795 39.449047,46.947463 41.120267,47.681744 C 42.639501,48.340122 44.095463,49.087094 45.488155,49.922661 C 46.906101,50.758284 48.134173,51.733145 49.172374,52.847248 M 94.750344,58.46853 C 94.750305,61.101941 94.332507,63.69735 93.49695,66.254767 C 92.661317,68.786885 91.471226,70.939176 89.926676,72.711646 C 88.179488,74.737336 86.153802,76.24394 83.849613,77.231461 C 81.545368,78.218983 78.962619,78.712744 76.101359,78.712745 C 73.721157,78.712744 71.454922,78.269625 69.302645,77.383387 C 67.15034,76.471829 65.2386,75.155134 63.567417,73.433297 C 61.92154,71.736789 60.604844,69.673122 59.617327,67.242289 C 58.655122,64.786156 58.174022,62.03882 58.174024,59.000273 C 58.174022,53.151125 59.870533,48.365443 63.263564,44.643213 C 66.6819,40.921049 71.151069,39.059951 76.671083,39.059912 C 81.912523,39.059951 86.229765,40.832425 89.622823,44.377342 C 93.041133,47.897003 94.750305,52.594062 94.750344,58.46853 M 86.888144,58.544494 C 86.888113,56.645433 86.698205,54.645068 86.31842,52.543394 C 85.938573,50.41645 85.368849,48.618654 84.609246,47.150002 C 83.798943,45.580126 82.735458,44.326733 81.418788,43.389819 C 80.102067,42.427653 78.494179,41.946552 76.59512,41.946517 C 74.645376,41.946552 72.974186,42.427653 71.581543,43.389819 C 70.21419,44.352054 69.100063,45.668749 68.239159,47.33991 C 67.428872,48.884525 66.859148,50.644339 66.529985,52.619358 C 66.2008,54.594426 66.036213,56.506167 66.036224,58.354585 C 66.036213,60.785427 66.226121,63.039002 66.605948,65.115317 C 67.011074,67.166336 67.644101,69.002114 68.50503,70.622655 C 69.365934,72.243211 70.442079,73.521925 71.73347,74.458801 C 73.050149,75.370363 74.670698,75.826142 76.59512,75.82614 C 79.760232,75.826142 82.267018,74.294217 84.115485,71.230362 C 85.963894,68.166519 86.888113,63.9379 86.888144,58.544494 M 117.72923,77.573296 L 99.460065,77.573296 L 99.460065,75.066507 C 100.04245,75.015868 100.66281,74.965226 101.32117,74.914581 C 101.97951,74.83862 102.52391,74.737336 102.95438,74.610728 C 103.66336,74.382841 104.1951,73.990364 104.5496,73.433297 C 104.90409,72.850916 105.08134,72.103945 105.08135,71.19238 L 105.08135,27.817346 C 105.08134,26.905838 104.87877,26.057582 104.47364,25.272577 C 104.09382,24.462355 103.5874,23.829328 102.95438,23.373495 C 102.49859,23.069696 101.663,22.791164 100.44759,22.537898 C 99.232173,22.284743 98.257312,22.132816 97.523001,22.082119 L 97.523001,19.651294 L 111.61419,18.777716 L 112.14593,19.347441 L 112.14593,70.7366 C 112.14592,71.622845 112.3105,72.357156 112.63969,72.939535 C 112.96885,73.496604 113.5006,73.927062 114.23492,74.230911 C 114.79197,74.484125 115.33637,74.674033 115.86813,74.800636 C 116.42518,74.927244 117.04554,75.015868 117.72923,75.066507 L 117.72923,77.573296 M 186.51399,77.573296 L 168.24482,77.573296 L 168.24482,75.066507 C 168.82716,75.015868 169.40954,74.965226 169.99198,74.914581 C 170.59963,74.863941 171.13137,74.762657 171.5872,74.610728 C 172.29614,74.382841 172.81522,73.990364 173.14445,73.433297 C 173.49889,72.850916 173.67614,72.103945 173.67619,71.19238 L 173.67619,51.859725 C 173.67614,49.22636 173.06843,47.200674 171.85308,45.782662 C 170.66293,44.339393 169.16899,43.617743 167.37124,43.617709 C 166.13046,43.617743 164.96569,43.807651 163.87693,44.187434 C 162.78808,44.567283 161.7879,45.099025 160.87638,45.782662 C 160.14203,46.339758 159.52166,46.947463 159.01528,47.605781 C 158.53414,48.238838 158.16699,48.77058 157.91381,49.20101 L 157.91381,70.812564 C 157.91378,71.698808 158.0657,72.433119 158.36959,73.015499 C 158.67341,73.572567 159.19249,74.003025 159.92684,74.306875 C 160.50918,74.534767 161.02827,74.712015 161.48409,74.838617 C 161.96515,74.939904 162.58551,75.015868 163.34519,75.066507 L 163.34519,77.573296 L 145.45584,77.573296 L 145.45584,75.066507 C 146.03819,75.015868 146.59526,74.965226 147.12703,74.914581 C 147.68406,74.863941 148.19048,74.762657 148.64629,74.610728 C 149.35525,74.382841 149.87434,73.990364 150.20354,73.433297 C 150.558,72.850916 150.73525,72.103945 150.73528,71.19238 L 150.73528,51.859725 C 150.73525,49.22636 150.12755,47.200674 148.91216,45.782662 C 147.72205,44.339393 146.2281,43.617743 144.43033,43.617709 C 143.18957,43.617743 142.0248,43.820311 140.93602,44.225415 C 139.84719,44.605265 138.84701,45.137007 137.93547,45.820644 C 137.20114,46.377739 136.58078,47.010766 136.07437,47.719726 C 135.56793,48.403425 135.18812,48.922507 134.93492,49.276973 L 134.93492,70.7366 C 134.93491,71.597523 135.11215,72.319174 135.46666,72.901554 C 135.82114,73.483943 136.35289,73.927062 137.06189,74.230911 C 137.59362,74.484125 138.13802,74.674033 138.6951,74.800636 C 139.25215,74.927244 139.87251,75.015868 140.5562,75.066507 L 140.5562,77.573296 L 122.363,77.573296 L 122.363,75.066507 C 122.94538,75.015868 123.54042,74.965226 124.14813,74.914581 C 124.78116,74.863941 125.32556,74.762657 125.78135,74.610728 C 126.49033,74.382841 127.00941,73.990364 127.33859,73.433297 C 127.69308,72.850916 127.87033,72.103945 127.87034,71.19238 L 127.87034,47.909634 C 127.87033,47.09939 127.68042,46.377739 127.30061,45.744681 C 126.94611,45.086365 126.43969,44.529301 125.78135,44.073489 C 125.30024,43.769669 124.70519,43.529119 123.99621,43.351837 C 123.28721,43.149303 122.5529,43.022698 121.79327,42.972021 L 121.79327,40.503214 L 134.32721,39.667618 L 134.85896,40.199361 L 134.85896,45.554773 L 135.12483,45.554773 C 135.75784,44.921778 136.53013,44.174806 137.44171,43.313856 C 138.35325,42.452974 139.20151,41.756644 139.98648,41.224866 C 140.8727,40.617196 141.97416,40.110775 143.29088,39.7056 C 144.63287,39.300501 146.07618,39.097932 147.62079,39.097894 C 150.05158,39.097932 152.14057,39.75628 153.88776,41.072939 C 155.63488,42.36435 156.88827,43.934256 157.64794,45.782662 C 158.55946,44.896457 159.35708,44.124164 160.04079,43.465782 C 160.74973,42.782148 161.67395,42.060497 162.81345,41.300829 C 163.7756,40.642517 164.90239,40.110775 166.19381,39.7056 C 167.51046,39.300501 168.96642,39.097932 170.5617,39.097894 C 173.72678,39.097932 176.23357,40.136096 178.08206,42.212388 C 179.93044,44.288751 180.85466,47.479206 180.85472,51.783762 L 180.85472,70.812564 C 180.85466,71.698808 181.00659,72.433119 181.3105,73.015499 C 181.6143,73.572567 182.13338,74.003025 182.86775,74.306875 C 183.45007,74.534767 184.0198,74.712015 184.57693,74.838617 C 185.15924,74.939904 185.80493,75.015868 186.51399,75.066507 L 186.51399,77.573296 M 215.60793,59.228163 C 216.64606,60.13974 217.44368,61.190564 218.00077,62.380639 C 218.55781,63.570745 218.83634,65.026706 218.83637,66.748528 C 218.83634,70.217525 217.5323,73.053485 214.92426,75.256416 C 212.34148,77.459351 208.98644,78.560817 204.85912,78.560818 C 202.6815,78.560817 200.66847,78.168341 198.82004,77.383387 C 196.99692,76.598434 195.69288,75.876784 194.90793,75.218434 L 194.1483,77.687241 L 191.29968,77.687241 L 190.91986,64.659538 L 193.5406,64.659538 C 193.74316,65.647072 194.17362,66.799181 194.83197,68.115867 C 195.49031,69.432572 196.28793,70.622662 197.22481,71.686141 C 198.21233,72.800274 199.38976,73.737154 200.75711,74.496783 C 202.14975,75.256418 203.707,75.636234 205.42885,75.636232 C 207.85965,75.636234 209.73341,75.091831 211.05013,74.003021 C 212.3668,72.888898 213.02515,71.306331 213.02518,69.255316 C 213.02515,68.19184 212.80992,67.280281 212.37949,66.520638 C 211.97433,65.735696 211.36662,65.052027 210.55637,64.46963 C 209.72075,63.887258 208.69525,63.368176 207.47986,62.912382 C 206.26443,62.431297 204.90975,61.962857 203.41582,61.507062 C 202.22572,61.152583 200.89636,60.671482 199.42775,60.063759 C 197.98444,59.43075 196.74371,58.696439 195.70555,57.860824 C 194.59141,56.974606 193.67986,55.885801 192.97087,54.594403 C 192.26188,53.303052 191.90738,51.783787 191.90738,50.036606 C 191.90738,46.972784 193.04683,44.377375 195.32573,42.25037 C 197.60462,40.123435 200.65581,39.059951 204.47931,39.059912 C 205.94791,39.059951 207.44186,39.249859 208.96114,39.629637 C 210.50571,40.009491 211.7591,40.46527 212.72132,40.996976 L 213.5949,39.02193 L 216.32958,39.02193 L 216.8993,51.06211 L 214.27857,51.06211 C 213.7468,48.378104 212.59469,46.200492 210.82224,44.529268 C 209.07507,42.83279 206.93544,41.984534 204.40334,41.984498 C 202.327,41.984534 200.69379,42.503616 199.50371,43.541746 C 198.31361,44.579943 197.71857,45.833336 197.71858,47.301928 C 197.71857,48.441406 197.90847,49.390946 198.2883,50.150551 C 198.69343,50.910211 199.28847,51.555898 200.07344,52.087615 C 200.83306,52.594062 201.7826,53.075162 202.92206,53.530917 C 204.08682,53.961399 205.51746,54.45516 207.21399,55.012201 C 208.88516,55.543966 210.45506,56.164332 211.92371,56.873301 C 213.41763,57.582312 214.6457,58.367265 215.60793,59.228163"
       style="font-size:77.78639984px;font-style:normal;font-variant:normal;font-weight:normal;font-stretch:normal;text-align:start;line-height:100%;writing-mode:lr-tb;text-anchor:start;fill:#4d4d4d;fill-opacity:0.33023257;stroke:#434343;stroke-width:1.90011525;stroke-linecap:butt;stroke-linejoin:miter;stroke-dashoffset:0;stroke-opacity:0.41395347;font-family:Georgia;-inkscape-font-specification:Georgia"
       transform="scale(0.9413329,1.0623235)" />
    <path
       id="text624"
       d="M 47.437645,51.773395 C 48.577055,53.039473 49.412651,54.432132 49.944433,55.951376 C 50.501457,57.445339 50.779988,59.192493 50.780029,61.192842 C 50.779988,65.953218 49.020174,69.877984 45.500581,72.96715 C 41.980917,76.056324 37.613033,77.60091 32.396915,77.600911 C 29.991391,77.60091 27.58589,77.233754 25.180403,76.499443 C 22.774887,75.739811 20.698559,74.828253 18.951414,73.764765 L 17.318204,76.537425 L 14.279672,76.537425 L 13.747929,58.078347 L 16.824442,58.078347 C 17.457462,60.357262 18.191773,62.420929 19.027377,64.269355 C 19.888285,66.092484 21.015072,67.801656 22.407743,69.396876 C 23.724427,70.890826 25.256351,72.080917 27.003522,72.96715 C 28.77598,73.853391 30.826986,74.29651 33.156548,74.296508 C 34.903678,74.29651 36.422943,74.06862 37.714345,73.612838 C 39.031013,73.157062 40.094498,72.511375 40.904802,71.675775 C 41.715046,70.840184 42.310091,69.865323 42.68994,68.751188 C 43.095044,67.611748 43.297613,66.307713 43.297646,64.839079 C 43.297613,62.6868 42.689907,60.686436 41.474527,58.83798 C 40.259084,56.964239 38.448628,55.546259 36.043152,54.584036 C 34.397257,53.925711 32.510838,53.20406 30.383888,52.419083 C 28.256898,51.608833 26.421121,50.849201 24.87655,50.140185 C 21.838007,48.772873 19.470487,46.987738 17.773983,44.784773 C 16.102785,42.556551 15.26719,39.657289 15.267195,36.086978 C 15.26719,34.036011 15.684988,32.124271 16.520589,30.35175 C 17.356178,28.579321 18.546268,26.996754 20.090863,25.604045 C 21.559475,24.2874 23.293969,23.261897 25.294348,22.527532 C 27.294697,21.767954 29.383686,21.388138 31.561319,21.388083 C 34.042762,21.388138 36.258356,21.767954 38.208106,22.527532 C 40.183121,23.287218 41.980917,24.173455 43.601499,25.186247 L 45.158746,22.603495 L 48.197277,22.603495 L 48.501131,40.492848 L 45.424618,40.492848 C 44.867519,38.441877 44.234492,36.479494 43.525536,34.605694 C 42.841833,32.731976 41.942935,31.035465 40.828839,29.516154 C 39.740003,28.047579 38.410646,26.88281 36.840767,26.021843 C 35.270834,25.135656 33.346433,24.692537 31.067558,24.692485 C 28.662035,24.692537 26.611029,25.46483 24.914532,27.009365 C 23.218005,28.554 22.36975,30.44042 22.369762,32.66863 C 22.36975,34.998212 22.914153,36.935274 24.002972,38.479821 C 25.091764,39.999123 26.674331,41.252516 28.750677,42.240003 C 30.599097,43.126275 32.409553,43.898568 34.182052,44.556883 C 35.979824,45.189942 37.714317,45.873611 39.385537,46.607892 C 40.904772,47.26627 42.360733,48.013241 43.753425,48.848809 C 45.171372,49.684432 46.399444,50.659293 47.437645,51.773395 M 93.015614,57.394678 C 93.015575,60.028088 92.597777,62.623498 91.76222,65.180914 C 90.926587,67.713032 89.736497,69.865323 88.191946,71.637793 C 86.444758,73.663483 84.419072,75.170087 82.114883,76.157608 C 79.810638,77.14513 77.227889,77.638891 74.366629,77.638892 C 71.986428,77.638891 69.720192,77.195772 67.567915,76.309535 C 65.41561,75.397977 63.50387,74.081281 61.832687,72.359444 C 60.18681,70.662937 58.870114,68.59927 57.882597,66.168437 C 56.920392,63.712304 56.439292,60.964968 56.439294,57.926421 C 56.439292,52.077273 58.135803,47.291591 61.528834,43.569361 C 64.947171,39.847197 69.416339,37.986098 74.936353,37.98606 C 80.177793,37.986098 84.495036,39.758573 87.888093,43.303489 C 91.306403,46.823151 93.015575,51.520209 93.015614,57.394678 M 85.153415,57.470641 C 85.153383,55.57158 84.963475,53.571216 84.58369,51.469542 C 84.203843,49.342597 83.634119,47.544801 82.874516,46.076149 C 82.064213,44.506273 81.000728,43.25288 79.684058,42.315967 C 78.367337,41.3538 76.759449,40.8727 74.86039,40.872664 C 72.910647,40.8727 71.239456,41.3538 69.846814,42.315967 C 68.47946,43.278201 67.365333,44.594897 66.504429,46.266057 C 65.694142,47.810673 65.124418,49.570487 64.795255,51.545505 C 64.46607,53.520574 64.301483,55.432314 64.301494,57.280733 C 64.301483,59.711575 64.491391,61.96515 64.871219,64.041465 C 65.276345,66.092484 65.909371,67.928261 66.770301,69.548803 C 67.631204,71.169358 68.707349,72.448072 69.99874,73.384949 C 71.315419,74.29651 72.935968,74.752289 74.86039,74.752288 C 78.025503,74.752289 80.532288,73.220365 82.380755,70.156509 C 84.229164,67.092666 85.153383,62.864048 85.153415,57.470641 M 115.9945,76.499443 L 97.725335,76.499443 L 97.725335,73.992655 C 98.307717,73.942015 98.928084,73.891373 99.586435,73.840728 C 100.24478,73.764768 100.78918,73.663483 101.21965,73.536875 C 101.92863,73.308988 102.46037,72.916512 102.81487,72.359444 C 103.16936,71.777064 103.34661,71.030092 103.34662,70.118527 L 103.34662,26.743494 C 103.34661,25.831985 103.14404,24.983729 102.73891,24.198724 C 102.35909,23.388502 101.85267,22.755475 101.21965,22.299642 C 100.76386,21.995843 99.928266,21.717312 98.712858,21.464046 C 97.497443,21.21089 96.522582,21.058964 95.788271,21.008266 L 95.788271,18.577441 L 109.87946,17.703863 L 110.4112,18.273588 L 110.4112,69.662748 C 110.41119,70.548992 110.57578,71.283303 110.90496,71.865683 C 111.23412,72.422751 111.76587,72.853209 112.50019,73.157059 C 113.05724,73.410273 113.60164,73.600181 114.1334,73.726783 C 114.69045,73.853391 115.31081,73.942015 115.9945,73.992655 L 115.9945,76.499443 M 184.77926,76.499443 L 166.51009,76.499443 L 166.51009,73.992655 C 167.09243,73.942015 167.67481,73.891373 168.25725,73.840728 C 168.8649,73.790089 169.39664,73.688804 169.85247,73.536875 C 170.56141,73.308988 171.08049,72.916512 171.40972,72.359444 C 171.76416,71.777064 171.94141,71.030092 171.94146,70.118527 L 171.94146,50.785872 C 171.94141,48.152507 171.3337,46.126822 170.11835,44.70881 C 168.9282,43.265541 167.43426,42.54389 165.63651,42.543856 C 164.39573,42.54389 163.23096,42.733798 162.1422,43.113581 C 161.05335,43.49343 160.05317,44.025173 159.14165,44.70881 C 158.4073,45.265905 157.78693,45.873611 157.28055,46.531929 C 156.79941,47.164985 156.43226,47.696728 156.17908,48.127158 L 156.17908,69.738711 C 156.17905,70.624955 156.33097,71.359266 156.63486,71.941646 C 156.93868,72.498714 157.45776,72.929172 158.19211,73.233022 C 158.77445,73.460915 159.29354,73.638162 159.74936,73.764765 C 160.23042,73.866052 160.85078,73.942015 161.61046,73.992655 L 161.61046,76.499443 L 143.72111,76.499443 L 143.72111,73.992655 C 144.30346,73.942015 144.86053,73.891373 145.3923,73.840728 C 145.94933,73.790089 146.45576,73.688804 146.91156,73.536875 C 147.62052,73.308988 148.13961,72.916512 148.46881,72.359444 C 148.82327,71.777064 149.00052,71.030092 149.00055,70.118527 L 149.00055,50.785872 C 149.00052,48.152507 148.39282,46.126822 147.17743,44.70881 C 145.98732,43.265541 144.49337,42.54389 142.6956,42.543856 C 141.45484,42.54389 140.29007,42.746459 139.20129,43.151563 C 138.11246,43.531412 137.11228,44.063154 136.20074,44.746792 C 135.46641,45.303887 134.84605,45.936914 134.33964,46.645874 C 133.8332,47.329572 133.45339,47.848654 133.20019,48.203121 L 133.20019,69.662748 C 133.20018,70.523671 133.37742,71.245321 133.73193,71.827701 C 134.08641,72.410091 134.61816,72.853209 135.32716,73.157059 C 135.85889,73.410273 136.40329,73.600181 136.96037,73.726783 C 137.51742,73.853391 138.13778,73.942015 138.82147,73.992655 L 138.82147,76.499443 L 120.62827,76.499443 L 120.62827,73.992655 C 121.21065,73.942015 121.8057,73.891373 122.41341,73.840728 C 123.04643,73.790089 123.59083,73.688804 124.04662,73.536875 C 124.7556,73.308988 125.27468,72.916512 125.60386,72.359444 C 125.95835,71.777064 126.1356,71.030092 126.13561,70.118527 L 126.13561,46.835782 C 126.1356,46.025537 125.94569,45.303887 125.56588,44.670828 C 125.21138,44.012512 124.70496,43.455449 124.04662,42.999636 C 123.56551,42.695817 122.97046,42.455267 122.26148,42.277985 C 121.55248,42.075451 120.81817,41.948845 120.05854,41.898169 L 120.05854,39.429362 L 132.59248,38.593766 L 133.12423,39.125509 L 133.12423,44.48092 L 133.3901,44.48092 C 134.02311,43.847925 134.7954,43.100954 135.70698,42.240003 C 136.61852,41.379121 137.46678,40.682792 138.25175,40.151013 C 139.13797,39.543344 140.23943,39.036922 141.55615,38.631747 C 142.89814,38.226648 144.34145,38.02408 145.88606,38.024041 C 148.31685,38.02408 150.40584,38.682427 152.15303,39.999086 C 153.90015,41.290497 155.15354,42.860404 155.91321,44.70881 C 156.82473,43.822604 157.62235,43.050312 158.30606,42.39193 C 159.01501,41.708295 159.93922,40.986645 161.07872,40.226976 C 162.04087,39.568665 163.16766,39.036922 164.45908,38.631747 C 165.77573,38.226648 167.23169,38.02408 168.82697,38.024041 C 171.99205,38.02408 174.49884,39.062243 176.34733,41.138536 C 178.19571,43.214899 179.11993,46.405353 179.11999,50.709909 L 179.11999,69.738711 C 179.11993,70.624955 179.27186,71.359266 179.57577,71.941646 C 179.87957,72.498714 180.39865,72.929172 181.13302,73.233022 C 181.71534,73.460915 182.28507,73.638162 182.8422,73.764765 C 183.42451,73.866052 184.0702,73.942015 184.77926,73.992655 L 184.77926,76.499443 M 213.8732,58.154311 C 214.91134,59.065887 215.70895,60.116712 216.26604,61.306787 C 216.82308,62.496892 217.10161,63.952854 217.10164,65.674675 C 217.10161,69.143673 215.79757,71.979632 213.18953,74.182563 C 210.60675,76.385498 207.25171,77.486965 203.12439,77.486966 C 200.94677,77.486965 198.93374,77.094488 197.08531,76.309535 C 195.26219,75.524582 193.95815,74.802931 193.1732,74.144581 L 192.41357,76.613388 L 189.56495,76.613388 L 189.18513,63.585685 L 191.80587,63.585685 C 192.00843,64.57322 192.43889,65.725328 193.09724,67.042015 C 193.75558,68.35872 194.5532,69.54881 195.49008,70.612289 C 196.4776,71.726422 197.65503,72.663301 199.02238,73.42293 C 200.41502,74.182565 201.97227,74.562381 203.69412,74.562379 C 206.12492,74.562381 207.99868,74.017978 209.3154,72.929169 C 210.63207,71.815045 211.29042,70.232479 211.29045,68.181464 C 211.29042,67.117987 211.07519,66.206429 210.64476,65.446786 C 210.2396,64.661844 209.63189,63.978175 208.82164,63.395777 C 207.98602,62.813406 206.96052,62.294324 205.74513,61.83853 C 204.5297,61.357444 203.17502,60.889004 201.68109,60.433209 C 200.49099,60.07873 199.16163,59.59763 197.69302,58.989907 C 196.24971,58.356898 195.00898,57.622587 193.97082,56.786972 C 192.85668,55.900754 191.94513,54.811948 191.23614,53.520551 C 190.52715,52.229199 190.17265,50.709935 190.17266,48.962754 C 190.17265,45.898932 191.3121,43.303522 193.591,41.176517 C 195.86989,39.049583 198.92108,37.986098 202.74458,37.98606 C 204.21318,37.986098 205.70713,38.176006 207.22641,38.555784 C 208.77098,38.935638 210.02437,39.391417 210.98659,39.923123 L 211.86017,37.948078 L 214.59485,37.948078 L 215.16457,49.988258 L 212.54384,49.988258 C 212.01207,47.304251 210.85996,45.126639 209.08751,43.455416 C 207.34034,41.758937 205.20071,40.910681 202.66861,40.910646 C 200.59227,40.910681 198.95906,41.429763 197.76898,42.467893 C 196.57888,43.506091 195.98384,44.759484 195.98385,46.228076 C 195.98384,47.367554 196.17374,48.317094 196.55357,49.076699 C 196.9587,49.836358 197.55374,50.482045 198.33871,51.013762 C 199.09833,51.520209 200.04787,52.001309 201.18733,52.457065 C 202.35209,52.887547 203.78273,53.381308 205.47926,53.938349 C 207.15043,54.470114 208.72033,55.09048 210.18898,55.799449 C 211.6829,56.50846 212.91097,57.293413 213.8732,58.154311"
       style="font-size:77.78639984px;font-style:normal;font-variant:normal;font-weight:normal;font-stretch:normal;text-align:start;line-height:100%;writing-mode:lr-tb;text-anchor:start;fill:#019a8c;fill-opacity:1;stroke:#008879;stroke-width:1.90011525;stroke-linecap:butt;stroke-linejoin:miter;stroke-dashoffset:0;stroke-opacity:1;font-family:Georgia;-inkscape-font-specification:Georgia"
       transform="scale(0.9413329,1.0623235)" />
  </g>
  <path
     sodipodi:type="arc"
     style="fill:#ffffff;fill-opacity:0.57857145;stroke:#008879;stroke-width:3.91700006;stroke-miterlimit:4;stroke-dasharray:none;stroke-opacity:0.52857145"
     id="path3818"
     sodipodi:cx="15.284728"
     sodipodi:cy="82.22023"
     sodipodi:rx="16.903111"
     sodipodi:ry="15.914099"
     d="M 32.187839,82.22023 A 16.903111,15.914099 0 1 1 -1.6183825,82.22023 A 16.903111,15.914099 0 1 1 32.187839,82.22023 z"
     transform="matrix(0.1810469,0,0,0.1810469,16.918979,107.08228)" />
  <text
     xml:space="preserve"
     style="font-size:8.93358421px;font-style:normal;font-variant:normal;font-weight:normal;font-stretch:normal;text-align:start;line-height:125%;writing-mode:lr-tb;text-anchor:start;fill:#004554;fill-opacity:1;stroke:none;stroke-width:1px;stroke-linecap:butt;stroke-linejoin:miter;stroke-opacity:1;font-family:Bitstream Vera Sans;-inkscape-font-specification:Bitstream Vera Sans"
     x="35.410149"
     y="124.56036"
     id="text3824"
     sodipodi:linespacing="125%"><tspan
       sodipodi:role="line"
       id="tspan3826"
       x="35.410149"
       y="124.56036">Business process design</tspan></text>
  <path
     sodipodi:type="arc"
     style="fill:#ffffff;fill-opacity:0.57857145;stroke:#008879;stroke-width:3.91700006;stroke-miterlimit:4;stroke-dasharray:none;stroke-opacity:0.52857145"
     id="path3828"
     sodipodi:cx="15.284728"
     sodipodi:cy="82.22023"
     sodipodi:rx="16.903111"
     sodipodi:ry="15.914099"
     d="M 32.187839,82.22023 A 16.903111,15.914099 0 1 1 -1.6183825,82.22023 A 16.903111,15.914099 0 1 1 32.187839,82.22023 z"
     transform="matrix(0.1810469,0,0,0.1810469,17.397297,121.7567)" />
  <text
     xml:space="preserve"
     style="font-size:8.93358421px;font-style:normal;font-variant:normal;font-weight:normal;font-stretch:normal;text-align:start;line-height:125%;writing-mode:lr-tb;text-anchor:start;fill:#004554;fill-opacity:1;stroke:none;stroke-width:1px;stroke-linecap:butt;stroke-linejoin:miter;stroke-opacity:1;font-family:Bitstream Vera Sans;-inkscape-font-specification:Bitstream Vera Sans"
     x="35.888466"
     y="139.23479"
     id="text3830"
     sodipodi:linespacing="125%"><tspan
       sodipodi:role="line"
       id="tspan3832"
       x="35.888466"
       y="139.23479">Architecture</tspan></text>
  <path
     sodipodi:type="arc"
     style="fill:#ffffff;fill-opacity:0.57857145;stroke:#008879;stroke-width:3.91700006;stroke-miterlimit:4;stroke-dasharray:none;stroke-opacity:0.52857145"
     id="path3834"
     sodipodi:cx="15.284728"
     sodipodi:cy="82.22023"
     sodipodi:rx="16.903111"
     sodipodi:ry="15.914099"
     d="M 32.187839,82.22023 A 16.903111,15.914099 0 1 1 -1.6183825,82.22023 A 16.903111,15.914099 0 1 1 32.187839,82.22023 z"
     transform="matrix(0.1810469,0,0,0.1810469,16.972136,135.81432)" />
  <text
     xml:space="preserve"
     style="font-size:8.93358421px;font-style:normal;font-variant:normal;font-weight:normal;font-stretch:normal;text-align:start;line-height:125%;writing-mode:lr-tb;text-anchor:start;fill:#004554;fill-opacity:1;stroke:none;stroke-width:1px;stroke-linecap:butt;stroke-linejoin:miter;stroke-opacity:1;font-family:Bitstream Vera Sans;-inkscape-font-specification:Bitstream Vera Sans"
     x="35.463306"
     y="153.29242"
     id="text3836"
     sodipodi:linespacing="125%"><tspan
       sodipodi:role="line"
       x="35.463306"
       y="153.29242"
       id="tspan3840">Implementation</tspan></text>
  <text
     xml:space="preserve"
     style="font-size:40px;font-style:normal;font-weight:normal;fill:#000000;fill-opacity:1;stroke:none;stroke-width:1px;stroke-linecap:butt;stroke-linejoin:miter;stroke-opacity:1;font-family:Bitstream Vera Sans"
     x="32.596344"
     y="-48.576481"
     id="text3844"><tspan
       sodipodi:role="line"
       id="tspan3846"
       x="32.596344"
       y="-48.576481" /></text>
  <rect
     style="fill:url(#linearGradient4088);fill-opacity:1;stroke:none;stroke-width:3.91700006;stroke-miterlimit:4;stroke-dasharray:none;stroke-opacity:1"
     id="rect4080"
     width="161.65036"
     height="13.865609"
     x="0.36846542"
     y="93.030968" />
  <g
     id="g4070"
     transform="matrix(0.57017,0,0,0.57017,-6.2572314,83.971942)">
    <text
       sodipodi:linespacing="125%"
       id="text2936"
       y="32.873772"
       x="24.972692"
       style="font-size:15.42510891px;font-style:normal;font-variant:normal;font-weight:normal;font-stretch:normal;text-align:start;line-height:125%;writing-mode:lr-tb;text-anchor:start;fill:#000000;fill-opacity:1;stroke:none;stroke-width:1px;stroke-linecap:butt;stroke-linejoin:miter;stroke-opacity:1;font-family:STFangsong;-inkscape-font-specification:STFangsong"
       xml:space="preserve"><tspan
         y="32.873772"
         x="24.972692"
         id="tspan2938"
         sodipodi:role="line">Training</tspan></text>
    <text
       sodipodi:linespacing="125%"
       id="text5924"
       y="32.77351"
       x="103.39103"
       style="font-size:15.42510891px;font-style:normal;font-variant:normal;font-weight:normal;font-stretch:normal;text-align:start;line-height:125%;writing-mode:lr-tb;text-anchor:start;fill:#000000;fill-opacity:1;stroke:none;stroke-width:1px;stroke-linecap:butt;stroke-linejoin:miter;stroke-opacity:1;font-family:STFangsong;-inkscape-font-specification:STFangsong"
       xml:space="preserve"><tspan
         y="32.77351"
         x="103.39103"
         id="tspan5926"
         sodipodi:role="line">Consulting</tspan></text>
    <text
       sodipodi:linespacing="125%"
       id="text5928"
       y="32.77351"
       x="196.20631"
       style="font-size:15.42510891px;font-style:normal;font-variant:normal;font-weight:normal;font-stretch:normal;text-align:start;line-height:125%;writing-mode:lr-tb;text-anchor:start;fill:#000000;fill-opacity:1;stroke:none;stroke-width:1px;stroke-linecap:butt;stroke-linejoin:miter;stroke-opacity:1;font-family:STFangsong;-inkscape-font-specification:STFangsong"
       xml:space="preserve"><tspan
         y="32.77351"
         x="196.20631"
         id="tspan5930"
         sodipodi:role="line">Development</tspan></text>
    <path
       transform="matrix(2.1983432e-2,0,0,2.1983432e-2,1.9942379,34.083857)"
       d="M 4128.4524,-266.43304 A 87.573235,87.573235 0 1 1 3953.3059,-266.43304 A 87.573235,87.573235 0 1 1 4128.4524,-266.43304 z"
       sodipodi:ry="87.573235"
       sodipodi:rx="87.573235"
       sodipodi:cy="-266.43304"
       sodipodi:cx="4040.8792"
       id="path5936"
       style="fill:#019a8c;fill-opacity:1;stroke:#e6e3de;stroke-width:0.704;stroke-miterlimit:4;stroke-dasharray:none;stroke-opacity:1"
       sodipodi:type="arc" />
    <path
       transform="matrix(2.1983432e-2,0,0,2.1983432e-2,93.848168,34.083857)"
       d="M 4128.4524,-266.43304 A 87.573235,87.573235 0 1 1 3953.3059,-266.43304 A 87.573235,87.573235 0 1 1 4128.4524,-266.43304 z"
       sodipodi:ry="87.573235"
       sodipodi:rx="87.573235"
       sodipodi:cy="-266.43304"
       sodipodi:cx="4040.8792"
       id="path5938"
       style="fill:#019a8c;fill-opacity:1;stroke:#e6e3de;stroke-width:0.704;stroke-miterlimit:4;stroke-dasharray:none;stroke-opacity:1"
       sodipodi:type="arc" />
  </g>
  <path
     id="path738"
     d="M -9.3796698,12.48516 L -9.3796698,-9.502237 L 328.07996,-9.502237 L 328.07996,12.48516 L -9.3796698,12.48516 z"
     style="font-size:12px;fill:#81b1ab;fill-opacity:1;fill-rule:evenodd" />
  <text
     sodipodi:linespacing="100%"
     id="text3281"
     y="173.18956"
     x="105.69497"
     style="font-size:10.09582043px;font-style:normal;font-variant:normal;font-weight:normal;font-stretch:normal;text-align:start;line-height:100%;writing-mode:lr-tb;text-anchor:start;fill:#ffffff;fill-opacity:1;stroke:none;stroke-width:1pt;stroke-linecap:butt;stroke-linejoin:miter;stroke-opacity:1;font-family:STFangsong;-inkscape-font-specification:STFangsong">
    <tspan
       id="tspan3283"
       sodipodi:role="line"
       y="173.18956"
       x="105.69497">Open and Non-proprietary</tspan>
  </text>
  <g
     inkscape:groupmode="layer"
     id="layer1"
     inkscape:label="bleedingMarks">
    <path
       style="fill:none;fill-opacity:0.22222223999999999;stroke:#000000;stroke-width:0.54566932000000001;stroke-miterlimit:4;stroke-dasharray:0.54566928999999997, 0.54566928999999997;stroke-dashoffset:0;stroke-opacity:0.22962964000000000"
       d="M 0.0073785782,-9.3706627 L 0.0073785782,0.0034570694 L -9.3667421,0.0034570694"
       id="rect3263"
       sodipodi:nodetypes="ccc" />
    <path
       style="fill:none;fill-opacity:0.22222223999999999;stroke:#000000;stroke-width:0.54566932000000001;stroke-miterlimit:4;stroke-dasharray:0.54566928999999997, 0.54566928999999997;stroke-dashoffset:0;stroke-opacity:0.22962964000000000"
       d="M -9.5212202,177.07074 L -0.14709949,177.07074 L -0.14709949,186.44486"
       id="rect4035"
       sodipodi:nodetypes="ccc" />
    <path
       style="fill:none;fill-opacity:0.22222223999999999;stroke:#000000;stroke-width:0.54566932000000001;stroke-miterlimit:4;stroke-dasharray:0.54566928999999997, 0.54566928999999997;stroke-dashoffset:0;stroke-opacity:0.22962964000000000"
       d="M 318.95993,186.20315 L 318.95993,176.82903 L 328.33405,176.82903"
       id="rect4037"
       sodipodi:nodetypes="ccc" />
    <path
       style="fill:none;fill-opacity:0.22222223999999999;stroke:#000000;stroke-width:0.54566932000000001;stroke-miterlimit:4;stroke-dasharray:0.54566928999999997, 0.54566928999999997;stroke-dashoffset:0;stroke-opacity:0.22962964000000000"
       d="M 328.09232,0.088000298 L 318.7182,0.088000298 L 318.7182,-9.2861195"
       id="rect4039"
       sodipodi:nodetypes="ccc" />
  </g>
  <text
     sodipodi:linespacing="100%"
     id="text4701"
     y="41.557724"
     x="174.22224"
     style="font-size:8.54298401px;font-style:normal;font-weight:normal;line-height:100%;writing-mode:lr-tb;text-anchor:start;fill:#789793;fill-opacity:1;stroke:none;stroke-width:1pt;stroke-linecap:butt;stroke-linejoin:miter;stroke-opacity:1;font-family:Helvetica">
    <tspan
       id="tspan4703"
       sodipodi:role="line"
       y="41.557724"
       x="174.22224">Director</tspan>
  </text>
  <text
     sodipodi:linespacing="100%"
     id="text4705"
     y="31.167629"
     x="173.62802"
     style="font-size:14.95022202px;font-style:normal;font-variant:normal;font-weight:normal;font-stretch:normal;line-height:100%;writing-mode:lr-tb;text-anchor:start;fill:#000000;fill-opacity:1;stroke:none;stroke-width:1pt;stroke-linecap:butt;stroke-linejoin:miter;stroke-opacity:1;font-family:Futura">
    <tspan
       id="tspan4707"
       sodipodi:role="line"
       y="31.167629"
       x="173.62802">Dawid Loubser</tspan>
  </text>
</svg>
