<?xml version="1.0" encoding="UTF-8" standalone="no"?>
<!-- Created with Inkscape (http://www.inkscape.org/) -->

<svg
   xmlns:dc="http://purl.org/dc/elements/1.1/"
   xmlns:cc="http://creativecommons.org/ns#"
   xmlns:rdf="http://www.w3.org/1999/02/22-rdf-syntax-ns#"
   xmlns:svg="http://www.w3.org/2000/svg"
   xmlns="http://www.w3.org/2000/svg"
   xmlns:sodipodi="http://sodipodi.sourceforge.net/DTD/sodipodi-0.dtd"
   xmlns:inkscape="http://www.inkscape.org/namespaces/inkscape"
   width="744.09448"
   height="1052.3622"
   id="svg2480"
   sodipodi:version="0.32"
   inkscape:version="0.47pre4 r22446"
   version="1.0"
   sodipodi:docname="coversheet.svg"
   inkscape:output_extension="org.inkscape.output.svg.inkscape">
  <defs
     id="defs2482">
    <inkscape:perspective
       sodipodi:type="inkscape:persp3d"
       inkscape:vp_x="0 : 400 : 1"
       inkscape:vp_y="0 : 1000 : 0"
       inkscape:vp_z="800 : 400 : 1"
       inkscape:persp3d-origin="400 : 266.66667 : 1"
       id="perspective3249" />
  </defs>
  <sodipodi:namedview
     id="base"
     pagecolor="#ffffff"
     bordercolor="#666666"
     borderopacity="1.0"
     gridtolerance="10000"
     guidetolerance="10"
     objecttolerance="10"
     inkscape:pageopacity="1"
     inkscape:pageshadow="2"
     inkscape:zoom="0.80229368"
     inkscape:cx="319.51715"
     inkscape:cy="526.18661"
     inkscape:document-units="px"
     inkscape:current-layer="layer1"
     width="800px"
     height="800px"
     inkscape:window-width="1920"
     inkscape:window-height="1092"
     inkscape:window-x="0"
     inkscape:window-y="22"
     showgrid="false"
     inkscape:window-maximized="1" />
  <metadata
     id="metadata2485">
    <rdf:RDF>
      <cc:Work
         rdf:about="">
        <dc:format>image/svg+xml</dc:format>
        <dc:type
           rdf:resource="http://purl.org/dc/dcmitype/StillImage" />
        <dc:title></dc:title>
      </cc:Work>
    </rdf:RDF>
  </metadata>
  <g
     inkscape:label="Layer 1"
     inkscape:groupmode="layer"
     id="layer1">
    <rect
       id="rect3271"
       width="43.043083"
       height="1051.8362"
       x="52.262615"
       y="0.18363991"
       style="fill:#f4f5e6;fill-opacity:1" />
    <path
       style="font-size:12px;fill:#8bb1ab;fill-rule:evenodd"
       d="M 0.21116482,1052.1675 L 0.21116482,0.21156514 L 52.454815,0.21156514 L 52.454815,1052.1675 L 0.21116482,1052.1675 z"
       id="path3222" />
    <path
       id="path669"
       style="font-size:12px;fill:none;fill-rule:evenodd;stroke:#d1d1d7;stroke-width:0.78800000000000003;stroke-opacity:0.60500002;stroke-miterlimit:4;stroke-dasharray:none"
       d="M 11.804228,1046.9762 L 11.804228,6.3081692M 27.416585,1046.9762 L 27.416585,6.3081692M 43.028625,1046.9762 L 43.028625,6.3081692M 58.639746,1046.9762 L 58.639746,6.3081692M 74.252397,1046.9762 L 74.252397,6.3081692M 89.865036,1046.9762 L 89.865036,6.3081692" />
    <path
       id="path623"
       style="font-size:12px;fill:none;fill-rule:evenodd;stroke:#d1d1d7;stroke-width:0.70399999999999996;stroke-opacity:0.60500002;stroke-miterlimit:4;stroke-dasharray:none"
       d="M 2.9278998,10.590514 L 99.903046,10.590514 M 2.9278998,22.997027 L 99.903046,22.997027 M 2.9278998,35.403607 L 99.903046,35.403607 M 2.9278998,47.810187 L 99.903046,47.810187 M 2.9278998,60.216727 L 99.903046,60.216727 M 2.9278998,72.62328 L 99.903046,72.62328 M 2.9278998,85.02982 L 99.903046,85.02982 M 2.9278959,97.52797 L 99.90305,97.52797 M 2.9278959,109.93449 L 99.90305,109.93449 M 2.9278959,122.34107 L 99.90305,122.34107 M 2.9278959,134.74765 L 99.90305,134.74765 M 2.9278959,147.15419 L 99.90305,147.15419 M 2.9278959,159.56075 L 99.90305,159.56075 M 2.9278959,171.96729 L 99.90305,171.96729 M 2.9278965,184.93923 L 99.903045,184.93923 M 2.9278965,197.34574 L 99.903045,197.34574 M 2.9278965,209.75232 L 99.903045,209.75232 M 2.9278965,222.1589 L 99.903045,222.1589 M 2.9278965,234.56544 L 99.903045,234.56544 M 2.9278965,246.97199 L 99.903045,246.97199 M 2.9278965,259.37853 L 99.903045,259.37853 M 2.9278965,271.87668 L 99.903049,271.87668 M 2.9278965,284.2832 L 99.903049,284.2832 M 2.9278965,296.68979 L 99.903049,296.68979 M 2.9278965,309.09637 L 99.903049,309.09637 M 2.9278965,321.50291 L 99.903049,321.50291 M 2.9278965,333.90947 L 99.903049,333.90947 M 2.9278965,346.31601 L 99.903049,346.31601 M 2.9278999,359.09372 L 99.903046,359.09372 M 2.9278999,371.50023 L 99.903046,371.50023 M 2.9278999,383.90681 L 99.903046,383.90681 M 2.9278999,396.31339 L 99.903046,396.31339 M 2.9278999,408.71993 L 99.903046,408.71993 M 2.9278999,421.12649 L 99.903046,421.12649 M 2.9278999,433.53303 L 99.903046,433.53303 M 2.9278959,446.03118 L 99.90305,446.03118 M 2.9278959,458.4377 L 99.90305,458.4377 M 2.9278959,470.84428 L 99.90305,470.84428 M 2.9278959,483.25086 L 99.90305,483.25086 M 2.9278959,495.6574 L 99.90305,495.6574 M 2.9278959,508.06396 L 99.90305,508.06396 M 2.9278959,520.4705 L 99.90305,520.4705 M 2.9278959,533.44244 L 99.903045,533.44244 M 2.9278959,545.84895 L 99.903045,545.84895 M 2.9278959,558.25553 L 99.903045,558.25553 M 2.9278959,570.66211 L 99.903045,570.66211 M 2.9278959,583.06865 L 99.903045,583.06865 M 2.9278959,595.4752 L 99.903045,595.4752 M 2.9278959,607.88174 L 99.903045,607.88174 M 2.9278959,620.37989 L 99.903049,620.37989 M 2.9278959,632.78641 L 99.903049,632.78641 M 2.9278959,645.193 L 99.903049,645.193 M 2.9278959,657.59958 L 99.903049,657.59958 M 2.9278959,670.00612 L 99.903049,670.00612 M 2.9278959,682.41268 L 99.903049,682.41268 M 2.9278959,694.81922 L 99.903049,694.81922 M 2.9278999,707.01638 L 99.90305,707.01638 M 2.9278999,719.42289 L 99.90305,719.42289 M 2.9278999,731.82947 L 99.90305,731.82947 M 2.9278999,744.23605 L 99.90305,744.23605 M 2.9278999,756.64259 L 99.90305,756.64259 M 2.9278999,769.04915 L 99.90305,769.04915 M 2.9278999,781.45569 L 99.90305,781.45569 M 2.9278959,793.95384 L 99.90305,793.95384 M 2.9278959,806.36036 L 99.90305,806.36036 M 2.9278959,818.76694 L 99.90305,818.76694 M 2.9278959,831.17352 L 99.90305,831.17352 M 2.9278959,843.58006 L 99.90305,843.58006 M 2.9278959,855.98662 L 99.90305,855.98662 M 2.9278959,868.39316 L 99.90305,868.39316 M 2.9278959,881.3651 L 99.90304,881.3651 M 2.9278959,893.77161 L 99.90304,893.77161 M 2.9278959,906.17819 L 99.90304,906.17819 M 2.9278959,918.58477 L 99.90304,918.58477 M 2.9278959,930.99131 L 99.90304,930.99131 M 2.9278959,943.39786 L 99.90304,943.39786 M 2.9278959,955.8044 L 99.90304,955.8044 M 2.9278959,968.30255 L 99.90305,968.30255 M 2.9278959,980.70905 L 99.90305,980.70905 M 2.9278959,993.11565 L 99.90305,993.11565 M 2.9278959,1005.5223 L 99.90305,1005.5223 M 2.9278959,1017.9288 L 99.90305,1017.9288 M 2.9278959,1030.3354 L 99.90305,1030.3354 M 2.9278959,1042.7419 L 99.90305,1042.7419" />
    <text
       xml:space="preserve"
       style="font-size:46.89618301px;font-style:normal;font-variant:normal;font-weight:normal;font-stretch:normal;text-align:center;line-height:125%;writing-mode:lr-tb;text-anchor:middle;fill:#000000;fill-opacity:1;stroke:none;font-family:STFangsong;-inkscape-font-specification:STFangsong"
       x="391.11005"
       y="425.85806"
       id="text4091"
       sodipodi:linespacing="125%"><tspan
         sodipodi:role="line"
         id="tspan4093"
         x="391.11005"
         y="425.85806">Designing and Implementing</tspan><tspan
         sodipodi:role="line"
         x="391.11005"
         y="484.4783"
         id="tspan3359">SOA-based solutions</tspan></text>
    <text
       xml:space="preserve"
       style="font-size:22px;font-style:normal;font-variant:normal;font-weight:normal;font-stretch:normal;text-align:center;line-height:125%;writing-mode:lr-tb;text-anchor:middle;fill:#000000;fill-opacity:1;stroke:none;font-family:STFangsong;-inkscape-font-specification:STFangsong"
       x="391.79114"
       y="534.10211"
       id="text4096"
       sodipodi:linespacing="125%"><tspan
         sodipodi:role="line"
         x="391.79114"
         y="534.10211"
         id="tspan4104">Services-oriented software development with</tspan><tspan
         sodipodi:role="line"
         x="391.79114"
         y="561.60211"
         id="tspan3361">Web Services, JBI, WS-BPEL and URDAD</tspan></text>
    <text
       xml:space="preserve"
       style="font-size:18px;font-style:normal;font-variant:normal;font-weight:normal;font-stretch:normal;text-align:center;line-height:125%;writing-mode:lr-tb;text-anchor:middle;fill:#387d7b;fill-opacity:1;stroke:none;font-family:STFangsong;-inkscape-font-specification:STFangsong"
       x="392.0885"
       y="260.4201"
       id="text4108"
       sodipodi:linespacing="125%"><tspan
         sodipodi:role="line"
         x="392.0885"
         y="260.4201"
         id="tspan4110">www.solms.co.za</tspan></text>
    <text
       xml:space="preserve"
       style="font-size:18px;font-style:normal;font-variant:normal;font-weight:normal;font-stretch:normal;text-align:center;line-height:125%;writing-mode:lr-tb;text-anchor:middle;fill:#387d7b;fill-opacity:1;stroke:none;font-family:STFangsong;-inkscape-font-specification:STFangsong"
       x="392.37448"
       y="971.87299"
       id="text4112"
       sodipodi:linespacing="125%"><tspan
         sodipodi:role="line"
         x="392.37448"
         y="971.87299"
         id="tspan4114">December 2009</tspan></text>
    <text
       xml:space="preserve"
       style="font-size:20px;font-style:normal;font-variant:normal;font-weight:normal;font-stretch:normal;text-align:center;line-height:125%;writing-mode:lr-tb;text-anchor:middle;fill:#000000;fill-opacity:1;stroke:none;font-family:STFangsong;-inkscape-font-specification:STFangsong"
       x="392.0885"
       y="943.0238"
       id="text4116"
       sodipodi:linespacing="125%"><tspan
         sodipodi:role="line"
         x="392.0885"
         y="943.0238"
         id="tspan4118">Dawid Loubser and Dr. Fritz Solms</tspan></text>
    <g
       id="g3428"
       transform="matrix(1.2748749,0,0,1.2748749,261.53561,104.61233)">
      <path
         id="text592"
         d="m 87.580247,79.184374 c -1.120471,6.213039 -2.699186,12.782531 -4.736151,19.708496 -6.518652,2.54633 -15.990943,3.81948 -28.416901,3.81948 -15.990915,0 -28.671562,-4.379659 -38.04198,-13.139001 C 7.0147562,80.712193 2.3295371,69.050072 2.3295437,54.586949 2.3295371,45.725829 4.5193678,37.272064 8.8990423,29.225629 13.380543,21.179355 19.389846,14.864494 26.926969,10.281028 34.565882,5.5959084 42.815942,3.2532989 51.677173,3.2531927 c 8.861119,1.062e-4 15.481537,0.4075165 19.861275,1.2222323 4.379585,0.8149257 8.606468,2.4954934 12.68066,5.0417082 0.611027,4.8890238 0.865658,9.9307278 0.763895,15.1251248 l -2.902802,0 C 80.043063,18.734893 76.580075,14.253379 71.691227,11.197703 66.904079,8.0403706 61.098481,6.4616554 54.274416,6.4615525 43.579836,6.4616554 34.718661,10.892243 27.690864,19.753329 20.663003,28.512741 17.149089,40.174863 17.14911,54.739728 c -2.1e-5,14.463123 3.106483,25.514129 9.319522,33.153051 6.314829,7.638966 15.634341,11.458438 27.958563,11.458428 14.157452,1e-5 24.546416,-6.722261 31.166924,-20.166833 l 1.986128,0"
         style="font-size:152.77903748px;font-style:normal;font-variant:normal;font-weight:normal;font-stretch:normal;text-align:start;line-height:100%;writing-mode:lr-tb;text-anchor:start;fill:#c2c2b5;fill-opacity:1;stroke:none;font-family:STFangsong;-inkscape-font-specification:STFangsong"
         transform="scale(0.9971939,1.0028139)" />
      <path
         id="text606"
         d="m 119.75101,16.710314 c -10e-6,-2.47305 -0.30916,-4.224861 -0.92743,-5.255438 -0.6183,-1.030377 -1.80335,-1.7001874 -3.55515,-2.0094322 l -10.51087,-1.8548606 0,-2.4731475 c 6.59505,0.2062015 14.63277,0.05163 24.11318,-0.4637151 9.48037,-0.6181798 17.72418,-0.9273229 24.73148,-0.9274303 7.00719,1.074e-4 13.44767,0.5668698 19.32146,1.7002889 5.87365,1.1336305 11.3867,3.1945846 16.53918,6.1828688 5.25534,2.988483 9.53182,6.492105 12.82945,10.510877 3.40047,3.915901 6.02819,8.450001 7.88316,13.602311 1.85475,5.15246 2.78218,10.613989 2.78229,16.384601 -1.1e-4,9.686544 -2.67935,19.012362 -8.03773,27.977481 -5.35859,8.862134 -12.31431,14.735853 -20.86718,17.621176 -8.55304,2.885346 -16.84839,4.328016 -24.88605,4.328006 l -25.04062,-0.61829 -30.91434,0 0,-2.473142 12.05659,-2.62772 c 1.64875,-0.309128 2.78228,-0.978938 3.40058,-2.009432 0.72132,-1.03046 1.08199,-2.988367 1.082,-5.873725 l 0,-71.721277 m 12.67488,68.011556 c -3e-5,3.297553 1.75178,6.388984 5.25544,9.274303 3.60664,2.782305 8.75902,4.173449 15.45717,4.173436 11.85044,1.3e-5 22.20673,-3.864276 31.06892,-11.592879 8.96507,-7.831601 13.44764,-19.527516 13.44774,-35.087779 -1e-4,-13.602238 -4.63724,-24.3192 -13.91146,-32.150917 C 174.46933,11.5065 161.58836,7.5906868 145.10078,7.5905832 c -5.56462,1.036e-4 -9.06825,0.5668659 -10.51088,1.7002889 -1.4427,1.0305789 -2.16404,3.5037239 -2.16401,7.4194419 l 0,68.011556"
         style="font-size:154.57171631px;font-style:normal;font-variant:normal;font-weight:normal;font-stretch:normal;text-align:start;line-height:100%;writing-mode:lr-tb;text-anchor:start;fill:#c2c2b5;fill-opacity:1;stroke:none;font-family:STFangsong;-inkscape-font-specification:STFangsong"
         transform="scale(0.9856253,1.0145843)" />
      <g
         transform="matrix(0.8740719,0,0,0.8740719,3.0896379,0.713065)"
         id="g3149">
        <path
           id="path655"
           d="m 63.880026,5.8622642 97.996894,0 0.93158,27.9017578 -4.15011,0 c -2.0328,-8.766116 -4.6303,-14.458756 -7.79239,-17.07792 -3.10564,-2.67246 -9.68394,-4.008745 -19.73489,-4.008745 l -9.65567,0 0,84.025586 c 0,6.360787 1.04468,10.316237 3.13392,11.866247 2.08914,1.49671 6.6629,2.48549 13.72118,2.96666 l 0,2.96645 -50.565301,0 0,-2.96645 c 7.340464,-0.53458 11.914339,-1.68378 13.721181,-3.44762 1.80695,-1.76395 2.71037,-6.20047 2.71037,-13.309446 l 0,-82.101427 -9.655671,0 c -9.599235,0 -16.149259,1.309529 -19.650181,3.928693 -3.444484,2.619057 -6.041876,8.338453 -7.792391,17.157972 l -4.234816,0 1.016295,-27.9017578 z"
           style="font-size:150px;font-weight:normal;fill:none;stroke:#000000;stroke-width:5.4161973;stroke-linecap:round;stroke-linejoin:round;stroke-miterlimit:4;stroke-opacity:0.23921569;font-family:Times" />
        <path
           id="path612"
           d="m 63.530296,5.5126421 97.996994,0 0.93158,27.9017579 -4.15021,0 c -2.03281,-8.766007 -4.63031,-14.458756 -7.79228,-17.077812 -3.10576,-2.67246 -9.68406,-4.008744 -19.73489,-4.008744 l -9.65578,0 0,84.025585 c 0,6.360671 1.04467,10.316121 3.13392,11.866241 2.08924,1.4966 6.66289,2.48538 13.72128,2.96667 l 0,2.96645 -50.565401,0 0,-2.96645 c 7.340572,-0.53458 11.914334,-1.68379 13.721281,-3.44774 1.80685,-1.76395 2.71027,-6.20046 2.71027,-13.309438 l 0,-82.101318 -9.655671,0 c -9.599235,0 -16.149259,1.309528 -19.650181,3.928584 -3.444376,2.619057 -6.041768,8.338453 -7.792283,17.157972 l -4.234925,0 1.016296,-27.9017579 z"
           style="font-size:150px;font-weight:normal;fill:#dfd8be;fill-opacity:0.88535037;stroke:#ece6cd;stroke-width:2.89193749;stroke-linejoin:bevel;font-family:Times" />
      </g>
      <path
         id="text3380"
         d="m 49.172374,52.847248 c 1.139411,1.266078 1.975006,2.658737 2.506789,4.17798 0.557023,1.493964 0.835555,3.241117 0.835596,5.241466 -4.1e-5,4.760377 -1.759855,8.685142 -5.279448,11.774309 -3.519664,3.089174 -7.887548,4.633759 -13.103666,4.63376 -2.405524,-10e-7 -4.811026,-0.367156 -7.216512,-1.101467 -2.405516,-0.759632 -4.481844,-1.671191 -6.228989,-2.734679 l -1.633211,2.77266 -3.038531,0 -0.531743,-18.459077 3.076513,0 c 0.63302,2.278915 1.367331,4.342582 2.202935,6.191007 0.860908,1.823129 1.987695,3.532302 3.380366,5.127522 1.316684,1.49395 2.848608,2.68404 4.595779,3.570274 1.772458,0.886241 3.823464,1.32936 6.153026,1.329357 1.74713,3e-6 3.266394,-0.227887 4.557796,-0.683669 1.316668,-0.455776 2.380153,-1.101464 3.190458,-1.937064 0.810244,-0.83559 1.405289,-1.810451 1.785137,-2.924586 0.405105,-1.13944 0.607673,-2.443475 0.607707,-3.912109 -3.4e-5,-2.152279 -0.607739,-4.152644 -1.823119,-6.001099 -1.215443,-1.873742 -3.025899,-3.291721 -5.431375,-4.253944 -1.645895,-0.658326 -3.532315,-1.379976 -5.659264,-2.164954 -2.12699,-0.81025 -3.962768,-1.569882 -5.507338,-2.278898 -3.038543,-1.367311 -5.406063,-3.152447 -7.102567,-5.355411 -1.671198,-2.228223 -2.506793,-5.127485 -2.506788,-8.697796 -5e-6,-2.050966 0.417792,-3.962707 1.253394,-5.735228 0.835589,-1.772428 2.025679,-3.354995 3.570274,-4.747705 1.468612,-1.316644 3.203105,-2.342148 5.203485,-3.076513 2.000349,-0.759578 4.089337,-1.139394 6.266971,-1.139449 2.481443,5.5e-5 4.697036,0.379871 6.646787,1.139449 1.975015,0.759686 3.772811,1.645924 5.393393,2.658715 l 1.557247,-2.582751 3.038531,0 0.303853,17.889352 -3.076513,0 c -0.557098,-2.05097 -1.190125,-4.013353 -1.899082,-5.887154 -0.683702,-1.873717 -1.5826,-3.570229 -2.696696,-5.08954 -1.088837,-1.468575 -2.418193,-2.633344 -3.988072,-3.494311 -1.569933,-0.886187 -3.494334,-1.329305 -5.77321,-1.329357 -2.405522,5.2e-5 -4.456529,0.772344 -6.153025,2.31688 -1.696527,1.544635 -2.544783,3.431054 -2.54477,5.659264 -1.3e-5,2.329583 0.54439,4.266644 1.63321,5.811191 1.088792,1.519303 2.671359,2.772695 4.747705,3.760183 1.84842,0.886271 3.658876,1.658564 5.431375,2.31688 1.797772,0.633059 3.532265,1.316727 5.203485,2.051008 1.519234,0.658378 2.975196,1.40535 4.367888,2.240917 1.417946,0.835623 2.646018,1.810484 3.684219,2.924587 m 45.57797,5.621282 c -3.9e-5,2.633411 -0.417837,5.22882 -1.253394,7.786237 -0.835633,2.532118 -2.025724,4.684409 -3.570274,6.456879 -1.747188,2.02569 -3.772874,3.532294 -6.077063,4.519815 -2.304245,0.987522 -4.886994,1.481283 -7.748254,1.481284 -2.380202,-10e-7 -4.646437,-0.44312 -6.798714,-1.329358 -2.152305,-0.911558 -4.064045,-2.228253 -5.735228,-3.95009 -1.645877,-1.696508 -2.962573,-3.760175 -3.95009,-6.191008 -0.962205,-2.456133 -1.443305,-5.203469 -1.443303,-8.242016 -2e-6,-5.849148 1.696509,-10.63483 5.08954,-14.35706 3.418336,-3.722164 7.887505,-5.583262 13.407519,-5.583301 5.24144,3.9e-5 9.558682,1.772513 12.95174,5.31743 3.41831,3.519661 5.127482,8.21672 5.127521,14.091188 m -7.8622,0.07596 c -3.1e-5,-1.899061 -0.189939,-3.899426 -0.569724,-6.0011 -0.379847,-2.126944 -0.949571,-3.92474 -1.709174,-5.393392 -0.810303,-1.569876 -1.873788,-2.823269 -3.190458,-3.760183 -1.316721,-0.962166 -2.924609,-1.443267 -4.823668,-1.443302 -1.949744,3.5e-5 -3.620934,0.481136 -5.013577,1.443302 -1.367353,0.962235 -2.48148,2.27893 -3.342384,3.950091 -0.810287,1.544615 -1.380011,3.304429 -1.709174,5.279448 -0.329185,1.975068 -0.493772,3.886809 -0.493761,5.735227 -1.1e-5,2.430842 0.189897,4.684417 0.569724,6.760732 0.405126,2.051019 1.038153,3.886797 1.899082,5.507338 0.860904,1.620556 1.937049,2.89927 3.22844,3.836146 1.316679,0.911562 2.937228,1.367341 4.86165,1.367339 3.165112,2e-6 5.671898,-1.531923 7.520365,-4.595778 1.848409,-3.063843 2.772628,-7.292462 2.772659,-12.685868 m 30.841086,19.028802 -18.269165,0 0,-2.506789 c 0.582385,-0.05064 1.202745,-0.101281 1.861105,-0.151926 0.65834,-0.07596 1.20274,-0.177245 1.63321,-0.303853 0.70898,-0.227887 1.24072,-0.620364 1.59522,-1.177431 0.35449,-0.582381 0.53174,-1.329352 0.53175,-2.240917 l 0,-43.375034 c -1e-5,-0.911508 -0.20258,-1.759764 -0.60771,-2.544769 -0.37982,-0.810222 -0.88624,-1.443249 -1.51926,-1.899082 -0.45579,-0.303799 -1.29138,-0.582331 -2.50679,-0.835597 -1.215417,-0.253155 -2.190278,-0.405082 -2.924589,-0.455779 l 0,-2.430825 14.091189,-0.873578 0.53174,0.569725 0,51.389159 c -1e-5,0.886245 0.16457,1.620556 0.49376,2.202935 0.32916,0.557069 0.86091,0.987527 1.59523,1.291376 0.55705,0.253214 1.10145,0.443122 1.63321,0.569725 0.55705,0.126608 1.17741,0.215232 1.8611,0.265871 l 0,2.506789 m 68.78476,0 -18.26917,0 0,-2.506789 c 0.58234,-0.05064 1.16472,-0.101281 1.74716,-0.151926 0.60765,-0.05064 1.13939,-0.151924 1.59522,-0.303853 0.70894,-0.227887 1.22802,-0.620364 1.55725,-1.177431 0.35444,-0.582381 0.53169,-1.329352 0.53174,-2.240917 l 0,-19.332655 c -5e-5,-2.633365 -0.60776,-4.659051 -1.82311,-6.077063 -1.19015,-1.443269 -2.68409,-2.164919 -4.48184,-2.164953 -1.24078,3.4e-5 -2.40555,0.189942 -3.49431,0.569725 -1.08885,0.379849 -2.08903,0.911591 -3.00055,1.595228 -0.73435,0.557096 -1.35472,1.164801 -1.8611,1.823119 -0.48114,0.633057 -0.84829,1.164799 -1.10147,1.595229 l 0,21.611554 c -3e-5,0.886244 0.15189,1.620555 0.45578,2.202935 0.30382,0.557068 0.8229,0.987526 1.55725,1.291376 0.58234,0.227892 1.10143,0.40514 1.55725,0.531742 0.48106,0.101287 1.10142,0.177251 1.8611,0.22789 l 0,2.506789 -17.88935,0 0,-2.506789 c 0.58235,-0.05064 1.13942,-0.101281 1.67119,-0.151926 0.55703,-0.05064 1.06345,-0.151924 1.51926,-0.303853 0.70896,-0.227887 1.22805,-0.620364 1.55725,-1.177431 0.35446,-0.582381 0.53171,-1.329352 0.53174,-2.240917 l 0,-19.332655 c -3e-5,-2.633365 -0.60773,-4.659051 -1.82312,-6.077063 -1.19011,-1.443269 -2.68406,-2.164919 -4.48183,-2.164953 -1.24076,3.4e-5 -2.40553,0.202602 -3.49431,0.607706 -1.08883,0.37985 -2.08901,0.911592 -3.00055,1.595229 -0.73433,0.557095 -1.35469,1.190122 -1.8611,1.899082 -0.50644,0.683699 -0.88625,1.202781 -1.13945,1.557247 l 0,21.459627 c -1e-5,0.860923 0.17723,1.582574 0.53174,2.164954 0.35448,0.582389 0.88623,1.025508 1.59523,1.329357 0.53173,0.253214 1.07613,0.443122 1.63321,0.569725 0.55705,0.126608 1.17741,0.215232 1.8611,0.265871 l 0,2.506789 -18.1932,0 0,-2.506789 c 0.58238,-0.05064 1.17742,-0.101281 1.78513,-0.151926 0.63303,-0.05064 1.17743,-0.151924 1.63322,-0.303853 0.70898,-0.227887 1.22806,-0.620364 1.55724,-1.177431 0.35449,-0.582381 0.53174,-1.329352 0.53175,-2.240917 l 0,-23.282746 c -1e-5,-0.810244 -0.18992,-1.531895 -0.56973,-2.164953 -0.3545,-0.658316 -0.86092,-1.21538 -1.51926,-1.671192 -0.48111,-0.30382 -1.07616,-0.54437 -1.78514,-0.721652 -0.709,-0.202534 -1.44331,-0.329139 -2.20294,-0.379816 l 0,-2.468807 12.53394,-0.835596 0.53175,0.531743 0,5.355412 0.26587,0 c 0.63301,-0.632995 1.4053,-1.379967 2.31688,-2.240917 0.91154,-0.860882 1.7598,-1.557212 2.54477,-2.08899 0.88622,-0.60767 1.98768,-1.114091 3.3044,-1.519266 1.34199,-0.405099 2.7853,-0.607668 4.32991,-0.607706 2.43079,3.8e-5 4.51978,0.658386 6.26697,1.975045 1.74712,1.291411 3.00051,2.861317 3.76018,4.709723 0.91152,-0.886205 1.70914,-1.658498 2.39285,-2.31688 0.70894,-0.683634 1.63316,-1.405285 2.77266,-2.164953 0.96215,-0.658312 2.08894,-1.190054 3.38036,-1.595229 1.31665,-0.405099 2.77261,-0.607668 4.36789,-0.607706 3.16508,3.8e-5 5.67187,1.038202 7.52036,3.114494 1.84838,2.076363 2.7726,5.266818 2.77266,9.571374 l 0,19.028802 c -6e-5,0.886244 0.15187,1.620555 0.45578,2.202935 0.3038,0.557068 0.82288,0.987526 1.55725,1.291376 0.58232,0.227892 1.15205,0.40514 1.70918,0.531742 0.58231,0.101287 1.228,0.177251 1.93706,0.22789 l 0,2.506789 m 29.09394,-18.345133 c 1.03813,0.911577 1.83575,1.962401 2.39284,3.152476 0.55704,1.190106 0.83557,2.646067 0.8356,4.367889 -3e-5,3.468997 -1.30407,6.304957 -3.91211,8.507888 -2.58278,2.202935 -5.93782,3.304401 -10.06514,3.304402 -2.17762,-10e-7 -4.19065,-0.392477 -6.03908,-1.177431 -1.82312,-0.784953 -3.12716,-1.506603 -3.91211,-2.164953 l -0.75963,2.468807 -2.84862,0 -0.37982,-13.027703 2.62074,0 c 0.20256,0.987534 0.63302,2.139643 1.29137,3.456329 0.65834,1.316705 1.45596,2.506795 2.39284,3.570274 0.98752,1.114133 2.16495,2.051013 3.5323,2.810642 1.39264,0.759635 2.94989,1.139451 4.67174,1.139449 2.4308,2e-6 4.30456,-0.544401 5.62128,-1.633211 1.31667,-1.114123 1.97502,-2.69669 1.97505,-4.747705 -3e-5,-1.063476 -0.21526,-1.975035 -0.64569,-2.734678 -0.40516,-0.784942 -1.01287,-1.468611 -1.82312,-2.051008 -0.83562,-0.582372 -1.86112,-1.101454 -3.07651,-1.557248 -1.21543,-0.481085 -2.57011,-0.949525 -4.06404,-1.40532 -1.1901,-0.354479 -2.51946,-0.83558 -3.98807,-1.443303 -1.44331,-0.633009 -2.68404,-1.36732 -3.7222,-2.202935 -1.11414,-0.886218 -2.02569,-1.975023 -2.73468,-3.266421 -0.70899,-1.291351 -1.06349,-2.810616 -1.06349,-4.557797 0,-3.063822 1.13945,-5.659231 3.41835,-7.786236 2.27889,-2.126935 5.33008,-3.190419 9.15358,-3.190458 1.4686,3.9e-5 2.96255,0.189947 4.48183,0.569725 1.54457,0.379854 2.79796,0.835633 3.76018,1.367339 l 0.87358,-1.975046 2.73468,0 0.56972,12.04018 -2.62073,0 c -0.53177,-2.684006 -1.68388,-4.861618 -3.45633,-6.532842 -1.74717,-1.696478 -3.8868,-2.544734 -6.4189,-2.54477 -2.07634,3.6e-5 -3.70955,0.519118 -4.89963,1.557248 -1.1901,1.038197 -1.78514,2.29159 -1.78513,3.760182 -1e-5,1.139478 0.18989,2.089018 0.56972,2.848623 0.40513,0.75966 1.00017,1.405347 1.78514,1.937064 0.75962,0.506447 1.70916,0.987547 2.84862,1.443302 1.16476,0.430482 2.5954,0.924243 4.29193,1.481284 1.67117,0.531765 3.24107,1.152131 4.70972,1.8611 1.49392,0.709011 2.72199,1.493964 3.68422,2.354862"
         style="font-size:77.78639984px;font-style:normal;font-variant:normal;font-weight:normal;font-stretch:normal;text-align:start;line-height:100%;writing-mode:lr-tb;text-anchor:start;fill:#4d4d4d;fill-opacity:0.33023257;stroke:#434343;stroke-width:1.90011525;stroke-linecap:butt;stroke-linejoin:miter;stroke-opacity:0.41395347;stroke-dashoffset:0;font-family:Georgia;-inkscape-font-specification:Georgia"
         transform="scale(0.9413329,1.0623235)" />
      <path
         id="text624"
         d="m 47.437645,51.773395 c 1.13941,1.266078 1.975006,2.658737 2.506788,4.177981 0.557024,1.493963 0.835555,3.241117 0.835596,5.241466 -4.1e-5,4.760376 -1.759855,8.685142 -5.279448,11.774308 -3.519664,3.089174 -7.887548,4.63376 -13.103666,4.633761 -2.405524,-10e-7 -4.811025,-0.367157 -7.216512,-1.101468 -2.405516,-0.759632 -4.481844,-1.67119 -6.228989,-2.734678 l -1.63321,2.77266 -3.038532,0 -0.531743,-18.459078 3.076513,0 c 0.63302,2.278915 1.367331,4.342582 2.202935,6.191008 0.860908,1.823129 1.987695,3.532301 3.380366,5.127521 1.316684,1.49395 2.848608,2.684041 4.595779,3.570274 1.772458,0.886241 3.823464,1.32936 6.153026,1.329358 1.74713,2e-6 3.266395,-0.227888 4.557797,-0.68367 1.316668,-0.455776 2.380153,-1.101463 3.190457,-1.937063 0.810244,-0.835591 1.405289,-1.810452 1.785138,-2.924587 0.405104,-1.13944 0.607673,-2.443475 0.607706,-3.912109 -3.3e-5,-2.152279 -0.607739,-4.152643 -1.823119,-6.001099 -1.215443,-1.873741 -3.025899,-3.291721 -5.431375,-4.253944 -1.645895,-0.658325 -3.532314,-1.379976 -5.659264,-2.164953 -2.12699,-0.81025 -3.962767,-1.569882 -5.507338,-2.278898 -3.038543,-1.367312 -5.406063,-3.152447 -7.102567,-5.355412 -1.671198,-2.228222 -2.506793,-5.127484 -2.506788,-8.697795 -5e-6,-2.050967 0.417793,-3.962707 1.253394,-5.735228 0.835589,-1.772429 2.025679,-3.354996 3.570274,-4.747705 1.468612,-1.316645 3.203106,-2.342148 5.203485,-3.076513 2.000349,-0.759578 4.089338,-1.139394 6.266971,-1.139449 2.481443,5.5e-5 4.697037,0.379871 6.646787,1.139449 1.975015,0.759686 3.772811,1.645923 5.393393,2.658715 l 1.557247,-2.582752 3.038531,0 0.303854,17.889353 -3.076513,0 c -0.557099,-2.050971 -1.190126,-4.013354 -1.899082,-5.887154 -0.683703,-1.873718 -1.582601,-3.570229 -2.696697,-5.08954 -1.088836,-1.468575 -2.418193,-2.633344 -3.988072,-3.494311 -1.569933,-0.886187 -3.494334,-1.329306 -5.773209,-1.329358 -2.405523,5.2e-5 -4.456529,0.772345 -6.153026,2.31688 -1.696527,1.544635 -2.544782,3.431055 -2.54477,5.659265 -1.2e-5,2.329582 0.544391,4.266644 1.63321,5.811191 1.088792,1.519302 2.671359,2.772695 4.747705,3.760182 1.84842,0.886272 3.658876,1.658565 5.431375,2.31688 1.797772,0.633059 3.532265,1.316728 5.203485,2.051009 1.519235,0.658378 2.975196,1.405349 4.367888,2.240917 1.417947,0.835623 2.646019,1.810484 3.68422,2.924586 m 45.577969,5.621283 c -3.9e-5,2.63341 -0.417837,5.22882 -1.253394,7.786236 -0.835633,2.532118 -2.025723,4.684409 -3.570274,6.456879 -1.747188,2.02569 -3.772874,3.532294 -6.077063,4.519815 -2.304245,0.987522 -4.886994,1.481283 -7.748254,1.481284 -2.380201,-10e-7 -4.646437,-0.44312 -6.798714,-1.329357 -2.152305,-0.911558 -4.064045,-2.228254 -5.735228,-3.950091 -1.645877,-1.696507 -2.962573,-3.760174 -3.95009,-6.191007 -0.962205,-2.456133 -1.443305,-5.203469 -1.443303,-8.242016 -2e-6,-5.849148 1.696509,-10.63483 5.08954,-14.35706 3.418337,-3.722164 7.887505,-5.583263 13.407519,-5.583301 5.24144,3.8e-5 9.558683,1.772513 12.95174,5.317429 3.41831,3.519662 5.127482,8.21672 5.127521,14.091189 m -7.862199,0.07596 C 85.153383,55.57158 84.963475,53.571216 84.58369,51.469542 84.203843,49.342597 83.634119,47.544801 82.874516,46.076149 82.064213,44.506273 81.000728,43.25288 79.684058,42.315967 78.367337,41.3538 76.759449,40.8727 74.86039,40.872664 c -1.949743,3.6e-5 -3.620934,0.481136 -5.013576,1.443303 -1.367354,0.962234 -2.481481,2.27893 -3.342385,3.95009 -0.810287,1.544616 -1.380011,3.30443 -1.709174,5.279448 -0.329185,1.975069 -0.493772,3.886809 -0.493761,5.735228 -1.1e-5,2.430842 0.189897,4.684417 0.569725,6.760732 0.405126,2.051019 1.038152,3.886796 1.899082,5.507338 0.860903,1.620555 1.937048,2.899269 3.228439,3.836146 1.316679,0.911561 2.937228,1.36734 4.86165,1.367339 3.165113,1e-6 5.671898,-1.531923 7.520365,-4.595779 1.848409,-3.063843 2.772628,-7.292461 2.77266,-12.685868 m 30.841085,19.028802 -18.269165,0 0,-2.506788 c 0.582382,-0.05064 1.202749,-0.101282 1.8611,-0.151927 0.658345,-0.07596 1.202745,-0.177245 1.633215,-0.303853 0.70898,-0.227887 1.24072,-0.620363 1.59522,-1.177431 0.35449,-0.58238 0.53174,-1.329352 0.53175,-2.240917 l 0,-43.375033 c -1e-5,-0.911509 -0.20258,-1.759765 -0.60771,-2.54477 -0.37982,-0.810222 -0.88624,-1.443249 -1.51926,-1.899082 -0.45579,-0.303799 -1.291384,-0.58233 -2.506792,-0.835596 -1.215415,-0.253156 -2.190276,-0.405082 -2.924587,-0.45578 l 0,-2.430825 14.091189,-0.873578 0.53174,0.569725 0,51.38916 c -10e-6,0.886244 0.16458,1.620555 0.49376,2.202935 0.32916,0.557068 0.86091,0.987526 1.59523,1.291376 0.55705,0.253214 1.10145,0.443122 1.63321,0.569724 0.55705,0.126608 1.17741,0.215232 1.8611,0.265872 l 0,2.506788 m 68.78476,0 -18.26917,0 0,-2.506788 c 0.58234,-0.05064 1.16472,-0.101282 1.74716,-0.151927 0.60765,-0.05064 1.13939,-0.151924 1.59522,-0.303853 0.70894,-0.227887 1.22802,-0.620363 1.55725,-1.177431 0.35444,-0.58238 0.53169,-1.329352 0.53174,-2.240917 l 0,-19.332655 c -5e-5,-2.633365 -0.60776,-4.65905 -1.82311,-6.077062 -1.19015,-1.443269 -2.68409,-2.16492 -4.48184,-2.164954 -1.24078,3.4e-5 -2.40555,0.189942 -3.49431,0.569725 -1.08885,0.379849 -2.08903,0.911592 -3.00055,1.595229 -0.73435,0.557095 -1.35472,1.164801 -1.8611,1.823119 -0.48114,0.633056 -0.84829,1.164799 -1.10147,1.595229 l 0,21.611553 c -3e-5,0.886244 0.15189,1.620555 0.45578,2.202935 0.30382,0.557068 0.8229,0.987526 1.55725,1.291376 0.58234,0.227893 1.10143,0.40514 1.55725,0.531743 0.48106,0.101287 1.10142,0.17725 1.8611,0.22789 l 0,2.506788 -17.88935,0 0,-2.506788 c 0.58235,-0.05064 1.13942,-0.101282 1.67119,-0.151927 0.55703,-0.05064 1.06346,-0.151924 1.51926,-0.303853 0.70896,-0.227887 1.22805,-0.620363 1.55725,-1.177431 0.35446,-0.58238 0.53171,-1.329352 0.53174,-2.240917 l 0,-19.332655 c -3e-5,-2.633365 -0.60773,-4.65905 -1.82312,-6.077062 -1.19011,-1.443269 -2.68406,-2.16492 -4.48183,-2.164954 -1.24076,3.4e-5 -2.40553,0.202603 -3.49431,0.607707 -1.08883,0.379849 -2.08901,0.911591 -3.00055,1.595229 -0.73433,0.557095 -1.35469,1.190122 -1.8611,1.899082 -0.50644,0.683698 -0.88625,1.20278 -1.13945,1.557247 l 0,21.459627 c -1e-5,0.860923 0.17723,1.582573 0.53174,2.164953 0.35448,0.58239 0.88623,1.025508 1.59523,1.329358 0.53173,0.253214 1.07613,0.443122 1.63321,0.569724 0.55705,0.126608 1.17741,0.215232 1.8611,0.265872 l 0,2.506788 -18.1932,0 0,-2.506788 c 0.58238,-0.05064 1.17743,-0.101282 1.78514,-0.151927 0.63302,-0.05064 1.17742,-0.151924 1.63321,-0.303853 0.70898,-0.227887 1.22806,-0.620363 1.55724,-1.177431 0.35449,-0.58238 0.53174,-1.329352 0.53175,-2.240917 l 0,-23.282745 c -1e-5,-0.810245 -0.18992,-1.531895 -0.56973,-2.164954 -0.3545,-0.658316 -0.86092,-1.215379 -1.51926,-1.671192 -0.48111,-0.303819 -1.07616,-0.544369 -1.78514,-0.721651 -0.709,-0.202534 -1.44331,-0.32914 -2.20294,-0.379816 l 0,-2.468807 12.53394,-0.835596 0.53175,0.531743 0,5.355411 0.26587,0 c 0.63301,-0.632995 1.4053,-1.379966 2.31688,-2.240917 0.91154,-0.860882 1.7598,-1.557211 2.54477,-2.08899 0.88622,-0.607669 1.98768,-1.114091 3.3044,-1.519266 1.34199,-0.405099 2.7853,-0.607667 4.32991,-0.607706 2.43079,3.9e-5 4.51978,0.658386 6.26697,1.975045 1.74712,1.291411 3.00051,2.861318 3.76018,4.709724 0.91152,-0.886206 1.70914,-1.658498 2.39285,-2.31688 0.70895,-0.683635 1.63316,-1.405285 2.77266,-2.164954 0.96215,-0.658311 2.08894,-1.190054 3.38036,-1.595229 1.31665,-0.405099 2.77261,-0.607667 4.36789,-0.607706 3.16508,3.9e-5 5.67187,1.038202 7.52036,3.114495 1.84838,2.076363 2.7726,5.266817 2.77266,9.571373 l 0,19.028802 c -6e-5,0.886244 0.15187,1.620555 0.45578,2.202935 0.3038,0.557068 0.82288,0.987526 1.55725,1.291376 0.58232,0.227893 1.15205,0.40514 1.70918,0.531743 0.58231,0.101287 1.228,0.17725 1.93706,0.22789 l 0,2.506788 M 213.8732,58.154311 c 1.03814,0.911576 1.83575,1.962401 2.39284,3.152476 0.55704,1.190105 0.83557,2.646067 0.8356,4.367888 -3e-5,3.468998 -1.30407,6.304957 -3.91211,8.507888 -2.58278,2.202935 -5.93782,3.304402 -10.06514,3.304403 -2.17762,-10e-7 -4.19065,-0.392478 -6.03908,-1.177431 -1.82312,-0.784953 -3.12716,-1.506604 -3.91211,-2.164954 l -0.75963,2.468807 -2.84862,0 -0.37982,-13.027703 2.62074,0 c 0.20256,0.987535 0.63302,2.139643 1.29137,3.45633 0.65834,1.316705 1.45596,2.506795 2.39284,3.570274 0.98752,1.114133 2.16495,2.051012 3.5323,2.810641 1.39264,0.759635 2.94989,1.139451 4.67174,1.139449 2.4308,2e-6 4.30456,-0.544401 5.62128,-1.63321 1.31667,-1.114124 1.97502,-2.69669 1.97505,-4.747705 -3e-5,-1.063477 -0.21526,-1.975035 -0.64569,-2.734678 -0.40516,-0.784942 -1.01287,-1.468611 -1.82312,-2.051009 -0.83562,-0.582371 -1.86112,-1.101453 -3.07651,-1.557247 -1.21543,-0.481086 -2.57011,-0.949526 -4.06404,-1.405321 -1.1901,-0.354479 -2.51946,-0.835579 -3.98807,-1.443302 -1.44331,-0.633009 -2.68404,-1.36732 -3.7222,-2.202935 -1.11414,-0.886218 -2.02569,-1.975024 -2.73468,-3.266421 -0.70899,-1.291352 -1.06349,-2.810616 -1.06348,-4.557797 -1e-5,-3.063822 1.13944,-5.659232 3.41834,-7.786237 2.27889,-2.126934 5.33008,-3.190419 9.15358,-3.190457 1.4686,3.8e-5 2.96255,0.189946 4.48183,0.569724 1.54457,0.379854 2.79796,0.835633 3.76018,1.367339 l 0.87358,-1.975045 2.73468,0 0.56972,12.04018 -2.62073,0 c -0.53177,-2.684007 -1.68388,-4.861619 -3.45633,-6.532842 -1.74717,-1.696479 -3.8868,-2.544735 -6.4189,-2.54477 -2.07634,3.5e-5 -3.70955,0.519117 -4.89963,1.557247 -1.1901,1.038198 -1.78514,2.291591 -1.78513,3.760183 -1e-5,1.139478 0.18989,2.089018 0.56972,2.848623 0.40513,0.759659 1.00017,1.405346 1.78514,1.937063 0.75962,0.506447 1.70916,0.987547 2.84862,1.443303 1.16476,0.430482 2.5954,0.924243 4.29193,1.481284 1.67117,0.531765 3.24107,1.152131 4.70972,1.8611 1.49392,0.709011 2.72199,1.493964 3.68422,2.354862"
         style="font-size:77.78639984px;font-style:normal;font-variant:normal;font-weight:normal;font-stretch:normal;text-align:start;line-height:100%;writing-mode:lr-tb;text-anchor:start;fill:#019a8c;fill-opacity:1;stroke:#008879;stroke-width:1.90011525;stroke-linecap:butt;stroke-linejoin:miter;stroke-opacity:1;stroke-dashoffset:0;font-family:Georgia;-inkscape-font-specification:Georgia"
         transform="scale(0.9413329,1.0623235)" />
    </g>
  </g>
</svg>
