<?xml version="1.0" encoding="UTF-8" standalone="no"?>
<!-- Created with Sodipodi ("http://www.sodipodi.com/") -->
<svg
   xmlns:dc="http://purl.org/dc/elements/1.1/"
   xmlns:cc="http://web.resource.org/cc/"
   xmlns:rdf="http://www.w3.org/1999/02/22-rdf-syntax-ns#"
   xmlns:svg="http://www.w3.org/2000/svg"
   xmlns="http://www.w3.org/2000/svg"
   xmlns:xlink="http://www.w3.org/1999/xlink"
   xmlns:sodipodi="http://inkscape.sourceforge.net/DTD/sodipodi-0.dtd"
   xmlns:inkscape="http://www.inkscape.org/namespaces/inkscape"
   inkscape:version="0.41"
   sodipodi:docname="LogoSTCD_Vector-sodipodi.svg"
   sodipodi:docbase="/Users/dawidl/Projects/solms/solmsRoot/resources/knowledge/solms/resources/logos"
   height="101.4600pt"
   width="184.4600pt"
   sodipodi:version="0.32"
   id="svg587">
  <metadata
     id="metadata1947">
    <rdf:RDF
       id="RDF1949">
      <cc:Work
         id="Work1951"
         rdf:about="">
        <dc:format
           id="format1953">image/svg+xml</dc:format>
        <dc:type
           rdf:resource="http://purl.org/dc/dcmitype/StillImage"
           id="type1955" />
      </cc:Work>
    </rdf:RDF>
  </metadata>
  <defs
     id="defs589">
    <linearGradient
       id="linearGradient619">
      <stop
         id="stop620"
         offset="0"
         style="stop-color:#000;stop-opacity:1;" />
      <stop
         id="stop621"
         offset="1"
         style="stop-color:#fff;stop-opacity:1;" />
    </linearGradient>
    <linearGradient
       spreadMethod="reflect"
       y2="0.312500"
       x2="1.618182"
       y1="4.687500e-2"
       x1="1.327273"
       id="linearGradient622"
       xlink:href="#linearGradient619" />
    <radialGradient
       id="radialGradient623"
       xlink:href="#linearGradient619" />
  </defs>
  <sodipodi:namedview
     inkscape:current-layer="svg587"
     inkscape:window-y="94"
     inkscape:window-x="110"
     inkscape:window-height="687"
     inkscape:window-width="1144"
     inkscape:cy="66.642709"
     inkscape:cx="116.37164"
     inkscape:zoom="2.2401231"
     gridtolerance="1.000000px"
     id="base"
     showguides="true"
     inkscape:guide-bbox="true" />
  <g
     id="g3416">
    <text
       transform="scale(0.997194,1.002814)"
       sodipodi:linespacing="100%"
       id="text592"
       y="117.15736"
       x="-2.9083669"
       style="font-size:162.94339;font-style:normal;font-weight:normal;fill:#c2c2b5;fill-opacity:1.0000000;stroke:none;stroke-width:1.0000000pt;stroke-linecap:butt;stroke-linejoin:miter;stroke-opacity:1.0000000;font-family:Times;text-anchor:start;writing-mode:lr-tb"><tspan
         id="tspan601"
         sodipodi:role="line"
         y="117.15736"
         x="-2.9083669">C</tspan></text>
    <text
       transform="scale(0.985625,1.014584)"
       sodipodi:linespacing="100%"
       id="text606"
       y="116.43452"
       x="119.67834"
       style="font-size:164.85539;font-style:normal;font-weight:normal;fill:#c2c2b5;fill-opacity:1.0000000;stroke:none;stroke-width:1.0000000pt;stroke-linecap:butt;stroke-linejoin:miter;stroke-opacity:1.0000000;font-family:Times;text-anchor:start;writing-mode:lr-tb"><tspan
         id="tspan607"
         sodipodi:role="line"
         y="116.43452"
         x="119.67834">D</tspan></text>
    <g
       transform="translate(-1.084131,3.230216)"
       id="g3149">
      <path
         id="path655"
         d="M 63.880026,5.8622642 L 161.87692,5.8622642 L 162.80850,33.764022 L 158.65839,33.764022 C 156.62559,24.997906 154.02809,19.305266 150.86600,16.686102 C 147.76036,14.013642 141.18206,12.677357 131.13111,12.677357 L 121.47544,12.677357 L 121.47544,96.702943 C 121.47544,103.06373 122.52012,107.01918 124.60936,108.56919 C 126.69850,110.06590 131.27226,111.05468 138.33054,111.53585 L 138.33054,114.50230 L 87.765239,114.50230 L 87.765239,111.53585 C 95.105703,111.00127 99.679578,109.85207 101.48642,108.08823 C 103.29337,106.32428 104.19679,101.88776 104.19679,94.778784 L 104.19679,12.677357 L 94.541119,12.677357 C 84.941884,12.677357 78.391860,13.986886 74.890938,16.606050 C 71.446454,19.225107 68.849062,24.944503 67.098547,33.764022 L 62.863731,33.764022 L 63.880026,5.8622642 z "
         style="font-size:150.00000;font-weight:normal;fill:none;stroke:#000000;stroke-width:5.4161973;stroke-linecap:round;stroke-linejoin:round;stroke-miterlimit:4.0000000;stroke-opacity:0.23921569;font-family:Times" />
      <path
         id="path612"
         d="M 63.530296,5.5126421 L 161.52729,5.5126421 L 162.45887,33.414400 L 158.30866,33.414400 C 156.27585,24.648393 153.67835,18.955644 150.51638,16.336588 C 147.41062,13.664128 140.83232,12.327844 130.78149,12.327844 L 121.12571,12.327844 L 121.12571,96.353429 C 121.12571,102.71410 122.17038,106.66955 124.25963,108.21967 C 126.34887,109.71627 130.92252,110.70505 137.98091,111.18634 L 137.98091,114.15279 L 87.415509,114.15279 L 87.415509,111.18634 C 94.756081,110.65176 99.329843,109.50255 101.13679,107.73860 C 102.94364,105.97465 103.84706,101.53814 103.84706,94.429162 L 103.84706,12.327844 L 94.191389,12.327844 C 84.592154,12.327844 78.042130,13.637372 74.541208,16.256428 C 71.096832,18.875485 68.499440,24.594881 66.748925,33.414400 L 62.514000,33.414400 L 63.530296,5.5126421 z "
         style="font-size:150.00000;font-weight:normal;fill:#dfd8be;fill-opacity:0.88535035;stroke:#ece6cd;stroke-width:2.8919375;stroke-linejoin:bevel;font-family:Times" />
    </g>
    <g
       transform="matrix(1.000000,0.000000,0.000000,0.916808,0.000000,7.584707)"
       id="g3316">
      <text
         transform="scale(0.901327,1.109475)"
         sodipodi:linespacing="100%"
         id="text2723"
         y="91.603996"
         x="11.670009"
         style="font-size:104.38093;font-style:normal;font-variant:normal;font-weight:normal;font-stretch:normal;fill:#000000;fill-opacity:0.38216558;stroke:#000000;stroke-width:2.0723853;stroke-linecap:butt;stroke-linejoin:miter;stroke-miterlimit:4.0000000;stroke-dashoffset:0.0000000;stroke-opacity:0.24840762;font-family:STFangSong;text-anchor:start;writing-mode:lr-tb"><tspan
           style="stroke-dashoffset:0.0000000;font-family:STSong"
           id="tspan2725"
           sodipodi:role="line"
           y="91.603996"
           x="11.670009">Solms</tspan></text>
      <text
         transform="scale(0.901327,1.109475)"
         sodipodi:linespacing="100%"
         id="text624"
         y="89.619652"
         x="9.6277332"
         style="font-size:104.38243;font-style:normal;font-variant:normal;font-weight:normal;font-stretch:normal;fill:#019a8c;fill-opacity:1.0000000;stroke:#008879;stroke-width:2.5684588;stroke-linecap:butt;stroke-linejoin:miter;stroke-dashoffset:0.0000000;stroke-opacity:1.0000000;font-family:STFangSong;text-anchor:start;writing-mode:lr-tb"><tspan
           style="stroke-dashoffset:0.0000000;font-family:STSong"
           id="tspan641"
           sodipodi:role="line"
           y="89.619652"
           x="9.6277332">Solms</tspan></text>
    </g>
  </g>
</svg>
