<?xml version="1.0" encoding="UTF-8" standalone="no"?>
<!DOCTYPE svg PUBLIC "-//W3C//DTD SVG 1.0//EN"
"http://www.w3.org/TR/2001/REC-SVG-20010904/DTD/svg10.dtd">
<!-- Created with Inkscape (http://www.inkscape.org/) -->
<svg
   id="svg1"
   sodipodi:version="0.32"
   inkscape:version="0.39"
   xmlns="http://www.w3.org/2000/svg"
   xmlns:sodipodi="http://sodipodi.sourceforge.net/DTD/sodipodi-0.dtd"
   xmlns:inkscape="http://www.inkscape.org/namespaces/inkscape"
   xmlns:xlink="http://www.w3.org/1999/xlink"
   xmlns:rdf="http://www.w3.org/1999/02/22-rdf-syntax-ns#"
   xmlns:cc="http://web.resource.org/cc/"
   xmlns:dc="http://purl.org/dc/elements/1.1/"
   width="200.00000pt"
   height="200.00000pt"
   sodipodi:docbase="/Users/dawidl/Projects/solms/solmsRoot/resources/knowledge/solms/resources/logos/themes"
   sodipodi:docname="linuxLogin01"
   inkscape:export-filename="/Users/dawidl/Desktop/stcd-login-200x.png"
   inkscape:export-xdpi="72.000000"
   inkscape:export-ydpi="72.000000">
  <defs
     id="defs3">
    <linearGradient
       id="linearGradient2214">
      <stop
         style="stop-color:#33d393;stop-opacity:1.0000000;"
         offset="0.0000000"
         id="stop2215" />
      <stop
         style="stop-color:#0a5948;stop-opacity:1.0000000;"
         offset="1.0000000"
         id="stop2216" />
    </linearGradient>
    <linearGradient
       id="linearGradient1568">
      <stop
         style="stop-color:#43656c;stop-opacity:1.0000000;"
         offset="0.0000000"
         id="stop1569" />
      <stop
         style="stop-color:#000000;stop-opacity:1.0000000;"
         offset="1.0000000"
         id="stop1570" />
    </linearGradient>
    <linearGradient
       inkscape:collect="always"
       xlink:href="#linearGradient1568"
       id="linearGradient1571"
       x1="0.053846154"
       y1="0.039062500"
       x2="0.69999999"
       y2="1.1093750" />
    <linearGradient
       inkscape:collect="always"
       xlink:href="#linearGradient2214"
       id="linearGradient2218"
       x1="0.50000000"
       y1="0.044444446"
       x2="0.50000000"
       y2="0.97777778" />
  </defs>
  <sodipodi:namedview
     id="base"
     pagecolor="#ffffff"
     bordercolor="#666666"
     borderopacity="1.0"
     inkscape:pageopacity="0.0"
     inkscape:pageshadow="2"
     inkscape:zoom="1.2268303"
     inkscape:cx="100.00001"
     inkscape:cy="99.999990"
     inkscape:window-width="1436"
     inkscape:window-height="856"
     inkscape:window-x="4"
     inkscape:window-y="22" />
  <metadata
     id="metadata4">
    <rdf:RDF
       id="RDF5">
      <cc:Work
         rdf:about=""
         id="Work6">
        <dc:format
           id="format7">image/svg+xml</dc:format>
        <dc:type
           id="type9"
           rdf:resource="http://purl.org/dc/dcmitype/StillImage" />
      </cc:Work>
    </rdf:RDF>
  </metadata>
  <rect
     style="fill:url(#linearGradient1571);fill-opacity:0.75000000;fill-rule:evenodd;stroke:none;stroke-width:1.5560125pt;stroke-linecap:butt;stroke-linejoin:miter;stroke-opacity:1.0000000;"
     id="rect946"
     width="250.00000"
     height="250.00000"
     x="0.0000000"
     y="-5.5511151e-14" />
  <path
     id="text2220"
     style="font-size:150.00000;font-style:normal;font-weight:normal;fill:#000000;fill-opacity:0.28658536;stroke:#000000;stroke-width:5.0000000;stroke-linecap:butt;stroke-linejoin:miter;stroke-miterlimit:4.0000000;stroke-opacity:0.20121951;font-family:Times;text-anchor:start;writing-mode:lr;"
     d="M 77.078735,61.349362 C 81.990847,61.349454 87.035771,62.083754 92.213521,63.552266 C 97.391140,65.020958 100.28976,65.755258 100.90938,65.755171 C 102.19267,65.755258 103.40964,65.399234 104.56032,64.687096 C 105.71084,63.975135 106.50741,62.862558 106.95002,61.349362 L 109.80439,61.349362 L 111.06562,92.056517 L 107.94573,92.056517 C 106.13125,85.959657 103.76367,81.042066 100.84300,77.303731 C 95.266962,70.272321 87.765957,66.756578 78.339967,66.756491 C 68.825367,66.756578 61.036713,70.539339 54.973982,78.104788 C 48.955449,85.670387 45.946196,96.084108 45.946215,109.34598 C 45.946196,121.53987 49.110337,131.28604 55.438646,138.58453 C 61.811153,145.83855 69.865329,149.46555 79.601199,149.46555 C 86.637487,149.46555 93.120657,147.77443 99.050730,144.39219 C 102.45819,142.47857 106.19763,139.58586 110.26905,135.71408 L 112.79152,138.25076 C 109.78218,142.07804 106.04274,145.43802 101.57319,148.33072 C 93.961477,153.22606 85.708159,155.67373 76.813213,155.67373 C 62.209436,155.67373 50.614963,150.97865 42.029757,141.58849 C 34.108327,132.91041 30.147619,122.07391 30.147623,109.07896 C 30.147619,95.772587 34.329595,84.602313 42.693563,75.568110 C 51.500037,66.089032 62.961750,61.349454 77.078735,61.349362 M 76.614071,61.349362 C 76.614021,61.349454 76.614021,61.349454 76.614071,61.349362 M 157.77418,143.14807 C 157.77415,145.42578 158.30520,146.92906 159.36732,147.65792 C 160.47363,148.38679 162.73057,148.75122 166.13814,148.75121 C 176.75899,148.75122 185.49910,146.58741 192.35849,142.25977 C 202.89081,135.60892 208.15700,124.24322 208.15708,108.16264 C 208.15700,93.813205 203.82014,83.016928 195.14648,75.773779 C 187.71179,69.578525 177.86534,66.480859 165.60710,66.480771 C 162.55356,66.480859 160.47363,66.822514 159.36732,67.505736 C 158.30520,68.189131 157.77415,69.692410 157.77418,72.015578 L 157.77418,143.14807 M 132.01849,151.41612 C 136.97491,150.86947 140.20543,149.95840 141.71007,148.68288 C 143.21468,147.36182 143.96699,144.05916 143.96701,138.77490 L 143.96701,76.525419 C 143.96699,71.423458 143.23681,68.143577 141.77645,66.685765 C 140.31606,65.228127 137.06342,64.317049 132.01849,63.952527 L 132.01849,61.355952 L 168.66061,61.355952 C 181.00735,61.356045 191.45123,63.451524 199.99226,67.642398 C 215.39249,75.158879 223.09263,88.597282 223.09273,107.95765 C 223.09263,114.92744 221.69865,121.55554 218.91075,127.84195 C 216.16693,134.12841 212.00708,139.43544 206.43118,143.76305 C 202.89081,146.49630 199.21775,148.56900 195.41200,149.98117 C 188.46410,152.62330 179.92313,153.94436 169.78908,153.94436 L 132.01849,153.94436 L 132.01849,151.41612" />
  <text
     style="font-size:150.00000;font-style:normal;font-weight:normal;fill:#d0d0c2;fill-opacity:1.0000000;stroke:none;stroke-width:1.0000000pt;stroke-linecap:butt;stroke-linejoin:miter;stroke-opacity:1.0000000;font-family:Times;text-anchor:start;writing-mode:lr;"
     x="27.740873"
     y="165.96356"
     id="text592"
     sodipodi:linespacing="100%"
     transform="scale(0.906317,0.911424)"><tspan
       x="27.740873"
       y="165.96356"
       sodipodi:role="line"
       id="tspan601">C</tspan></text>
  <text
     style="font-size:150.00000;font-style:normal;font-weight:normal;fill:#d0d0c2;fill-opacity:1.0000000;stroke:none;stroke-width:1.0000000pt;stroke-linecap:butt;stroke-linejoin:miter;stroke-opacity:1.0000000;font-family:Times;text-anchor:start;writing-mode:lr;"
     x="141.46017"
     y="162.71429"
     id="text606"
     sodipodi:linespacing="100%"
     transform="scale(0.906317,0.932945)"><tspan
       x="141.46017"
       y="162.71429"
       sodipodi:role="line"
       id="tspan607">D</tspan></text>
  <path
     style="font-size:150.00000;font-weight:normal;fill:none;stroke:#000000;stroke-width:5.5942006;stroke-linecap:round;stroke-linejoin:round;stroke-opacity:0.26219508;font-family:Times;"
     d="M 82.284365,62.051944 L 164.27569,62.051944 L 165.05512,85.396586 L 161.58284,85.396586 C 159.88205,78.062216 157.70879,73.299338 155.06316,71.107955 C 152.46475,68.871980 146.96087,67.753947 138.55152,67.753947 L 130.47288,67.753947 L 130.47288,138.05587 C 130.47288,143.37776 131.34693,146.68718 133.09494,147.98403 C 134.84287,149.23629 138.66961,150.06357 144.57508,150.46616 L 144.57508,152.94811 L 102.26847,152.94811 L 102.26847,150.46616 C 108.41004,150.01889 112.23687,149.05738 113.74861,147.58162 C 115.26044,146.10578 116.01631,142.39387 116.01631,136.44598 L 116.01631,67.753947 L 107.93767,67.753947 C 99.906250,67.753947 94.426022,68.849594 91.496896,71.040978 C 88.614989,73.232271 86.441822,78.017534 84.977214,85.396586 L 81.434058,85.396586 L 82.284365,62.051944 z "
     id="path655" />
  <path
     style="font-size:150.00000;font-weight:normal;fill:#dfd8be;stroke:#ece6cd;stroke-width:2.4196055;stroke-linejoin:bevel;font-family:Times;"
     d="M 81.762326,60.279997 L 163.75374,60.279997 L 164.53318,83.624638 L 161.06080,83.624638 C 159.36001,76.290358 157.18675,71.527390 154.54121,69.336097 C 151.94271,67.100123 146.43883,65.982090 138.02957,65.982090 L 129.95084,65.982090 L 129.95084,136.28401 C 129.95084,141.60581 130.82489,144.91523 132.57290,146.21217 C 134.32092,147.46434 138.14757,148.29162 144.05313,148.69430 L 144.05313,151.17625 L 101.74643,151.17625 L 101.74643,148.69430 C 107.88809,148.24703 111.71483,147.28552 113.22666,145.80968 C 114.73840,144.33383 115.49427,140.62192 115.49427,134.67403 L 115.49427,65.982090 L 107.41563,65.982090 C 99.384210,65.982090 93.903983,67.077737 90.974857,69.269030 C 88.093041,71.460323 85.919874,76.245586 84.455266,83.624638 L 80.912020,83.624638 L 81.762326,60.279997 z "
     id="path612" />
  <text
     style="font-size:56.000000;font-style:normal;font-weight:normal;fill:#000000;fill-opacity:0.45731708;stroke:#000000;stroke-width:2.2550206;stroke-linecap:butt;stroke-linejoin:miter;stroke-miterlimit:4.0000000;stroke-dashoffset:0.0000000;stroke-opacity:0.40243903;font-family:Times New Roman;text-anchor:start;writing-mode:lr;"
     x="28.152573"
     y="90.161949"
     id="text1586"
     sodipodi:linespacing="100%"
     transform="scale(1.299034,1.478354)"><tspan
       x="28.152573"
       y="90.161949"
       sodipodi:role="line"
       id="tspan1587"
       style="stroke-dashoffset:0.0000000;">Solms</tspan></text>
  <text
     style="font-size:56.000000;font-style:normal;font-weight:normal;fill:url(#linearGradient2218);fill-opacity:1.0000000;stroke:#009082;stroke-width:1.3530124;stroke-linecap:butt;stroke-linejoin:miter;stroke-miterlimit:4.0000000;stroke-dashoffset:0.0000000;stroke-opacity:1.0000000;font-family:Times New Roman;text-anchor:start;writing-mode:lr;"
     x="27.247580"
     y="88.083092"
     id="text624"
     sodipodi:linespacing="100%"
     transform="scale(1.299034,1.478354)"><tspan
       x="27.247580"
       y="88.083092"
       sodipodi:role="line"
       id="tspan641"
       style="stroke-dashoffset:0.0000000;">Solms</tspan></text>
  <text
     xml:space="preserve"
     style="font-size:18.000000;font-style:normal;font-variant:normal;font-weight:normal;font-stretch:normal;fill:#ffffff;fill-opacity:0.48170730;stroke:none;stroke-width:1.0000000pt;stroke-linecap:butt;stroke-linejoin:miter;stroke-opacity:1.0000000;font-family:Arial Rounded MT Bold;text-anchor:start;writing-mode:lr;"
     x="50.907753"
     y="180.53682"
     id="text1572"
     sodipodi:linespacing="100%"><tspan
       id="tspan1573">www.solms.co.za</tspan></text>
  <path
     style="fill:#008f66;fill-opacity:0.26666668;fill-rule:evenodd;stroke:#008677;stroke-width:1.7399837;stroke-linecap:butt;stroke-linejoin:miter;stroke-miterlimit:4.0000000;stroke-opacity:0.32926831;"
     d="M 0.35495214,1.0634356 L 0.35495214,2.0577120 L 0.35495214,248.66932 L 0.35495214,249.63253 L 1.3181574,249.63253 L 247.96084,249.63253 L 248.92405,249.63253 L 248.92405,248.66932 L 248.92405,2.0577120 L 248.92405,1.0634356 L 247.96084,1.0634356 L 1.3181574,1.0634356 L 0.35495214,1.0634356 z M 2.2813626,3.0209172 L 246.99764,3.0209172 L 246.99764,247.70612 L 2.2813626,247.70612 L 2.2813626,3.0209172 z "
     id="rect3508" />
  <rect
     style="fill:none;fill-opacity:0.75000000;fill-rule:evenodd;stroke:#000000;stroke-width:1.5574159pt;stroke-linecap:butt;stroke-linejoin:miter;stroke-opacity:1.0000000;"
     id="rect2265"
     width="248.05568"
     height="248.05113"
     x="0.97216278"
     y="0.97426307" />
</svg>
