<?xml version="1.0" encoding="UTF-8"?>
<!DOCTYPE svg PUBLIC "-//W3C//DTD SVG 1.0//EN" "http://www.w3.org/TR/2001/REC-SVG-20010904/DTD/svg10.dtd">
<svg width="118mm" height="117mm" viewBox="0 0 11800 11700">
 <g style="stroke:none;fill:rgb(204,204,204)">
  <polygon points="134,489 11724,489 11724,11657 134,11657 134,489"/>
 </g>
 <g style="stroke:rgb(0,0,0);fill:none">
  <polyline points="5929,11657 134,11657 134,489 11724,489 11724,11657 5929,11657" style="fill:none"/>
 </g>
 <g style="stroke:none;fill:rgb(230,230,255)">
  <polygon points="799,1263 11279,1263 11279,2400 799,2400 799,1263"/>
 </g>
 <g style="stroke:rgb(0,0,0);fill:none">
  <polyline points="6039,2400 799,2400 799,1263 11279,1263 11279,2400 6039,2400" style="fill:none"/>
 </g>
 <g style="font-family:Thorndale;font-size:423;font-weight:400">
  <g style="stroke:none;fill:rgb(0,0,0)">
   <text>
    <tspan x="979 1216 1402 1614 1944 2063 2164 2376 2562 2706 2876 2986 3197 3409 3654 3841 4052 4154 4366 4560 4662 4848 5060 5246 5458 5670 5788 6000 6211 6457 6643 6948 7202 7439 7583 7795 7981 8167 " y="1783">&lt;?xml version=&quot;1.0&quot; encoding=&quot;UTF-8&quot;?&gt;
    </tspan>
   </text>
   <text>
    <tspan x="979 1216 1352 1495 1639 1741 1978 2190 2308 2638 2799 2909 3163 3307 3494 3612 3824 3942 4154 4366 4467 4797 4992 5314 5526 5644 5754 6034 6245 6457 6626 6838 6956 7067 7185 7397 7608 7727 7837 8074 8184 8514 8726 8845 9031 9141 9395 9607 9801 10131 10343 10453 10648 10750 10893 11029 " y="2257">&lt;!-- Solms Training &amp;amp; Consulting: Simple Example --&gt;
    </tspan>
   </text>
  </g>
  <g style="stroke:none;fill:rgb(230,230,255)">
   <polygon points="799,3328 11279,3328 11279,9797 799,9797 799,3328"/>
  </g>
  <g style="stroke:rgb(0,0,0);fill:none">
   <polyline points="6039,9797 799,9797 799,3328 11279,3328 11279,9797 6039,9797" style="fill:none"/>
  </g>
 </g>
 <g style="font-family:Thorndale;font-size:388;font-weight:400">
  <g style="stroke:none;fill:rgb(0,0,0)">
   <text>
    <tspan x="1058 1270 1532 1727 1922 2116 " y="3734">&lt;Book&gt;
    </tspan>
   </text>
   <text>
    <tspan x="1270 1363 1465 1676 1939 2134 2311 2506 2608 " y="4166">&lt;Chapter&gt;
    </tspan>
   </text>
   <text>
    <tspan x="1482 1575 1677 1770 1871 2083 2329 2430 2540 2650 2820 3040 3175 3370 3472 3607 3802 3997 4191 4361 4471 4581 4776 4970 5063 5173 5368 5461 5749 5944 6113 6376 6570 6765 6960 7180 7290 7527 " y="4598">&lt;Title&gt;Introduction to DocBook&lt;/Title&gt;
    </tspan>
   </text>
   <text>
    <tspan x="1482 1575 1677 1770 1871 2083 " y="5030">&lt;Part&gt;
    </tspan>
   </text>
   <text>
    <tspan x="1694 1787 1889 1982 2083 2177 2278 2490 2735 2837 2947 3057 3226 3447 3819 4014 4183 4293 4386 4496 4649 4750 5030 5225 5394 5656 5851 6046 6241 6410 6630 " y="5462">&lt;Title&gt;What is DocBook?&lt;/Title&gt;
    </tspan>
   </text>
   <text>
    <tspan x="1694 1787 1889 1982 2083 2177 " y="5894">&lt;Para&gt;
    </tspan>
   </text>
   <text>
    <tspan x="1906 1999 2101 2194 2295 2389 2490 2583 2685 2964 3159 3328 3591 3786 3980 4175 4268 4378 4531 4632 4802 4996 5089 5377 5724 5962 6055 6249 6427 6571 6749 6944 7037 7325 7519 7689 7883 8188 8358 8552 8662 8764 9001 9196 9391 9560 9661 9941 10110 " y="6326">DocBook is an XML based Document Type Definition 
    </tspan>
   </text>
   <text>
    <tspan x="1906 1999 2101 2194 2295 2389 2490 2583 2685 2964 3159 3269 3438 3633 3726 3828 4023 4150 4344 4649 4844 4954 5123 5276 5377 5547 5648 5792 5902 6080 6275 6470 6639 6766 " y="6758">which  promotes a standard for ...
    </tspan>
   </text>
   <text>
    <tspan x="1694 1787 1889 1982 2083 2177 2278 " y="7190">&lt;/Para&gt;
    </tspan>
   </text>
   <text>
    <tspan x="1694 1787 1889 1982 2083 2177 " y="7622">&lt;Para&gt;
    </tspan>
   </text>
   <text>
    <tspan x="1906 1999 2101 2194 2295 2389 2490 2583 2685 2964 3159 3328 3591 3786 3980 4175 4268 4556 4725 4878 4971 5166 5343 5538 5708 5818 6012 6207 6376 6571 6673 6867 6994 7105 7409 7579 7714 7816 7926 " y="8054">DocBook was developed primarily for ...
    </tspan>
   </text>
   <text>
    <tspan x="1694 1787 1889 1982 2083 2177 2278 " y="8486">&lt;/Para&gt;
    </tspan>
   </text>
   <text>
    <tspan x="1376 1469 1571 1664 1774 1994 2248 2443 2621 2815 " y="8918">/&lt;Chapter&gt;
    </tspan>
   </text>
   <text>
    <tspan x="1058 1270 1380 1642 1837 2032 2226 " y="9350">&lt;/Book&gt;
    </tspan>
   </text>
  </g>
  <g style="stroke:none;fill:rgb(230,230,255)">
   <polygon points="799,10475 11279,10475 11279,11386 799,11386 799,10475"/>
  </g>
  <g style="stroke:rgb(0,0,0);fill:none">
   <polyline points="6039,11386 799,11386 799,10475 11279,10475 11279,11386 6039,11386" style="fill:none"/>
  </g>
 </g>
 <g style="font-family:Thorndale;font-size:423;font-weight:400">
  <g style="stroke:none;fill:rgb(0,0,0)">
   <text>
    <tspan x="979 1216 1352 1495 1639 1868 2080 2224 2342 2554 2740 2884 2986 3273 3485 3815 4146 4332 4543 4662 4823 4933 5119 5331 5543 5644 5856 6000 6211 6398 6584 6753 6914 7033 7244 7456 7566 7685 7896 8057 8176 8320 8531 8718 8836 8955 9166 9378 9539 9640 9784 9928 " y="11150">&lt;!--Further Comments and processing instructions --&gt;
    </tspan>
   </text>
  </g>
 </g>
 <g style="font-family:Thorndale;font-size:493;font-weight:700">
  <g style="stroke:none;fill:rgb(0,0,0)">
   <text>
    <tspan x="873 1220 1466 1686 1957 2372 2583 2863 3024 3151 3447 3667 3913 4048 4294 " y="1198">Document Prolog
    </tspan>
   </text>
   <text>
    <tspan x="900 1247 1493 1713 1984 2399 2610 2890 3051 3178 3499 3745 4016 " y="3209">Document Body
    </tspan>
   </text>
   <text>
    <tspan x="873 1220 1466 1686 1957 2372 2583 2863 3024 3151 3472 3743 3887 4023 4268 " y="10405">Document Epilog
    </tspan>
   </text>
   <text>
    <tspan x="132 479 945 1275 1394 1749 1995 2215 2486 2901 3112 3392 " y="431">XML Document
    </tspan>
   </text>
  </g>
 </g>
</svg>